<?xml version="1.0" encoding="utf-8"?>
<!-- Generator: Adobe Illustrator 27.5.0, SVG Export Plug-In . SVG Version: 6.00 Build 0)  -->
<svg version="1.1" id="Capa_1" xmlns="http://www.w3.org/2000/svg" xmlns:xlink="http://www.w3.org/1999/xlink" x="0px" y="0px"
	 viewBox="0 0 2122 2122" style="enable-background:new 0 0 2122 2122;" xml:space="preserve">
<g>
	<rect x="0.007" y="0.007" style="fill:#FFFFFF;" width="2121.306" height="2121.306"/>
	<g style="opacity:0.1;">
		<g>
			<path style="fill:#EE3041;" d="M2037.66,0.007l-38.477,77.164c0,0,33.038-12.19,35.164-6.012
				c2.663,7.81,12.427,67.313,12.427,67.313s42.245-38.387,50.277-46.558c5.104-5.169,21.788,21.252,24.263,25.247V0.007H2037.66z"
				/>
			<path style="fill:#EE3041;" d="M997.319,0.007c-1.966,4.146-3.579,7.157-3.579,7.157l19.308-7.157H997.319z"/>
			<path style="fill:#EE3041;" d="M1300.807,2.555l-2.945-2.548h-234.634l-41.181,82.571c0,0,33.04-12.19,35.171-6.012
				c2.66,7.815,12.424,67.317,12.424,67.317s42.248-38.392,50.28-46.562c5.52-5.588,24.596,25.793,24.596,25.793l18.887-104.126
				c0,0,1.462-11.44,2.075-11.425c0.663,0.02,5.844,9.023,5.844,9.023l40.784,62.859c0,0,4.989-33.037,11.6-30.265
				c9.62,4.049,58.628,21.554,58.628,21.554s-12.702-53.451-13.203-60.93C1268.744,3.842,1300.807,2.555,1300.807,2.555z"/>
			<path style="fill:#EE3041;" d="M1672.375,78.735c0,0-49.778-15.191-59.916-17.695c-6.962-1.705,8.833-31.176,8.833-31.176
				l-70.367,26.08c0,0-10.514,4.77-10.502,3.912c-0.005-0.955,6.329-12.707,6.329-12.707l23.508-47.142h-115.365l-3.267,18.031
				c0,0-1.462,11.444-2.071,11.43c-0.665-0.024-5.854-9.028-5.854-9.028l-13.259-20.433h-89.977
				c2.743,12.302,5.213,23.995,5.43,27.215c0.397,5.968-31.671,7.24-31.671,7.24l72.382,62.596c0,0,14.304,10.904,15.266,16.322
				c1.525,8.399-15.03,28-15.03,28l67.442,14.148l0.041,5.413l-29.245,77.792l9.647,3.196l23.218-79.804l3.279-4.302l62.538,28.886
				c0,0-2.938-24.161,3.276-29.973c4.468-4.166,25.88-5.491,25.88-5.491l93.405-6.85c0,0-24.945-20.141-21.047-24.697
				C1630.161,114.004,1672.375,78.735,1672.375,78.735z"/>
			<path style="fill:#EE3041;" d="M1691.483,149.609c-4.884,5.695-47.098,40.974-47.098,40.974s49.785,15.186,59.917,17.69
				c6.967,1.715-8.828,31.176-8.828,31.176l70.358-26.07c0,0,10.519-4.779,10.514-3.917c0,0.95-6.334,12.702-6.334,12.702
				l-46.229,92.696c0,0,33.035-12.185,35.167-6.012c2.66,7.824,12.424,67.317,12.424,67.317s42.246-38.387,50.282-46.557
				c5.518-5.583,24.592,25.798,24.592,25.798l18.887-104.126c0,0,1.464-11.444,2.078-11.435c0.663,0.024,5.844,9.028,5.844,9.028
				l40.785,62.859c0,0,4.989-33.038,11.6-30.26c9.62,4.039,58.631,21.554,58.631,21.554s-12.704-53.452-13.208-60.93
				c-0.385-5.973,31.676-7.255,31.676-7.255l-72.377-62.591c0,0-14.306-10.899-15.279-16.322
				c-1.515-8.385,15.04-28.005,15.04-28.005l-67.439-14.139l-0.046-5.412l29.24-77.792l-9.642-3.196l-23.22,79.8l-3.279,4.302
				l-62.528-28.886c0,0,2.935,24.155-3.289,29.977c-4.455,4.166-25.88,5.486-25.88,5.486l-93.397,6.85
				C1670.44,124.912,1695.376,145.058,1691.483,149.609z"/>
			<path style="fill:#EE3041;" d="M2121.313,380.53V215.547l-16.665-25.681c0,0-4.989,33.043-11.6,30.256
				c-9.618-4.039-58.628-21.54-58.628-21.54s12.704,53.447,13.201,60.92c0.402,5.978-31.659,7.25-31.659,7.25l72.379,62.586
				c0,0,14.297,10.913,15.262,16.322c1.523,8.409-15.028,28.009-15.028,28.009L2121.313,380.53z"/>
		</g>
		<g>
			<path style="fill:#EE3041;" d="M303.213,0.782c0.166-0.2,0.482-0.512,0.736-0.775H79.03c-3.216,9.369-14.258,22.46-14.258,22.46
				l67.446,14.139l0.034,5.408l-29.237,77.797l9.647,3.192l23.22-79.795l3.276-4.302l62.531,28.882c0,0-2.928-24.156,3.286-29.968
				c4.463-4.161,25.875-5.491,25.875-5.491l93.407-6.85C324.258,25.478,299.313,5.332,303.213,0.782z"/>
			<path style="fill:#EE3041;" d="M680.464,115.928L608.09,53.337c0,0-14.302-10.909-15.272-16.331
				c-1.52-8.399,15.04-28.005,15.04-28.005L564.96,0.007H429.999l-81.631,5.988c0,0,24.94,20.151,21.047,24.692
				c-4.886,5.7-47.096,40.974-47.096,40.974s49.78,15.191,59.914,17.69c6.97,1.71-8.828,31.166-8.828,31.166l70.36-26.061
				c0,0,10.521-4.774,10.509-3.912c-0.002,0.955-6.336,12.701-6.336,12.701l-46.221,92.706c0,0,33.033-12.2,35.161-6.027
				c2.665,7.82,12.426,67.323,12.426,67.323s42.243-38.387,50.282-46.557c5.515-5.589,24.59,25.798,24.59,25.798l18.894-104.136
				c0,0,1.461-11.444,2.073-11.425c0.655,0.029,5.844,9.018,5.844,9.018l40.784,62.859c0,0,4.991-33.028,11.6-30.251
				c9.627,4.034,58.628,21.549,58.628,21.549S649.3,130.652,648.8,123.168C648.403,117.195,680.464,115.928,680.464,115.928z"/>
			<path style="fill:#EE3041;" d="M1004.944,233.067c4.884-5.705,47.096-40.969,47.096-40.969s-49.783-15.196-59.912-17.695
				c-6.967-1.705,8.824-31.176,8.824-31.176l-70.358,26.08c0,0-10.523,4.775-10.516,3.907c0.007-0.95,6.339-12.697,6.339-12.697
				l46.224-92.701c0,0-33.033,12.19-35.157,6.002c-2.665-7.805-12.424-67.308-12.424-67.308s-42.253,38.377-50.29,46.552
				c-5.515,5.588-24.594-25.788-24.594-25.788l-18.886,104.126c0,0-1.464,11.444-2.071,11.43c-0.665-0.024-5.851-9.023-5.851-9.023
				l-40.775-62.859c0,0-4.998,33.038-11.605,30.255c-9.625-4.039-58.635-21.544-58.635-21.544s12.706,53.442,13.203,60.925
				c0.402,5.973-31.666,7.249-31.666,7.249l72.379,62.582c0,0,14.307,10.908,15.269,16.331c1.513,8.404-15.033,28.005-15.033,28.005
				l67.444,14.143l0.036,5.404l-29.242,77.802l9.651,3.191l23.216-79.809l3.279-4.293l62.533,28.882c0,0-2.935-24.161,3.281-29.973
				c4.468-4.161,25.88-5.491,25.88-5.491l93.404-6.84C1025.988,257.769,1001.043,237.613,1004.944,233.067z"/>
			<path style="fill:#EE3041;" d="M1071.143,262.972c-4.879,5.701-47.093,40.974-47.093,40.974s49.783,15.181,59.914,17.695
				c6.97,1.71-8.828,31.167-8.828,31.167l70.362-26.061c0,0,10.516-4.784,10.507-3.922c0,0.96-6.331,12.702-6.331,12.702
				l-46.229,92.71c0,0,33.038-12.2,35.169-6.022c2.66,7.815,12.427,67.317,12.427,67.317s42.245-38.392,50.277-46.562
				c5.52-5.584,24.594,25.807,24.594,25.807l18.886-104.135c0,0,1.464-11.445,2.076-11.425c0.662,0.02,5.846,9.018,5.846,9.018
				l40.786,62.859c0,0,4.989-33.037,11.595-30.25c9.625,4.029,58.631,21.539,58.631,21.539s-12.702-53.451-13.206-60.93
				c-0.392-5.968,31.674-7.245,31.674-7.245l-72.38-62.581c0,0-14.299-10.909-15.271-16.336
				c-1.518-8.399,15.038-28.005,15.038-28.005l-67.442-14.134l-0.044-5.413l29.245-77.797l-9.651-3.191l-23.22,79.804l-3.274,4.297
				l-62.533-28.881c0,0,2.936,24.146-3.288,29.978c-4.456,4.156-25.873,5.476-25.873,5.476l-93.402,6.86
				C1050.103,238.285,1075.038,258.426,1071.143,262.972z"/>
			<path style="fill:#EE3041;" d="M1706.679,465.353c4.877-5.7,47.094-40.969,47.094-40.969s-49.781-15.196-59.922-17.695
				c-6.96-1.705,8.84-31.176,8.84-31.176l-70.365,26.075c0,0-10.521,4.784-10.509,3.917c-0.003-0.96,6.328-12.702,6.328-12.702
				l46.224-92.706c0,0-33.028,12.195-35.159,6.012c-2.663-7.81-12.424-67.317-12.424-67.317s-42.25,38.377-50.28,46.562
				c-5.52,5.588-24.599-25.793-24.599-25.793l-18.887,104.125c0,0-1.469,11.45-2.073,11.43c-0.662-0.029-5.852-9.023-5.852-9.023
				l-40.776-62.864c0,0-4.999,33.047-11.608,30.26c-9.617-4.039-58.628-21.549-58.628-21.549s12.706,53.442,13.205,60.925
				c0.397,5.978-31.666,7.254-31.666,7.254l72.377,62.586c0,0,14.302,10.899,15.271,16.331c1.518,8.399-15.042,28-15.042,28
				l67.449,14.143l0.039,5.403l-29.242,77.797l9.647,3.191l23.225-79.799l3.271-4.297l62.536,28.886c0,0-2.933-24.161,3.281-29.973
				c4.463-4.161,25.878-5.496,25.878-5.496l93.407-6.845C1727.721,490.049,1702.774,469.898,1706.679,465.353z"/>
			<path style="fill:#EE3041;" d="M1772.878,495.257c-4.884,5.695-47.091,40.974-47.091,40.974s49.773,15.186,59.907,17.695
				c6.97,1.71-8.825,31.167-8.825,31.167l70.36-26.066c0,0,10.516-4.775,10.509-3.912c0,0.95-6.334,12.701-6.334,12.701
				l-46.224,92.706c0,0,33.035-12.2,35.159-6.022c2.665,7.819,12.427,67.312,12.427,67.312s42.253-38.387,50.285-46.553
				c5.515-5.588,24.592,25.798,24.592,25.798l18.891-104.131c0,0,1.459-11.444,2.066-11.425c0.67,0.024,5.849,9.023,5.849,9.023
				l40.781,62.849c0,0,4.991-33.033,11.603-30.25c9.627,4.039,58.635,21.549,58.635,21.549s-12.706-53.452-13.203-60.93
				c-0.399-5.973,31.664-7.245,31.664-7.245l-72.374-62.596c0,0-14.302-10.904-15.274-16.321
				c-1.518-8.4,15.035-28.005,15.035-28.005l-67.439-14.143l-0.041-5.404l29.242-77.802l-9.654-3.191l-23.213,79.809l-3.272,4.293
				l-62.54-28.882c0,0,2.938,24.146-3.286,29.973c-4.456,4.166-25.875,5.486-25.875,5.486l-93.405,6.85
				C1751.831,470.566,1776.773,490.717,1772.878,495.257z"/>
			<path style="fill:#EE3041;" d="M2121.313,546.2c-3.394-1.218-5.499-1.969-5.499-1.969s2.604,10.948,5.499,23.625V546.2z"/>
			<path style="fill:#EE3041;" d="M2121.313,609.6c-9.371,2.217-23.956,2.801-23.956,2.801l23.956,20.716V609.6z"/>
			<path style="fill:#EE3041;" d="M27.805,238.485c4.887-5.705,47.101-40.979,47.101-40.979s-49.775-15.186-59.909-17.701
				c-6.972-1.705,8.824-31.162,8.824-31.162l-23.812,8.818v109.29l48.855-3.586C48.862,263.167,23.917,243.026,27.805,238.485z"/>
			<path style="fill:#EE3041;" d="M94.017,268.39c-4.887,5.69-47.096,40.959-47.096,40.959s49.781,15.196,59.912,17.705
				c6.972,1.705-8.831,31.162-8.831,31.162l70.367-26.076c0,0,10.519-4.774,10.504-3.902c0,0.955-6.329,12.702-6.329,12.702
				l-46.233,92.701c0,0,33.04-12.195,35.169-6.012c2.66,7.81,12.427,67.308,12.427,67.308s42.243-38.372,50.277-46.548
				c5.518-5.593,24.597,25.788,24.597,25.788l18.886-104.121c0,0,1.462-11.454,2.075-11.44c0.661,0.029,5.849,9.023,5.849,9.023
				l40.782,62.864c0,0,4.989-33.042,11.598-30.25c9.622,4.034,58.633,21.535,58.633,21.535s-12.706-53.442-13.206-60.926
				c-0.4-5.968,31.671-7.25,31.671-7.25l-72.377-62.581c0,0-14.302-10.918-15.276-16.326c-1.52-8.399,15.042-28,15.042-28
				l-67.446-14.139l-0.044-5.418l29.242-77.802l-9.644-3.191l-23.218,79.809l-3.281,4.302l-62.536-28.891
				c0,0,2.941,24.156-3.281,29.982c-4.455,4.161-25.875,5.491-25.875,5.491l-93.4,6.835
				C72.974,243.683,97.907,263.839,94.017,268.39z"/>
			<path style="fill:#EE3041;" d="M729.538,470.77c4.889-5.705,47.099-40.974,47.099-40.974s-49.778-15.191-59.912-17.7
				c-6.965-1.705,8.826-31.167,8.826-31.167L655.188,407c0,0-10.516,4.774-10.504,3.912c0-0.955,6.334-12.706,6.334-12.706
				l46.229-92.701c0,0-33.038,12.19-35.166,6.017c-2.66-7.82-12.424-67.307-12.424-67.307s-42.248,38.362-50.284,46.548
				c-5.515,5.583-24.594-25.793-24.594-25.793l-18.889,104.136c0,0-1.457,11.43-2.068,11.425c-0.662-0.029-5.854-9.023-5.854-9.023
				l-40.784-62.859c0,0-4.989,33.033-11.595,30.246c-9.622-4.029-58.633-21.539-58.633-21.539s12.704,53.442,13.201,60.935
				c0.4,5.958-31.663,7.235-31.663,7.235l72.372,62.591c0,0,14.307,10.913,15.276,16.327c1.515,8.399-15.04,28.009-15.04,28.009
				l67.444,14.134l0.044,5.418l-29.242,77.787l9.649,3.196l23.215-79.799l3.279-4.298l62.528,28.877c0,0-2.928-24.16,3.289-29.978
				c4.46-4.156,25.88-5.486,25.88-5.486l93.405-6.845C750.59,495.457,725.648,475.311,729.538,470.77z"/>
			<path style="fill:#EE3041;" d="M795.744,500.665c-4.884,5.7-47.093,40.964-47.093,40.964s49.78,15.206,59.914,17.7
				c6.969,1.715-8.831,31.176-8.831,31.176l70.365-26.075c0,0,10.521-4.78,10.506-3.917c-0.005,0.96-6.331,12.707-6.331,12.707
				l-46.234,92.705c0,0,33.042-12.195,35.167-6.007c2.665,7.805,12.431,67.307,12.431,67.307s42.243-38.382,50.28-46.548
				c5.515-5.598,24.592,25.783,24.592,25.783l18.889-104.126c0,0,1.464-11.444,2.076-11.43c0.66,0.019,5.849,9.018,5.849,9.018
				l40.78,62.864c0,0,4.992-33.042,11.593-30.251c9.627,4.034,58.64,21.539,58.64,21.539s-12.706-53.452-13.208-60.925
				c-0.39-5.968,31.674-7.254,31.674-7.254l-72.379-62.577c0,0-14.302-10.918-15.272-16.331c-1.52-8.394,15.035-28,15.035-28
				l-67.439-14.139l-0.046-5.427l29.242-77.787l-9.647-3.191l-23.218,79.794l-3.281,4.307l-62.528-28.882
				c0,0,2.928,24.146-3.286,29.973c-4.456,4.161-25.883,5.491-25.883,5.491l-93.392,6.845
				C774.707,475.974,799.64,496.12,795.744,500.665z"/>
			<path style="fill:#EE3041;" d="M1431.266,703.056c4.892-5.71,47.103-40.969,47.103-40.969s-49.78-15.196-59.912-17.71
				c-6.972-1.701,8.823-31.157,8.823-31.157l-70.362,26.065c0,0-10.514,4.779-10.502,3.912c-0.008-0.955,6.331-12.716,6.331-12.716
				l46.227-92.696c0,0-33.03,12.2-35.162,6.022c-2.66-7.815-12.424-67.308-12.424-67.308s-42.251,38.357-50.289,46.547
				c-5.51,5.588-24.589-25.798-24.589-25.798l-18.899,104.136c0,0-1.457,11.439-2.058,11.425c-0.668-0.024-5.856-9.013-5.856-9.013
				l-40.782-62.864c0,0-4.989,33.038-11.6,30.241c-9.627-4.019-58.628-21.534-58.628-21.534s12.704,53.447,13.196,60.93
				c0.409,5.968-31.661,7.24-31.661,7.24l72.379,62.596c0,0,14.302,10.909,15.269,16.317c1.523,8.404-15.038,28.014-15.038,28.014
				l67.444,14.139l0.039,5.408l-29.237,77.797l9.644,3.192l23.218-79.8l3.274-4.292l62.538,28.877c0,0-2.929-24.161,3.284-29.978
				c4.463-4.156,25.88-5.486,25.88-5.486l93.404-6.855C1452.321,727.738,1427.38,707.596,1431.266,703.056z"/>
			<path style="fill:#EE3041;" d="M1497.477,732.956c-4.887,5.69-47.094,40.964-47.094,40.964s49.778,15.191,59.907,17.7
				c6.977,1.705-8.823,31.172-8.823,31.172l70.362-26.075c0,0,10.516-4.775,10.507-3.912c0,0.955-6.331,12.706-6.331,12.706
				l-46.231,92.701c0,0,33.038-12.19,35.164-6.012c2.667,7.815,12.426,67.317,12.426,67.317s42.246-38.382,50.28-46.553
				c5.52-5.598,24.594,25.783,24.594,25.783l18.889-104.121c0,0,1.467-11.45,2.076-11.43c0.665,0.019,5.846,9.019,5.846,9.019
				l40.781,62.864c0,0,4.991-33.047,11.603-30.255c9.62,4.029,58.631,21.539,58.631,21.539s-12.702-53.447-13.203-60.925
				c-0.395-5.964,31.671-7.25,31.671-7.25l-72.377-62.586c0,0-14.304-10.913-15.284-16.322c-1.51-8.404,15.048-28.005,15.048-28.005
				l-67.444-14.138l-0.041-5.423l29.237-77.792l-9.647-3.191l-23.213,79.799l-3.281,4.302l-62.528-28.881
				c0,0,2.936,24.151-3.289,29.968c-4.458,4.171-25.883,5.501-25.883,5.501l-93.392,6.835
				C1476.437,708.254,1501.37,728.41,1497.477,732.956z"/>
			<path style="fill:#EE3041;" d="M2121.313,876.954c-0.414-0.107-0.794-0.204-1.128-0.287c-3.215-0.784-1.566-7.493,1.128-14.485
				V848.35l-62.662,23.216c0,0-10.519,4.779-10.509,3.917c0-0.95,6.336-12.711,6.336-12.711l46.226-92.696
				c0,0-33.03,12.195-35.159,6.022c-2.66-7.82-12.434-67.318-12.434-67.318s-42.243,38.368-50.277,46.558
				c-5.517,5.583-24.592-25.798-24.592-25.798l-18.889,104.135c0,0-1.466,11.435-2.07,11.425c-0.667-0.024-5.852-9.023-5.852-9.023
				l-40.786-62.864c0,0-4.989,33.038-11.595,30.251c-9.63-4.03-58.635-21.534-58.635-21.534s12.706,53.442,13.201,60.93
				c0.404,5.954-31.659,7.235-31.659,7.235l72.374,62.601c0,0,14.3,10.903,15.267,16.317c1.525,8.399-15.03,28.01-15.03,28.01
				l67.439,14.143l0.044,5.408l-29.242,77.792l9.647,3.196l23.218-79.804l3.276-4.297l62.531,28.881c0,0-2.928-24.16,3.289-29.977
				c4.458-4.156,25.88-5.486,25.88-5.486l60.665-4.453V876.954z"/>
		</g>
		<g>
			<path style="fill:#EE3041;" d="M109.207,584.129c4.882-5.695,47.096-40.969,47.096-40.969s-49.783-15.186-59.914-17.695
				c-6.967-1.71,8.828-31.171,8.828-31.171l-70.362,26.07c0,0-10.519,4.775-10.507,3.912c0-0.95,6.331-12.702,6.331-12.702
				l46.226-92.7c0,0-33.033,12.185-35.166,6.012c-2.66-7.81-12.417-67.308-12.417-67.308s-15.354,13.949-29.315,26.821v263.189
				l7.679,3.547c0,0-2.936-24.156,3.284-29.978c4.46-4.166,25.878-5.486,25.878-5.486l93.405-6.85
				C130.253,608.82,105.31,588.674,109.207,584.129z"/>
			<path style="fill:#EE3041;" d="M175.409,614.033c-4.884,5.706-47.093,40.965-47.093,40.965s49.775,15.196,59.907,17.7
				c6.974,1.715-8.824,31.176-8.824,31.176l70.358-26.07c0,0,10.528-4.789,10.519-3.922c-0.01,0.96-6.341,12.711-6.341,12.711
				l-46.221,92.696c0,0,33.035-12.19,35.159-6.007c2.665,7.805,12.429,67.312,12.429,67.312s42.243-38.387,50.274-46.557
				c5.52-5.593,24.602,25.798,24.602,25.798l18.886-104.135c0,0,1.462-11.44,2.076-11.43c0.658,0.02,5.842,9.023,5.842,9.023
				l40.779,62.864c0,0,4.996-33.037,11.605-30.26c9.627,4.034,58.633,21.539,58.633,21.539s-12.709-53.432-13.206-60.925
				c-0.397-5.963,31.669-7.245,31.669-7.245l-72.379-62.581c0,0-14.299-10.904-15.272-16.327
				c-1.518-8.404,15.04-28.009,15.04-28.009l-67.439-14.144l-0.044-5.403l29.237-77.792l-9.644-3.196l-23.218,79.804l-3.274,4.288
				l-62.538-28.872c0,0,2.933,24.151-3.286,29.968c-4.458,4.161-25.878,5.486-25.878,5.486l-93.397,6.85
				C154.369,589.337,179.302,609.488,175.409,614.033z"/>
			<path style="fill:#EE3041;" d="M810.94,816.419c4.882-5.695,47.094-40.979,47.094-40.979s-49.778-15.182-59.917-17.69
				c-6.965-1.71,8.828-31.167,8.828-31.167l-70.362,26.065c0,0-10.519,4.779-10.512,3.912c0.002-0.95,6.341-12.702,6.341-12.702
				l46.222-92.706c0,0-33.03,12.195-35.162,6.022c-2.66-7.82-12.419-67.313-12.419-67.313s-42.258,38.372-50.292,46.553
				c-5.508,5.583-24.587-25.798-24.587-25.798l-18.899,104.13c0,0-1.457,11.44-2.063,11.425c-0.668-0.024-5.851-9.023-5.851-9.023
				l-40.782-62.85c0,0-4.989,33.033-11.6,30.246c-9.622-4.029-58.633-21.544-58.633-21.544s12.704,53.451,13.201,60.93
				c0.407,5.968-31.656,7.245-31.656,7.245l72.372,62.582c0,0,14.304,10.918,15.269,16.336c1.518,8.395-15.035,28.004-15.035,28.004
				l67.446,14.139l0.037,5.408l-29.242,77.802l9.647,3.191l23.22-79.799l3.274-4.302l62.533,28.881c0,0-2.93-24.156,3.291-29.978
				c4.461-4.16,25.878-5.49,25.878-5.49l93.405-6.85C831.985,841.101,807.04,820.955,810.94,816.419z"/>
			<path style="fill:#EE3041;" d="M877.14,846.319c-4.887,5.705-47.094,40.969-47.094,40.969s49.778,15.196,59.909,17.701
				c6.97,1.705-8.828,31.162-8.828,31.162l70.362-26.061c0,0,10.521-4.789,10.512-3.922c0,0.965-6.334,12.711-6.334,12.711
				l-46.224,92.701c0,0,33.033-12.2,35.159-6.012c2.662,7.81,12.426,67.307,12.426,67.307s42.25-38.377,50.277-46.547
				c5.52-5.593,24.597,25.783,24.597,25.783l18.894-104.121c0,0,1.459-11.449,2.066-11.435c0.669,0.024,5.851,9.023,5.851,9.023
				l40.784,62.864c0,0,4.989-33.042,11.595-30.256c9.627,4.03,58.631,21.539,58.631,21.539s-12.699-53.432-13.198-60.925
				c-0.397-5.963,31.664-7.255,31.664-7.255l-72.375-62.577c0,0-14.299-10.908-15.271-16.321
				c-1.518-8.409,15.035-28.01,15.035-28.01l-67.439-14.148l-0.041-5.399l29.237-77.797l-9.647-3.191l-23.218,79.8l-3.274,4.292
				l-62.533-28.882c0,0,2.928,24.161-3.291,29.973c-4.453,4.16-25.875,5.49-25.875,5.49l-93.4,6.84
				C856.097,821.617,881.03,841.773,877.14,846.319z"/>
			<path style="fill:#EE3041;" d="M1512.668,1048.699c4.877-5.7,47.099-40.969,47.099-40.969s-49.783-15.186-59.917-17.695
				c-6.965-1.71,8.833-31.166,8.833-31.166l-70.362,26.06c0,0-10.524,4.784-10.509,3.922c-0.005-0.955,6.329-12.701,6.329-12.701
				l46.229-92.71c0,0-33.033,12.195-35.166,6.022c-2.66-7.815-12.424-67.317-12.424-67.317s-42.253,38.382-50.279,46.562
				c-5.517,5.579-24.592-25.798-24.592-25.798l-18.896,104.131c0,0-1.459,11.43-2.063,11.425c-0.672-0.024-5.854-9.023-5.854-9.023
				l-40.781-62.859c0,0-4.996,33.038-11.6,30.256c-9.627-4.034-58.635-21.544-58.635-21.544s12.708,53.446,13.203,60.925
				c0.405,5.968-31.659,7.24-31.659,7.24l72.38,62.591c0,0,14.294,10.919,15.269,16.336c1.518,8.395-15.042,28.005-15.042,28.005
				l67.444,14.139l0.041,5.403l-29.237,77.802l9.642,3.192l23.22-79.804l3.276-4.297l62.531,28.882c0,0-2.931-24.151,3.289-29.978
				c4.463-4.161,25.878-5.486,25.878-5.486l93.402-6.855C1533.713,1073.386,1508.771,1053.245,1512.668,1048.699z"/>
			<path style="fill:#EE3041;" d="M1578.872,1078.604c-4.889,5.705-47.091,40.974-47.091,40.974s49.773,15.186,59.907,17.69
				c6.97,1.715-8.828,31.171-8.828,31.171l70.365-26.061c0,0,10.516-4.789,10.509-3.927c-0.003,0.96-6.341,12.706-6.341,12.706
				l-46.221,92.701c0,0,33.04-12.19,35.161-6.002c2.66,7.805,12.426,67.307,12.426,67.307s42.251-38.382,50.278-46.553
				c5.52-5.593,24.601,25.783,24.601,25.783l18.887-104.121c0,0,1.461-11.445,2.073-11.43c0.665,0.019,5.844,9.023,5.844,9.023
				l40.784,62.859c0,0,4.991-33.038,11.605-30.256c9.617,4.034,58.633,21.54,58.633,21.54s-12.714-53.442-13.206-60.925
				c-0.399-5.968,31.664-7.25,31.664-7.25l-72.377-62.577c0,0-14.302-10.918-15.274-16.331c-1.518-8.404,15.037-28.01,15.037-28.01
				l-67.437-14.139l-0.041-5.408l29.237-77.787l-9.652-3.201l-23.215,79.804l-3.272,4.292l-62.537-28.877
				c0,0,2.935,24.151-3.286,29.973c-4.458,4.161-25.878,5.481-25.878,5.481l-93.397,6.85
				C1557.83,1053.908,1582.768,1074.058,1578.872,1078.604z"/>
			<path style="fill:#EE3041;" d="M2121.313,1315.635v-249.167c-13.118,11.99-31.988,29.325-37.086,34.518
				c-5.513,5.579-24.594-25.803-24.594-25.803l-18.886,104.141c0,0-1.462,11.434-2.071,11.425c-0.667-0.029-5.851-9.023-5.851-9.023
				l-40.78-62.859c0,0-4.996,33.042-11.605,30.255c-9.622-4.034-58.633-21.549-58.633-21.549s12.704,53.452,13.203,60.935
				c0.407,5.963-31.656,7.235-31.656,7.235l72.37,62.591c0,0,14.304,10.909,15.269,16.336c1.525,8.394-15.033,28-15.033,28
				l67.444,14.143l0.036,5.404l-29.235,77.807l9.64,3.191l23.218-79.814l3.279-4.293l62.535,28.886c0,0-2.936-24.16,3.288-29.977
				C2117.165,1317.086,2119.04,1316.297,2121.313,1315.635z"/>
			<path style="fill:#EE3041;" d="M211.063,936.959l-72.374-62.582c0,0-14.304-10.903-15.279-16.331c-1.515-8.394,15.04-28,15.04-28
				l-67.444-14.139l-0.041-5.418l29.242-77.787l-9.647-3.206l-23.22,79.809l-3.276,4.302l-62.54-28.891c0,0,2.3,18.972-1.515,27.332
				v247.876c12.09-11.094,25.919-23.873,30.175-28.199c5.515-5.588,24.592,25.793,24.592,25.793l18.889-104.131
				c0,0,1.459-11.434,2.073-11.425c0.66,0.024,5.849,9.018,5.849,9.018l40.776,62.874c0,0,4.994-33.048,11.608-30.265
				c9.615,4.044,58.628,21.549,58.628,21.549s-12.706-53.452-13.205-60.935C178.992,938.245,211.063,936.959,211.063,936.959z"/>
			<path style="fill:#EE3041;" d="M535.532,1054.102c4.889-5.69,47.098-40.969,47.098-40.969s-49.776-15.186-59.912-17.685
				c-6.97-1.715,8.823-31.176,8.823-31.176l-70.357,26.07c0,0-10.514,4.774-10.509,3.912c0-0.95,6.331-12.702,6.331-12.702
				l46.229-92.696c0,0-33.03,12.19-35.159,6.007c-2.663-7.81-12.424-67.313-12.424-67.313s-42.253,38.372-50.287,46.552
				c-5.518,5.589-24.597-25.783-24.597-25.783l-18.891,104.116c0,0-1.457,11.445-2.063,11.435c-0.668-0.019-5.856-9.023-5.856-9.023
				l-40.777-62.859c0,0-4.991,33.043-11.6,30.256c-9.62-4.039-58.631-21.555-58.631-21.555s12.699,53.452,13.198,60.93
				c0.405,5.978-31.668,7.245-31.668,7.245l72.374,62.596c0,0,14.312,10.903,15.281,16.321c1.513,8.4-15.042,28.01-15.042,28.01
				l67.451,14.139l0.036,5.413l-29.242,77.792l9.647,3.192l23.22-79.8l3.274-4.302l62.533,28.892c0,0-2.93-24.171,3.284-29.978
				c4.468-4.166,25.883-5.496,25.883-5.496l93.404-6.845C556.584,1078.799,531.639,1058.663,535.532,1054.102z"/>
			<path style="fill:#EE3041;" d="M601.741,1084.012c-4.887,5.7-47.101,40.974-47.101,40.974s49.785,15.191,59.917,17.691
				c6.974,1.71-8.828,31.171-8.828,31.171l70.363-26.075c0,0,10.518-4.765,10.509-3.907c0,0.955-6.329,12.702-6.329,12.702
				l-46.233,92.706c0,0,33.04-12.195,35.169-6.022c2.658,7.82,12.424,67.318,12.424,67.318s42.246-38.382,50.28-46.553
				c5.52-5.588,24.592,25.793,24.592,25.793l18.894-104.131c0,0,1.459-11.445,2.073-11.43c0.658,0.029,5.846,9.023,5.846,9.023
				l40.78,62.864c0,0,4.993-33.047,11.602-30.256c9.615,4.034,58.628,21.549,58.628,21.549s-12.697-53.451-13.203-60.934
				c-0.39-5.963,31.674-7.245,31.674-7.245l-72.379-62.586c0,0-14.302-10.904-15.269-16.327c-1.52-8.395,15.033-28,15.033-28
				l-67.442-14.143l-0.046-5.413l29.245-77.802l-9.647-3.191l-23.22,79.8l-3.274,4.312l-62.533-28.891
				c0,0,2.931,24.156-3.284,29.973c-4.46,4.17-25.88,5.491-25.88,5.491l-93.402,6.845
				C580.697,1059.316,605.637,1079.471,601.741,1084.012z"/>
			<path style="fill:#EE3041;" d="M1237.266,1286.393c4.887-5.7,47.098-40.969,47.098-40.969s-49.778-15.191-59.917-17.685
				c-6.967-1.715,8.833-31.186,8.833-31.186l-70.365,26.075c0,0-10.511,4.775-10.501,3.917c-0.007-0.955,6.329-12.701,6.329-12.701
				l46.224-92.701c0,0-33.028,12.185-35.162,6.012c-2.663-7.81-12.426-67.317-12.426-67.317s-42.251,38.377-50.285,46.557
				c-5.513,5.583-24.594-25.793-24.594-25.793l-18.887,104.126c0,0-1.459,11.439-2.065,11.425c-0.67-0.019-5.859-9.013-5.859-9.013
				l-40.777-62.869c0,0-4.992,33.042-11.607,30.256c-9.622-4.034-58.623-21.545-58.623-21.545s12.701,53.452,13.203,60.93
				c0.395,5.973-31.671,7.245-31.671,7.245l72.379,62.596c0,0,14.305,10.904,15.269,16.322c1.52,8.399-15.028,28.009-15.028,28.009
				l67.439,14.129l0.041,5.422l-29.245,77.787l9.647,3.196l23.218-79.799l3.279-4.307l62.532,28.896c0,0-2.93-24.17,3.284-29.987
				c4.463-4.161,25.88-5.486,25.88-5.486l93.405-6.855C1258.315,1311.079,1233.37,1290.948,1237.266,1286.393z"/>
			<path style="fill:#EE3041;" d="M1303.472,1316.297c-4.884,5.705-47.096,40.974-47.096,40.974s49.783,15.196,59.914,17.685
				c6.972,1.72-8.828,31.181-8.828,31.181l70.362-26.075c0,0,10.516-4.774,10.509-3.917c0,0.955-6.331,12.701-6.331,12.701
				l-46.234,92.71c0,0,33.043-12.2,35.164-6.017c2.662,7.815,12.429,67.317,12.429,67.317s42.248-38.387,50.282-46.562
				c5.515-5.583,24.594,25.797,24.594,25.797l18.886-104.13c0,0,1.459-11.44,2.075-11.425c0.662,0.02,5.849,9.018,5.849,9.018
				l40.776,62.864c0,0,4.991-33.042,11.6-30.26c9.622,4.044,58.633,21.549,58.633,21.549s-12.706-53.447-13.203-60.93
				c-0.395-5.963,31.668-7.249,31.668-7.249l-72.374-62.577c0,0-14.307-10.918-15.279-16.331c-1.513-8.405,15.042-28,15.042-28
				l-67.446-14.139l-0.044-5.427l29.245-77.787l-9.644-3.191l-23.22,79.794l-3.279,4.307l-62.531-28.882
				c0,0,2.941,24.146-3.286,29.973c-4.458,4.16-25.88,5.486-25.88,5.486l-93.397,6.85
				C1282.429,1291.606,1307.367,1311.752,1303.472,1316.297z"/>
			<path style="fill:#EE3041;" d="M1938.996,1518.678c4.889-5.7,47.096-40.974,47.096-40.974s-49.773-15.187-59.912-17.69
				c-6.967-1.705,8.831-31.172,8.831-31.172l-70.367,26.076c0,0-10.511,4.774-10.506,3.907c0-0.95,6.334-12.696,6.334-12.696
				l46.228-92.701c0,0-33.03,12.19-35.164,6.012c-2.66-7.815-12.422-67.313-12.422-67.313s-42.248,38.372-50.285,46.553
				c-5.517,5.588-24.594-25.793-24.594-25.793l-18.884,104.131c0,0-1.467,11.44-2.075,11.425c-0.665-0.024-5.849-9.013-5.849-9.013
				l-40.784-62.869c0,0-4.994,33.043-11.603,30.256c-9.622-4.044-58.628-21.549-58.628-21.549s12.701,53.447,13.198,60.93
				c0.4,5.978-31.656,7.25-31.656,7.25l72.372,62.591c0,0,14.304,10.904,15.266,16.317c1.523,8.405-15.03,28.019-15.03,28.019
				l67.447,14.129l0.031,5.413l-29.24,77.797l9.649,3.192l23.22-79.799l3.274-4.307l62.533,28.891c0,0-2.931-24.161,3.291-29.978
				c4.453-4.161,25.875-5.486,25.875-5.486l93.402-6.855C1960.046,1543.37,1935.103,1523.229,1938.996,1518.678z"/>
			<path style="fill:#EE3041;" d="M2121.313,1488.32l-14.589-6.738c0,0,2.938,24.151-3.282,29.973
				c-4.46,4.161-25.885,5.491-25.885,5.491l-93.397,6.84c0,0,24.935,20.156,21.047,24.702c-4.894,5.69-47.098,40.974-47.098,40.974
				s49.78,15.181,59.919,17.685c6.963,1.71-8.838,31.176-8.838,31.176l70.365-26.075c0,0,10.511-4.775,10.509-3.912
				c0,0.95-6.328,12.702-6.328,12.702l-46.231,92.71c0,0,33.035-12.209,35.161-6.022c2.663,7.82,12.428,67.323,12.428,67.323
				s21.011-19.094,36.219-33.223V1488.32z"/>
		</g>
		<g>
			<path style="fill:#EE3041;" d="M292.458,1282.607l-72.38-62.582c0,0-14.302-10.904-15.269-16.331
				c-1.52-8.39,15.033-27.995,15.033-27.995l-67.439-14.148l-0.041-5.408l29.239-77.792l-9.647-3.196l-23.22,79.799l-3.274,4.297
				l-62.535-28.877c0,0,2.933,24.141-3.291,29.973c-4.458,4.161-25.873,5.481-25.873,5.481l-53.753,3.946v112.028l55.749-20.658
				c0,0,10.519-4.774,10.509-3.907c-0.005,0.946-6.336,12.702-6.336,12.702l-46.222,92.696c0,0,33.03-12.185,35.162-6.017
				c2.66,7.815,12.421,67.317,12.421,67.317s42.246-38.387,50.285-46.562c5.518-5.588,24.594,25.802,24.594,25.802l18.891-104.131
				c0,0,1.459-11.444,2.073-11.435c0.656,0.019,5.844,9.023,5.844,9.023l40.782,62.864c0,0,4.994-33.042,11.598-30.26
				c9.629,4.039,58.628,21.554,58.628,21.554s-12.694-53.447-13.196-60.93C260.387,1283.898,292.458,1282.607,292.458,1282.607z"/>
			<path style="fill:#EE3041;" d="M616.932,1399.76c4.88-5.705,47.101-40.974,47.101-40.974s-49.785-15.181-59.917-17.69
				c-6.972-1.715,8.823-31.176,8.823-31.176l-70.357,26.071c0,0-10.521,4.779-10.516,3.917c0.005-0.955,6.341-12.701,6.341-12.701
				l46.221-92.696c0,0-33.03,12.185-35.161,6.007c-2.658-7.81-12.422-67.312-12.422-67.312s-42.253,38.377-50.289,46.548
				c-5.51,5.593-24.592-25.788-24.592-25.788l-18.887,104.126c0,0-1.461,11.44-2.073,11.43c-0.665-0.02-5.849-9.023-5.849-9.023
				l-40.774-62.864c0,0-4.996,33.042-11.605,30.26c-9.625-4.034-58.633-21.559-58.633-21.559s12.706,53.461,13.203,60.94
				c0.397,5.973-31.664,7.245-31.664,7.245l72.374,62.596c0,0,14.304,10.908,15.274,16.321c1.508,8.4-15.037,28.01-15.037,28.01
				l67.444,14.134l0.037,5.418l-29.24,77.787l9.649,3.192l23.218-79.794l3.276-4.302l62.533,28.887c0,0-2.933-24.156,3.286-29.978
				c4.463-4.166,25.878-5.486,25.878-5.486l93.405-6.86C637.98,1424.443,613.027,1404.311,616.932,1399.76z"/>
			<path style="fill:#EE3041;" d="M683.134,1429.666c-4.882,5.695-47.099,40.969-47.099,40.969s49.785,15.191,59.919,17.69
				c6.967,1.705-8.833,31.181-8.833,31.181l70.365-26.085c0,0,10.514-4.76,10.506-3.898c0.005,0.94-6.333,12.702-6.333,12.702
				l-46.221,92.696c0,0,33.033-12.19,35.161-6.022c2.66,7.819,12.426,67.327,12.426,67.327s42.248-38.387,50.278-46.562
				c5.517-5.589,24.599,25.802,24.599,25.802l18.887-104.14c0,0,1.459-11.435,2.068-11.425c0.67,0.019,5.852,9.018,5.852,9.018
				l40.784,62.869c0,0,4.991-33.048,11.598-30.265c9.625,4.044,58.631,21.554,58.631,21.554s-12.704-53.452-13.201-60.935
				c-0.397-5.954,31.668-7.245,31.668-7.245l-72.377-62.581c0,0-14.304-10.908-15.274-16.336c-1.515-8.395,15.037-28,15.037-28
				l-67.444-14.144l-0.039-5.408l29.239-77.792l-9.644-3.201l-23.22,79.809l-3.279,4.297l-62.53-28.877
				c0,0,2.933,24.141-3.289,29.973c-4.458,4.156-25.875,5.481-25.875,5.481l-93.405,6.85
				C662.089,1404.969,687.025,1425.125,683.134,1429.666z"/>
			<path style="fill:#EE3041;" d="M1318.663,1632.046c4.882-5.705,47.096-40.979,47.096-40.979s-49.783-15.177-59.916-17.685
				c-6.962-1.71,8.838-31.171,8.838-31.171l-70.365,26.07c0,0-10.524,4.78-10.512,3.917c0-0.955,6.332-12.707,6.332-12.707
				l46.226-92.696c0,0-33.033,12.185-35.162,5.998c-2.663-7.805-12.424-67.298-12.424-67.298s-42.25,38.372-50.28,46.543
				c-5.52,5.589-24.599-25.783-24.599-25.783l-18.889,104.121c0,0-1.464,11.444-2.071,11.435c-0.667-0.024-5.851-9.028-5.851-9.028
				l-40.779-62.859c0,0-4.999,33.038-11.603,30.256c-9.622-4.03-58.631-21.554-58.631-21.554s12.704,53.457,13.201,60.94
				c0.4,5.968-31.664,7.244-31.664,7.244l72.38,62.591c0,0,14.304,10.909,15.269,16.322c1.52,8.405-15.035,28.01-15.035,28.01
				l67.447,14.134l0.036,5.413l-29.238,77.797l9.645,3.191l23.222-79.795l3.272-4.307l62.536,28.887c0,0-2.938-24.166,3.281-29.983
				c4.468-4.161,25.878-5.486,25.878-5.486l93.407-6.85C1339.71,1656.733,1314.766,1636.591,1318.663,1632.046z"/>
			<path style="fill:#EE3041;" d="M1384.864,1661.951c-4.884,5.7-47.088,40.974-47.088,40.974s49.775,15.191,59.909,17.685
				c6.969,1.71-8.828,31.172-8.828,31.172l70.362-26.07c0,0,10.512-4.775,10.509-3.907c0,0.95-6.336,12.701-6.336,12.701
				l-46.221,92.705c0,0,33.03-12.195,35.159-6.022c2.66,7.82,12.426,67.318,12.426,67.318s42.246-38.377,50.282-46.553
				c5.515-5.588,24.597,25.793,24.597,25.793l18.884-104.13c0,0,1.464-11.445,2.073-11.43c0.667,0.02,5.849,9.019,5.849,9.019
				l40.78,62.869c0,0,4.994-33.047,11.603-30.26c9.622,4.034,58.633,21.554,58.633,21.554s-12.704-53.452-13.203-60.935
				c-0.402-5.963,31.666-7.255,31.666-7.255l-72.377-62.576c0,0-14.302-10.908-15.274-16.331
				c-1.518-8.404,15.035-28.009,15.035-28.009l-67.439-14.134l-0.041-5.408l29.24-77.802l-9.649-3.196l-23.215,79.814l-3.274,4.292
				l-62.537-28.881c0,0,2.938,24.146-3.289,29.978c-4.456,4.156-25.875,5.486-25.875,5.486l-93.398,6.84
				C1363.824,1637.25,1388.76,1657.41,1384.864,1661.951z"/>
			<path style="fill:#EE3041;" d="M2020.394,1864.336c4.882-5.71,47.101-40.979,47.101-40.979s-49.785-15.191-59.914-17.686
				c-6.974-1.715,8.821-31.181,8.821-31.181l-70.355,26.07c0,0-10.521,4.784-10.509,3.927c-0.002-0.959,6.331-12.706,6.331-12.706
				l46.222-92.71c0,0-33.03,12.199-35.159,6.012c-2.66-7.805-12.421-67.307-12.421-67.307s-42.251,38.368-50.282,46.553
				c-5.517,5.588-24.599-25.788-24.599-25.788l-18.884,104.126c0,0-1.469,11.435-2.075,11.43c-0.665-0.024-5.849-9.023-5.849-9.023
				l-40.776-62.864c0,0-4.999,33.042-11.61,30.255c-9.618-4.029-58.626-21.554-58.626-21.554s12.699,53.452,13.196,60.94
				c0.405,5.973-31.656,7.24-31.656,7.24l72.372,62.591c0,0,14.304,10.908,15.274,16.332c1.515,8.404-15.035,28.004-15.035,28.004
				l67.439,14.134l0.039,5.412l-29.238,77.802l9.647,3.191l23.215-79.809l3.279-4.297l62.535,28.886c0,0-2.935-24.16,3.284-29.978
				c4.466-4.16,25.878-5.49,25.878-5.49l93.407-6.85C2041.443,1889.018,2016.493,1868.877,2020.394,1864.336z"/>
			<path style="fill:#EE3041;" d="M2121.313,1972.686v-107.239l-55.759,4.087c0,0,24.936,20.161,21.048,24.702
				c-4.892,5.705-47.099,40.974-47.099,40.974s49.778,15.186,59.917,17.686c6.965,1.715-8.835,31.172-8.835,31.172
				L2121.313,1972.686z"/>
			<path style="fill:#EE3041;" d="M0.007,1505.563v16.282c8.305-1.184,17.05-1.544,17.05-1.544L0.007,1505.563z"/>
			<path style="fill:#EE3041;" d="M341.529,1637.459c4.884-5.7,47.091-40.974,47.091-40.974s-49.768-15.191-59.905-17.69
				c-6.969-1.715,8.823-31.181,8.823-31.181l-70.36,26.075c0,0-10.519,4.78-10.507,3.917c0-0.965,6.331-12.701,6.331-12.701
				l46.229-92.706c0,0-33.033,12.19-35.162,6.012c-2.66-7.815-12.426-67.313-12.426-67.313s-42.251,38.377-50.285,46.558
				c-5.513,5.578-24.594-25.803-24.594-25.803l-18.891,104.131c0,0-1.459,11.439-2.069,11.439c-0.665-0.024-5.854-9.028-5.854-9.028
				l-40.782-62.864c0,0-4.989,33.033-11.6,30.26c-9.615-4.044-58.631-21.54-58.631-21.54s12.707,53.447,13.206,60.921
				c0.4,5.963-31.666,7.24-31.666,7.24l72.375,62.591c0,0,14.304,10.909,15.276,16.327c1.515,8.399-15.04,28.005-15.04,28.005
				l67.444,14.143l0.044,5.408l-29.247,77.802l9.647,3.196l23.22-79.809l3.279-4.292l62.528,28.872c0,0-2.925-24.146,3.289-29.968
				c4.465-4.17,25.883-5.491,25.883-5.491l93.402-6.85C362.579,1662.146,337.637,1642,341.529,1637.459z"/>
			<path style="fill:#EE3041;" d="M407.738,1667.354c-4.889,5.705-47.101,40.97-47.101,40.97s49.785,15.196,59.912,17.705
				c6.974,1.705-8.826,31.167-8.826,31.167l70.365-26.071c0,0,10.514-4.779,10.504-3.912c0,0.955-6.332,12.706-6.332,12.706
				l-46.231,92.695c0,0,33.04-12.19,35.171-6.022c2.661,7.82,12.424,67.322,12.424,67.322s42.246-38.377,50.28-46.567
				c5.52-5.584,24.592,25.802,24.592,25.802l18.891-104.13c0,0,1.459-11.445,2.073-11.43c0.662,0.029,5.846,9.033,5.846,9.033
				l40.784,62.864c0,0,4.989-33.047,11.598-30.26c9.623,4.034,58.631,21.535,58.631,21.535s-12.702-53.442-13.198-60.93
				c-0.397-5.954,31.668-7.24,31.668-7.24l-72.379-62.586c0,0-14.304-10.904-15.274-16.322c-1.515-8.4,15.035-28.005,15.035-28.005
				l-67.439-14.143l-0.044-5.408l29.242-77.802l-9.647-3.196l-23.218,79.814l-3.276,4.287l-62.538-28.881
				c0,0,2.933,24.156-3.281,29.982c-4.458,4.166-25.878,5.481-25.878,5.481l-93.402,6.85
				C386.691,1642.662,411.626,1662.813,407.738,1667.354z"/>
			<path style="fill:#EE3041;" d="M1043.258,1869.744c4.889-5.701,47.101-40.974,47.101-40.974s-49.778-15.191-59.917-17.69
				c-6.96-1.72,8.833-31.186,8.833-31.186l-70.367,26.08c0,0-10.514,4.774-10.504,3.912c0-0.955,6.331-12.701,6.331-12.701
				l46.231-92.701c0,0-33.035,12.195-35.164,6.012c-2.66-7.82-12.429-67.307-12.429-67.307s-42.246,38.372-50.285,46.548
				c-5.51,5.588-24.59-25.793-24.59-25.793l-18.891,104.126c0,0-1.459,11.44-2.065,11.435c-0.665-0.029-5.859-9.023-5.859-9.023
				l-40.779-62.869c0,0-4.989,33.037-11.6,30.265c-9.627-4.044-58.63-21.549-58.63-21.549s12.704,53.457,13.201,60.935
				c0.402,5.959-31.666,7.235-31.666,7.235l72.384,62.591c0,0,14.297,10.913,15.266,16.326c1.52,8.4-15.032,28.005-15.032,28.005
				l67.441,14.148l0.039,5.408l-29.245,77.802l9.647,3.191l23.22-79.809l3.279-4.292l62.538,28.872c0,0-2.943-24.151,3.284-29.963
				c4.458-4.171,25.87-5.501,25.87-5.501l93.407-6.845C1064.307,1894.431,1039.37,1874.285,1043.258,1869.744z"/>
			<path style="fill:#EE3041;" d="M1062.373,1940.613c0,0,49.78,15.186,59.907,17.695c6.975,1.715-8.823,31.176-8.823,31.176
				l70.357-26.071c0,0,10.524-4.789,10.509-3.922c0,0.955-6.332,12.716-6.332,12.716l-46.229,92.696c0,0,33.04-12.195,35.169-6.027
				c2.197,6.46,9.23,48.083,11.617,62.435h6.17c11.594-10.567,38.643-35.288,44.918-41.676c5.52-5.583,24.592,25.802,24.592,25.802
				l18.889-104.136c0,0,1.459-11.439,2.076-11.425c0.66,0.029,5.844,9.028,5.844,9.028l40.784,62.859c0,0,4.991-33.043,11.6-30.256
				c9.62,4.025,58.633,21.54,58.633,21.54s-12.706-53.447-13.205-60.93c-0.395-5.963,31.671-7.24,31.671-7.24l-72.377-62.587
				c0,0-14.305-10.913-15.284-16.326c-1.51-8.394,15.047-28,15.047-28l-67.439-14.154l-0.048-5.398l29.242-77.807l-9.649-3.191
				l-23.215,79.814l-3.274,4.282l-62.538-28.877c0,0,2.938,24.156-3.284,29.973c-4.458,4.171-25.885,5.486-25.885,5.486l-93.39,6.85
				c0,0,24.932,20.151,21.04,24.697C1104.582,1905.344,1062.373,1940.613,1062.373,1940.613z"/>
			<path style="fill:#EE3041;" d="M1433.95,2016.788l72.367,62.587c0,0,14.302,10.918,15.269,16.331
				c1.201,6.612-8.787,20.146-13.094,25.608h251.218c-7.101-6.304-17.318-16.253-14.724-19.279
				c4.889-5.7,47.096-40.974,47.096-40.974s-49.771-15.201-59.909-17.7c-6.962-1.72,8.828-31.176,8.828-31.176l-70.362,26.075
				c0,0-10.514,4.779-10.512,3.917c0.002-0.955,6.336-12.702,6.336-12.702l46.226-92.715c0,0-33.028,12.2-35.157,6.027
				c-2.66-7.82-12.429-67.313-12.429-67.313s-42.25,38.372-50.285,46.552c-5.51,5.579-24.592-25.798-24.592-25.798l-18.886,104.131
				c0,0-1.467,11.44-2.071,11.425c-0.667-0.024-5.851-9.013-5.851-9.013l-40.784-62.869c0,0-4.989,33.038-11.6,30.256
				c-9.622-4.034-58.633-21.544-58.633-21.544s12.704,53.451,13.201,60.93C1466.009,2015.511,1433.95,2016.788,1433.95,2016.788z"/>
			<path style="fill:#EE3041;" d="M1805.492,2121.313h235.922c3.988-6.046,8.222-11.064,8.222-11.064l-67.439-14.144l-0.044-5.403
				l29.243-77.802l-9.649-3.196l-23.225,79.809l-3.269,4.292l-62.537-28.877c0,0,2.943,24.146-3.279,29.973
				c-4.46,4.161-25.882,5.486-25.882,5.486l-93.4,6.845C1790.152,2107.233,1799.148,2114.516,1805.492,2121.313z"/>
		</g>
		<g>
			<path style="fill:#EE3041;" d="M98.452,1865.958l-72.382-62.586c0,0-14.299-10.908-15.271-16.322
				c-1.518-8.404,15.04-28.019,15.04-28.019l-25.832-5.413v174.215l9.742,15.02c0,0,4.996-33.047,11.605-30.265
				c9.627,4.039,58.628,21.55,58.628,21.55s-12.701-53.447-13.196-60.93C66.384,1867.235,98.452,1865.958,98.452,1865.958z"/>
			<path style="fill:#EE3041;" d="M422.927,1983.112c4.884-5.705,47.096-40.974,47.096-40.974s-49.781-15.191-59.914-17.7
				c-6.967-1.705,8.828-31.176,8.828-31.176l-70.36,26.08c0,0-10.524,4.77-10.519,3.907c0.009-0.955,6.341-12.702,6.341-12.702
				l46.229-92.7c0,0-33.038,12.2-35.166,6.017c-2.656-7.819-12.424-67.327-12.424-67.327s-42.248,38.382-50.287,46.572
				c-5.508,5.574-24.592-25.803-24.592-25.803l-18.884,104.131c0,0-1.467,11.439-2.07,11.425c-0.667-0.02-5.857-9.018-5.857-9.018
				l-40.774-62.869c0,0-4.994,33.048-11.605,30.265c-9.622-4.039-58.633-21.544-58.633-21.544s12.706,53.442,13.201,60.935
				c0.404,5.968-31.659,7.235-31.659,7.235l72.374,62.582c0,0,14.305,10.918,15.274,16.336c1.513,8.395-15.037,28-15.037,28
				l67.444,14.144l0.036,5.413l-29.237,77.792l9.642,3.196l23.22-79.804l3.276-4.297l62.54,28.877c0,0-2.943-24.151,3.281-29.963
				c4.46-4.165,25.878-5.491,25.878-5.491l93.4-6.85C443.969,2007.799,419.024,1987.653,422.927,1983.112z"/>
			<path style="fill:#EE3041;" d="M442.033,2053.981c0,0,49.783,15.191,59.912,17.69c6.972,1.715-8.831,31.181-8.831,31.181
				l70.365-26.075c0,0,10.516-4.775,10.509-3.907c0,0.945-6.331,12.697-6.331,12.697l-17.825,35.746h111.75l1.204-6.626
				c0,0,1.457-11.449,2.065-11.435c0.665,0.02,5.852,9.014,5.852,9.014l5.871,9.047h94.876c-1.603-7.532-2.794-13.632-2.935-15.815
				c-0.399-5.973,31.666-7.26,31.666-7.26l-72.372-62.581c0,0-14.307-10.904-15.279-16.321
				c-1.518-8.409,15.035-28.019,15.035-28.019l-67.434-14.139l-0.041-5.408l29.237-77.787l-9.647-3.196l-23.223,79.804l-3.274,4.288
				l-62.528-28.882c0,0,2.931,24.151-3.291,29.978c-4.458,4.166-25.883,5.491-25.883,5.491l-93.395,6.85
				c0,0,24.935,20.146,21.043,24.692C484.244,2018.712,442.033,2053.981,442.033,2053.981z"/>
			<path style="fill:#EE3041;" d="M1056.863,2121.313l35.493-71.186c0,0-33.033,12.199-35.164,6.022
				c-2.655-7.82-12.419-67.322-12.419-67.322s-42.251,38.372-50.287,46.567c-5.51,5.578-24.594-25.803-24.594-25.803l-18.889,104.13
				c0,0-0.548,4.273-1.111,7.591H1056.863z"/>
			<path style="fill:#EE3041;" d="M946.182,2121.313c-1.528-2.456-3.101-5.184-3.101-5.184l-40.774-62.865
				c0,0-4.999,33.042-11.605,30.26c-9.627-4.034-58.636-21.549-58.636-21.549s11.381,47.887,13.018,59.337H946.182z"/>
			<path style="fill:#EE3041;" d="M80.068,2061.562c-2.668-7.815-12.431-67.323-12.431-67.323s-42.243,38.377-50.287,46.558
				c-3.272,3.318-11.333-6.417-17.342-14.865v95.38h82.421l32.797-65.768C115.225,2055.545,82.197,2067.735,80.068,2061.562z"/>
		</g>
	</g>
</g>
<g>
	<g>
		<g>
			<polygon style="fill:#FBC4AB;" points="0,2047.64 404.815,1943.071 308.609,1619.542 0,1694.922 			"/>
			<polygon style="fill:#F9A77F;" points="407.012,1938.835 312.685,1621.62 310.884,1615.576 304.758,1617.072 0,1691.512 
				0,1698.333 306.331,1623.508 400.661,1940.723 0,2044.218 0,2051.06 402.318,1947.137 408.969,1945.42 			"/>
		</g>
		<g style="opacity:0.4;">
			<path style="fill:#FDD2BC;" d="M0,2044.218l400.661-103.495l-90.408-304.007c-32.791,89.707-53.48,197.728-96.33,251.308
				C147.451,1967.5,80.085,2006.632,0,2031.307V2044.218z"/>
		</g>
		<g>
			<g>
				<path style="fill:#FBC4AB;" d="M258.806,1678.377c11.927-49.909,49.683-108.547,86.862-148.591
					c40.458-43.585,115.743-64.937,182.632-83.607c49.907-13.939,99.733-18.389,146.671-14.496
					c126.949,10.501,230.432,386.184,128.781,458.303c-37.444,26.567-212.451,63.086-272.17,71.151
					c-132.013,17.841-151.945-3.384-210.115-63.507"/>
				<path style="fill:#F9A77F;" d="M258.806,1678.377c0,0,1.562-5.949,4.49-17.101c1.578-5.54,4.273-12.163,7.055-20.117
					c1.442-3.956,3.464-7.983,5.384-12.402c2.056-4.348,3.956-9.133,6.636-13.829c9.688-19.352,23.615-41.758,41.914-65.807
					c4.422-6.139,9.623-11.973,14.762-18.168c1.364-1.578,2.446-3.006,4.066-4.743c1.4-1.454,2.811-2.918,4.231-4.392
					c2.695-2.992,6.051-5.837,9.33-8.763c13.184-11.405,28.587-21.018,45.344-29.486c33.561-16.933,72.136-29.417,112.764-41.281
					c2.538-0.743,5.087-1.488,7.64-2.236l3.839-1.125l4.215-1.035c5.203-1.274,10.436-2.558,15.697-3.847
					c5.269-1.291,10.568-2.589,15.893-3.895c5.408-1.162,11.128-1.814,16.731-2.75c11.274-1.6,22.699-3.973,34.231-4.185
					c5.769-0.341,11.566-0.682,17.389-1.026l8.757-0.509l8.812,0.258c5.885,0.181,11.8,0.361,17.734,0.541l8.926,0.281
					c3.868,0.336,5.725,0.472,9.425,1.193c13.576,2.553,25.125,8.2,35.89,15.274c21.211,14.397,37.778,33.739,51.81,54.311
					c27.917,41.447,47.2,88.17,61.315,136.074c13.642,48.058,22.075,97.816,21.31,147.623c-0.553,24.843-3.447,49.912-12.292,73.717
					c-4.355,11.861-10.548,23.359-19.025,33.335c-2.202,2.436-4.397,4.865-6.904,7.035c-1.194,1.133-2.422,2.227-3.766,3.206
					l-1.968,1.513l-0.984,0.753l-0.492,0.375c-1.208,0.809-0.604,0.383-0.994,0.633l-7.512,4.387
					c-2.673,1.413-5.73,2.706-8.578,4.039c-11.496,5.135-22.204,8.665-33.244,12.297c-10.95,3.449-21.827,6.641-32.643,9.466
					c-21.617,5.73-42.831,10.826-63.566,15.313c-41.452,9.108-80.852,16.355-117.587,21.649c-36.799,4.697-70.845,7.881-101.3,5.554
					c-7.596-0.339-14.919-1.63-21.958-2.677c-3.488-0.816-6.909-1.617-10.265-2.402c-3.362-0.733-6.519-2.08-9.676-3.057
					c-12.475-4.516-23.181-10.57-31.849-17.179c-4.346-3.279-8.297-6.592-11.917-9.773c-3.493-3.33-6.899-6.31-9.779-9.357
					c-5.922-5.944-10.762-11.157-14.684-15.391c-7.791-8.506-11.944-13.042-11.944-13.042s4.421,4.273,12.713,12.287
					c8.385,7.844,20.419,19.946,37.852,32.124c8.731,6.049,19.257,11.354,31.337,15.121c3.069,0.794,6.095,1.944,9.359,2.497
					c3.245,0.604,6.548,1.223,9.915,1.851c6.84,0.689,13.88,1.62,21.284,1.607c7.352,0.41,15.013-0.085,22.857-0.28
					c7.854-0.577,15.956-1.065,24.222-2.02c8.27-1.013,16.709-1.781,25.479-3.126c4.37-0.609,8.794-1.227,13.262-1.851
					c4.394-0.714,8.838-1.433,13.325-2.161c36.092-6.465,75.093-14.962,116.006-24.828c20.465-4.938,41.354-10.487,62.497-16.628
					c10.577-3.067,21.162-6.395,31.77-9.866c10.417-3.564,21.379-7.457,30.874-11.863c2.353-1.148,4.653-2.056,7.079-3.362
					l7.445-4.495l2.504-1.993c1.013-0.741,1.939-1.6,2.845-2.495c1.9-1.671,3.581-3.62,5.286-5.542
					c6.568-7.978,11.708-17.588,15.352-28.034c7.401-20.908,10.027-44.255,10.475-67.693c0.536-47.105-7.815-95.375-21.203-141.762
					c-13.388-46.363-31.995-91.729-58.094-130.812c-13.106-19.345-28.302-37.208-46.289-49.8c-4.517-3.067-9.179-5.803-13.988-8.01
					c-2.417-1.043-4.838-2.097-7.308-2.872l-3.705-1.167l-3.471-0.796c-2.012-0.529-6.002-0.972-7.926-1.135l-8.526-0.375
					c-5.676-0.253-11.327-0.506-16.96-0.757l-8.429-0.38l-8.399,0.38c-5.591,0.251-11.154,0.499-16.692,0.748
					c-11.169,0.07-21.829,2.095-32.553,3.313c-5.357,0.763-10.647,1.191-15.988,2.205c-5.359,1.179-10.685,2.353-15.978,3.518
					c-5.293,1.167-10.555,2.326-15.786,3.479l-3.593,0.779l-3.856,1.031c-2.565,0.687-5.123,1.371-7.671,2.053
					c-40.667,10.984-78.859,22-111.799,37.264c-16.433,7.571-31.425,16.514-44.161,26.531c-3.108,2.536-6.236,4.884-9.174,7.856
					c-1.481,1.408-2.96,2.806-4.424,4.195c-1.188,1.162-2.65,2.843-3.946,4.224c-5.293,5.827-10.658,11.313-15.266,17.147
					c-19.042,22.804-33.829,44.336-44.26,63.02c-2.87,4.538-4.945,9.162-7.177,13.376c-2.129,4.261-4.414,8.146-6.061,11.951
					c-3.201,7.647-6.28,14.056-8.192,19.493C260.726,1672.533,258.806,1678.377,258.806,1678.377z"/>
			</g>
		</g>
		<path style="opacity:0.4;fill:#FDD2BC;" d="M721.45,1912.116c-1.038-8.446-40.009-340.526-126.539-477.233
			c-21.893,2.548-44.043,6.755-66.236,12.954c-28.431,7.922-58.358,16.378-86.499,26.801
			c55.766,67.922,135.027,86.102,79.393,223.645c-13.676,33.814,45.607,96.362,79.729,114.7c5.233,2.813,21.807,5.398,21.807,5.398
			s-20.609,1.013-23.451,7.428c-7.51,16.986-12.487,41.186-7.369,59.941c5.454,20.022,13.104,40.628,37.922,55.805
			C670.521,1933.517,660.952,1928.791,721.45,1912.116z"/>
		<path style="opacity:0.4;fill:#FDD2BC;" d="M688.788,1640.984c0,0-77.549-31.656-110.44-78.711
			c-17.496-25.02-51.941-25.449-51.941-25.449l5.941,10.085c0,0,20.568,57.7,67.534,87.385
			C632.045,1654.633,664.104,1649.48,688.788,1640.984z"/>
	</g>
	<g>
		
			<rect x="552.74" y="343.535" transform="matrix(0.9522 -0.3054 0.3054 0.9522 -333.1131 229.1218)" style="fill:#808285;" width="25.802" height="1671.09"/>
		<g>
			<path style="fill:#EE3041;" d="M1547.397,766.139c-273.53,319.651-749.418,8.514-1022.95,328.167
				c-70.26-219.038-140.53-438.059-210.792-657.083c273.522-319.663,749.42-8.507,1022.943-328.165
				C1406.862,328.082,1477.134,547.106,1547.397,766.139z"/>
			<path style="fill:#FFFFFF;" d="M1332.485,901.656c-186.972,52.516-406.159,4.619-593.135,57.128
				C669.083,739.75,598.818,520.731,528.561,301.702c186.968-52.513,406.162-4.611,593.132-57.128
				C1191.953,463.596,1262.222,682.634,1332.485,901.656z"/>
			<path style="fill:#EE3041;" d="M1106.429,615.147c0.911-7.479,17.569-60.655,17.515-60.828
				c0.168,0.516-58.192,7.708-69.984,8.745c-7.995,1.075-12.682-34.209-12.682-34.209c-17.018,17.885-34.207,35.232-51.481,52.307
				c0,0-7.154,8.516-7.744,7.63c-0.653-0.948-2.456-14.938-2.465-14.948c-5.966-36.299-11.947-72.626-17.93-108.984
				c0.014,0.041-24.358,23.997-30.767,18.478c-8.012-6.838-58.74-63.049-58.74-63.049c-0.003-0.024-15.598,53.042-17.975,64.028
				c-1.642,7.477-42.166-17.059-42.148-17.004c17.637,36.843,35.257,73.712,52.894,110.596c-0.005,0.003,6.426,11.968,5.812,12.158
				c-0.672,0.205-12.009-6.916-12.009-6.916c-27.892-16.049-55.705-31.815-83.347-47.03c0,0,17.708,34.536,9.345,34.422
				c-12.361-0.711-71.534,3.924-71.373,4.45c-0.053-0.18,48.37,45.656,54.007,52.916c4.387,5.461-25.641,21.028-25.581,21.211
				c37.191,8.779,74.998,19.476,113.097,31.11c-0.003-0.029,21.627,5.527,26.324,10.604c7.264,7.802,4.348,33.325,4.355,33.337
				c25.469-3.532,51.093-6.599,76.735-9.647c1.247,1.796,2.509,3.596,3.766,5.398c8.171,29.332,16.326,58.67,24.507,88.004
				c3.932-0.046,7.878-0.088,11.805-0.129c-10.628-29.317-21.259-58.638-31.885-87.945c0.095-1.81,0.199-3.622,0.299-5.43
				c27.386,2.444,54.782,4.857,82.014,6.811c-0.007,0-19.522-22.989-17.359-31.032c1.576-5.739,21.822-14.948,21.807-14.993
				c29.12-14,57.953-28.889,86.196-45.617C1143.493,629.777,1105.8,621.395,1106.429,615.147z"/>
			<path style="fill:#D1D3D4;" d="M529.915,980.734c-67.11-209.197-129.053-356.167-196.171-565.374
				c-6.798,6.984-13.522,14.19-20.09,21.863c70.262,219.024,140.532,438.044,210.792,657.083
				c273.532-319.653,749.42-8.516,1022.95-328.167c-3.15-9.822-6.302-19.664-9.452-29.483
				C1261.718,1019.749,796.865,668.759,529.915,980.734z"/>
		</g>
	</g>
	<g>
		<g>
			<g>
				<path style="fill:#FBC4AB;" d="M605.783,1590.463c-32.718-0.005-60.998-26.528-65.917-50.331
					c-4.814-23.384,17.478-44.645,54.993-71.371c77.037-54.838,107.638-74.343,149.007-89.551
					c10.115-3.715,30.09-9.951,50.256-9.951c24.124,0,42.116,9.086,52.029,26.273c16.886,29.247,22.272,55.422,16.014,77.792
					c-6.465,23.089-23.357,35.274-32.857,40.482c-42.041,23.11-76.267,33.651-128.082,49.608
					c-21.259,6.545-45.349,13.966-74.596,23.622c-6.862,2.273-13.876,3.427-20.843,3.427
					C605.788,1590.463,605.788,1590.463,605.783,1590.463z"/>
				<path style="fill:#F9A77F;" d="M794.122,1375.885c18.202,0,36.165,5.403,46.289,22.957
					c37.232,64.494,7.228,97.356-14.285,109.154c-58.121,31.951-99.373,39.003-201.577,72.747
					c-6.455,2.139-12.735,3.094-18.767,3.094c-31.203,0-55.41-25.602-59.429-45.045c-3.884-18.869,14.599-37.744,52.352-64.635
					c77.676-55.293,107.487-74.038,147.446-88.727C757.216,1381.364,775.788,1375.885,794.122,1375.885 M794.122,1362.635
					c-21.189,0-42.012,6.49-52.541,10.356c-42.087,15.474-72.976,35.145-150.561,90.372c-53.539,38.133-61.749,58.155-57.646,78.099
					c5.554,26.869,35.971,55.624,72.409,55.624c7.678,0,15.396-1.267,22.937-3.766c29.169-9.63,53.228-17.038,74.455-23.576
					c52.204-16.075,86.693-26.697,129.334-50.136c10.397-5.703,28.921-19.074,36.034-44.499c6.76-24.151,1.155-52.041-16.652-82.891
					C844.104,1378.723,827.764,1362.635,794.122,1362.635L794.122,1362.635z"/>
			</g>
		</g>
		<g>
			<g style="opacity:0.4;">
				<path style="fill:#FDD2BC;" d="M694.257,1410.006c-23.649,13.747-52.109,33.237-95.551,64.15
					c-37.754,26.892-56.236,45.766-52.352,64.635c4.794,23.198,38.326,55.164,78.196,41.951
					c49.71-16.412,84.949-26.512,114.788-36.239c5.732-18.238,16.421-2.604,13.634-21.544
					C743.733,1460.074,715.826,1443.668,694.257,1410.006z"/>
			</g>
		</g>
		<g>
			<g>
				<path style="fill:#FBC4AB;" d="M664.206,1687.217c-33.822,0-60.236-20.258-67.295-51.612
					c-8.056-35.791,24.621-51.225,65.992-70.767c84.45-39.819,117.68-53.408,161.039-60.855c7.064-1.208,18.017-2.648,30.112-2.648
					c36.36,0,60.35,12.743,69.378,36.85c14.095,37.695,8.041,64.472,0.48,80.299c-7.535,15.776-20.241,27.929-33.98,32.507
					c-45.065,15.05-80.601,19.213-134.393,25.515c-22.163,2.597-47.284,5.54-77.887,9.759c-4.573,0.633-9.096,0.952-13.442,0.952
					C664.206,1687.217,664.206,1687.217,664.206,1687.217z"/>
				<path style="fill:#F9A77F;" d="M854.053,1507.962c24.555,0,53.296,6.17,63.172,32.548
					c22.248,59.488-6.307,96.506-29.389,104.197c-62.367,20.828-104.503,20.302-211.089,34.996
					c-4.36,0.604-8.543,0.892-12.543,0.892c-34.153,0-55.103-21.001-60.83-46.443c-6.785-30.143,20.994-43.783,62.36-63.322
					c85.108-40.129,117.438-53.12,159.326-60.316C832.344,1509.267,842.755,1507.962,854.053,1507.962 M854.053,1494.71
					c-12.56,0-23.912,1.491-31.225,2.743c-44.134,7.581-77.681,21.281-162.746,61.39c-40.555,19.157-78.854,37.25-69.636,78.216
					c7.768,34.496,36.721,56.784,73.758,56.784c4.653,0,9.484-0.341,14.358-1.016c30.533-4.209,55.614-7.147,77.748-9.739
					c54.201-6.351,90.006-10.546,135.723-25.815c15.406-5.133,29.561-18.565,37.858-35.931c8.112-16.987,14.655-45.605-0.253-85.473
					C922.606,1517.09,903.787,1494.71,854.053,1494.71L854.053,1494.71z"/>
			</g>
		</g>
		<g>
			<g style="opacity:0.4;">
				<path style="fill:#FDD2BC;" d="M733.039,1539.608c-22.896,9.067-28.012,12.706-67.305,31.22
					c-41.366,19.539-69.144,33.179-62.36,63.322c6.399,28.421,31.79,51.3,73.373,45.551c41.807-5.759,134.427-19.069,130.635-31.827
					C787.791,1582.073,768.819,1553.111,733.039,1539.608z"/>
			</g>
		</g>
		<g>
			<g>
				<path style="fill:#FBC4AB;" d="M800.751,1805.613c-13.912,0-28.584-0.28-45.576-0.604c-21.758-0.417-46.424-0.886-76.297-0.886
					l-4.248,0.002c-43.932,0-54.421-4.726-65.704-54.845c-8.96-39.8,26.034-54.345,65.846-66.876
					c88.674-27.897,123.336-36.82,167.429-38.304c2.005-0.068,4.239-0.112,6.662-0.112c29.24,0,79.685,6.144,89.068,47.276
					c9.299,40.667-0.058,66.448-9.549,80.913c-9.062,13.822-22.151,23.227-35.912,25.805
					C858.691,1804.315,831.374,1805.613,800.751,1805.613z"/>
				<path style="fill:#F9A77F;" d="M848.859,1650.614c26.051,0,74.192,5.21,82.613,42.124c14.261,62.38-16.336,94.258-40.224,98.733
					c-32.09,6.017-58.628,7.517-90.498,7.517c-31.754,0-68.782-1.488-121.873-1.488c-0.799,0-1.618,0-2.421,0
					c-0.619,0-1.225,0.003-1.827,0.003c-40.589,0-48.623-2.505-59.242-49.676c-7.333-32.577,17.98-45.444,61.37-59.103
					c89.327-28.102,123.018-36.567,165.663-38.002C844.36,1650.655,846.521,1650.614,848.859,1650.614 M848.859,1637.364
					c-2.499,0-4.808,0.044-6.882,0.115c-44.871,1.508-79.865,10.501-169.194,38.604c-32.4,10.2-81.361,25.612-70.323,74.652
					c11.922,52.952,25.305,60.016,72.17,60.016l1.846-0.003h2.402c29.812,0,54.441,0.471,76.17,0.885
					c17.028,0.326,31.727,0.607,45.703,0.607c30.994,0,58.657-1.318,92.942-7.747c15.517-2.906,30.187-13.362,40.233-28.682
					c10.193-15.544,20.282-43.083,10.465-86.026C936.679,1655.982,902.75,1637.364,848.859,1637.364L848.859,1637.364z"/>
			</g>
		</g>
		<g>
			<g style="opacity:0.4;">
				<path style="fill:#FDD2BC;" d="M676.759,1688.722c-43.39,13.659-68.703,26.526-61.37,59.103
					c10.774,47.87,18.886,49.739,61.069,49.673c10.375-0.007,27.749,0.068,47.651,0.194
					C770.87,1797.991,722.924,1674.185,676.759,1688.722z"/>
			</g>
		</g>
		<g>
			<g>
				<path style="fill:#FBC4AB;" d="M782.497,1923.6c-11.264,0-23.135-0.227-36.879-0.487c-17.557-0.334-37.459-0.711-61.522-0.711
					l-2.534,0.003c-35.707-0.005-40.514-27.966-43.386-44.672c-0.385-2.254-0.757-4.417-1.176-6.424
					c-4.768-22.872,9.642-39.763,42.828-50.207c37.559-11.814,92.321-19.753,136.257-19.753c35.296,0,77.683,5.018,79.195,28.925
					c2.317,37.417-12.762,82.384-38.097,87.105C829.688,1922.54,807.44,1923.6,782.497,1923.6z"/>
				<path style="fill:#F9A77F;" d="M816.085,1807.974c40.263,0,71.566,6.638,72.584,22.718
					c2.329,37.636-13.267,76.552-32.699,80.172c-26.053,4.892-47.592,6.109-73.473,6.109c-25.666,0-55.59-1.198-98.401-1.198
					c-0.838,0-1.693,0.003-2.54,0.003c-0.027,0-0.046,0-0.071,0c-34.158,0-34.392-28.557-38-45.824
					c-3.189-15.313,3.084-31.439,38.331-42.533C719.36,1815.61,772.885,1807.974,816.085,1807.974 M816.085,1794.724
					c-45.242,0-99.507,7.871-138.245,20.056c-46.065,14.5-51.161,39.476-47.327,57.878c0.405,1.939,0.76,4.025,1.135,6.197
					c3.011,17.534,8.624,50.172,49.837,50.172h2.611c24.003,0,43.868,0.378,61.398,0.709c13.778,0.263,25.676,0.487,37.003,0.487
					c25.31,0,47.912-1.077,75.917-6.336c29.145-5.43,46.016-52.996,43.483-94.014
					C900.416,1806.544,871.549,1794.724,816.085,1794.724L816.085,1794.724z"/>
			</g>
		</g>
		<g>
			<g style="opacity:0.4;">
				<path style="fill:#FDD2BC;" d="M681.816,1827.42c-35.247,11.094-41.52,27.22-38.331,42.533
					c3.61,17.279,3.836,45.863,38.07,45.824c11.025-0.013,31.466,0.051,52.857,0.158c29.627,0.154,6.568-101.928-6.185-99.624
					C711.472,1819.345,695.572,1823.106,681.816,1827.42z"/>
			</g>
		</g>
		<path style="opacity:0.4;fill:#FDDECF;" d="M813.286,1400.594c10.299,10.908,19.763,34.821,14.721,49.532
			c-4.762,13.878-15.751,5.715-29.698,2.56c-12.655-2.865-38.616-16.66-41.683-30.277
			C749.637,1391.369,795.079,1381.266,813.286,1400.594z"/>
		<path style="opacity:0.4;fill:#FDDECF;" d="M888.511,1538.251c10.302,10.938,19.766,34.826,14.728,49.561
			c-4.763,13.873-15.754,5.712-29.683,2.531c-12.675-2.865-38.643-16.653-41.71-30.27
			C824.867,1529.058,870.307,1518.933,888.511,1538.251z"/>
		<path style="opacity:0.4;fill:#FDDECF;" d="M894.253,1672.755c21.856,9.566,27.727,48.436,22.684,63.149
			c-4.758,13.88-15.751,5.72-29.67,2.555c-12.697-2.855-46.604-30.263-49.668-43.88
			C830.616,1663.563,869.926,1662.119,894.253,1672.755z"/>
		<path style="opacity:0.4;fill:#FDDECF;" d="M857.174,1818.75c39.459,12.863,20.204,49.658,6.648,48.348
			c-12.29-1.167-61.8-19.817-63.917-29.225C795.089,1816.485,834.353,1811.301,857.174,1818.75z"/>
	</g>
	<g>
		<g>
			<path style="fill:#FBC4AB;" d="M309.218,1580.704c12.102-24.119,28.901-51.213,52.309-79.361
				c78.543-94.464,200.607-138.272,254.215-100.369c49.069,34.713,57.782,138.152,99.368,181.988
				c15.717,16.677,17.076,50.591-18.475,65.213c-105.872,43.51-156.875-66.428-168.111-98.793c0,0,47.274,184.517-64.718,199.523"/>
			<path style="fill:#F9A77F;" d="M309.218,1580.704l6.132-12.677l3.065-6.337l3.416-6.173l6.891-12.36
				c2.37-4.08,5.035-7.958,7.544-11.956c2.582-3.944,5.023-8,7.732-11.866l8.346-11.442c5.578-7.708,11.337-15.093,17.637-22.226
				c12.453-14.412,26.032-27.754,40.77-39.851c14.641-12.195,30.348-23.147,46.879-32.823c16.618-9.508,34.099-17.705,52.487-23.798
				c18.348-6.058,37.666-10.331,57.705-10.27c9.995,0.039,20.175,1.155,30.163,4.041c9.861,2.875,19.97,7.605,27.848,14.614
				c1.83,1.593,3.606,2.712,5.476,4.699l5.569,5.932l2.748,3.003l2.246,3.038l4.482,6.095c2.865,4.115,5.242,8.422,7.873,12.636
				c2.314,4.307,4.507,8.667,6.714,13.013c8.332,17.513,14.899,35.34,21.555,52.83c6.655,17.462,13.257,34.774,21.632,50.584
				c4.311,7.759,8.689,15.481,14.124,21.917l4.429,5.337l2.246,2.707c0.341,0.37,0.794,1.001,1.269,1.715l1.357,2.03
				c3.313,5.357,5.525,10.494,6.699,16.311c2.504,11.352,0.738,23.924-5.345,34.1c-5.91,10.351-15.547,17.362-25.193,21.91
				c-1.35,0.614-2.163,1.055-3.951,1.798l-3.298,1.218l-6.646,2.421c-4.954,1.42-9.936,3.106-14.874,3.949
				c-9.861,2.085-20.112,3.077-30.358,2.422c-20.526-1.031-40.584-8.565-56.935-20.27c-16.509-11.632-29.656-26.811-40.309-43.084
				c-10.648-16.362-19.132-33.741-25.405-52.221l13.344-4.02c1.164,5.111,2.119,9.942,2.948,14.926
				c0.853,4.948,1.554,9.912,2.231,14.877c1.277,9.937,2.236,19.912,2.74,29.925c0.509,10.012,0.597,20.056,0.164,30.094
				c-0.181,5.018-0.672,10.034-1.15,15.038c-0.643,5.001-1.252,9.995-2.237,14.952c-0.404,2.488-0.92,4.958-1.539,7.413
				c-0.604,2.453-1.072,4.93-1.851,7.347c-0.741,2.422-1.391,4.862-2.207,7.26l-2.631,7.133c-2.01,4.665-4.102,9.291-6.758,13.642
				c-1.174,2.25-2.68,4.317-4.138,6.397l-2.185,3.118l-2.48,2.897c-3.196,3.944-6.991,7.383-10.904,10.558
				c-2.065,1.466-4.049,3.033-6.168,4.392l-6.626,3.618c-4.614,1.961-9.208,3.971-14.087,5.028
				c-4.748,1.513-9.745,1.842-14.594,2.643c4.794-1.213,9.676-1.949,14.226-3.839c4.692-1.435,9.009-3.786,13.281-6.039l6.051-3.998
				c1.934-1.44,3.717-3.074,5.574-4.592c3.498-3.279,6.84-6.748,9.586-10.68l2.141-2.874l1.844-3.084
				c1.235-2.048,2.507-4.063,3.462-6.275c2.197-4.251,3.864-8.755,5.525-13.24l2.095-6.884c0.643-2.309,1.12-4.675,1.691-7.006
				c0.614-2.316,0.916-4.724,1.359-7.084c0.451-2.363,0.806-4.743,1.055-7.147c0.667-4.77,0.967-9.598,1.308-14.409
				c0.195-4.833,0.343-9.661,0.302-14.504c-0.024-9.679-0.55-19.367-1.481-29.026c-0.926-9.659-2.297-19.283-3.971-28.845
				c-0.872-4.775-1.769-9.542-2.806-14.273c-1.028-4.699-2.09-9.525-3.282-13.993l13.347-4.019
				c6.334,16.852,14.974,33.186,25.296,47.924c10.382,14.697,22.703,27.951,37.086,37.739c14.358,9.805,30.933,15.552,47.941,16.099
				c8.497,0.388,17.086-0.607,25.515-2.572c4.307-0.826,8.219-2.197,12.282-3.335l6.557-2.438l3.294-1.24l2.422-1.179
				c7.142-3.435,13.298-8.193,16.657-14.311c3.523-6,4.526-13.245,2.972-20.198c-0.604-3.415-2.343-6.972-3.927-9.561l-0.57-0.911
				c-0.146-0.285-0.351-0.621-0.804-1.121l-2.266-2.692l-4.589-5.457c-6.665-7.919-11.742-16.538-16.409-25.21
				c-9.067-17.445-15.695-35.352-22.289-52.957c-6.563-17.603-12.897-35.062-20.59-51.493l-6.071-12.048
				c-2.278-3.769-4.353-7.749-6.777-11.371l-3.751-5.311l-1.871-2.665l-1.978-2.21l-3.888-4.485
				c-1.247-1.518-3.425-3.035-5.091-4.553c-12.049-10.96-29.242-15.165-46.669-15.593c-17.52-0.339-35.503,2.692-52.872,7.898
				c-17.423,5.133-34.326,12.417-50.567,20.967c-32.541,17.064-62.362,39.766-88.238,66.226c-3.245,3.24-6.407,6.716-9.559,10.2
				c-3.157,3.337-5.992,7.091-9.008,10.619l-8.994,10.713c-2.938,3.623-5.608,7.445-8.433,11.162
				c-2.748,3.768-5.666,7.437-8.282,11.298l-7.761,11.659l-3.907,5.839l-3.586,6.061L309.218,1580.704z"/>
		</g>
	</g>
	<path style="opacity:0.4;fill:#FDD2BC;" d="M371.237,1776.598c-0.046,0.356-52.107,98.915-49.771,121.032l-62.66-219.253
		c11.476-48.087,47.971-102.796,81.588-142.797C338.962,1541.609,303.771,1621.12,371.237,1776.598z"/>
	<path style="opacity:0.4;fill:#FDDECF;" d="M674.769,1567.077c2.96-6.339-22.679-58.401-32.828-83.142
		c-8.129-19.78-20.562-54.884-41.393-64.479c-29.734-13.739-87.366-20.49-74.555,28.706c6.855,26.345,35.362,50.175,55.585,66.913
		c13.332,11.028,24.462,22.962,39.603,31.149C641.461,1557.216,668.674,1580.076,674.769,1567.077z"/>
	<path style="opacity:0.4;fill:#FDDECF;" d="M500.112,1638.102c-6.887,25.531-33.493,83.611-61.042,84.231
		c-78.523,1.734-68.228-182.442,1.722-193.056c21.437-3.252,38.445,3.398,47.254,22.686
		C500.244,1578.736,507.993,1608.979,500.112,1638.102z"/>
	<polygon style="fill:#F1F2F2;" points="0,2071.372 307.449,2002.162 222.049,1622.784 0,1672.772 	"/>
	<polygon style="fill:#D1D3D4;" points="0,2071.372 307.449,2002.162 296.633,1954.111 0,2020.887 	"/>
	<polygon style="fill:#EE3041;" points="0,2084.663 283.264,2020.897 192.164,1616.219 0,1659.478 	"/>
	<polygon style="opacity:0.5;fill:#A7A9AC;" points="0,2084.663 283.264,2020.897 269.813,1961.144 0,2021.882 	"/>
	<path style="fill:#FFFFFF;" d="M210.829,1912.884c3.783,16.796-6.77,33.478-23.566,37.259c-16.799,3.781-33.476-6.77-37.257-23.566
		c-3.781-16.799,6.768-33.478,23.564-37.259C190.366,1885.537,207.048,1896.085,210.829,1912.884z"/>
	<path style="opacity:0.2;fill:#FDDECF;" d="M0,1676.182v12.448c76.073-24.685,137.178-43.33,137.178-43.33L0,1676.182z"/>
</g>
<g>
	<g>
		<path style="fill:#A61C29;" d="M1472.976,1403.997c0.343-0.516,1.203-0.472,2.582,0.129c1.374,0.604,2.775,1.528,4.193,2.775
			c1.42,1.247,2.582,2.689,3.486,4.324c0.904,1.634,1.096,3.184,0.58,4.645c-3.7,4.473-7.401,9.53-11.099,15.162
			c-3.7,5.637-7.291,11.595-10.775,17.873c-3.483,6.28-6.818,12.755-10,19.423c-3.183,6.667-6.109,13.227-8.776,19.678
			c2.667,1.464,5.376,2.904,8.132,4.324c2.75,1.42,5.632,2.775,8.645,4.066c0.602,0.173,0.774,0.495,0.516,0.967
			c-0.258,0.472-0.689,0.989-1.291,1.549c-0.602,0.561-1.313,1.077-2.129,1.547c-0.818,0.475-1.527,0.755-2.129,0.841l-14.324-6.97
			c-3.442,8.604-6.258,16.604-8.453,24.002c-2.195,7.398-3.593,13.681-4.195,18.841c-0.085,0.689-0.516,0.646-1.289-0.127
			c-0.775-0.775-1.615-1.788-2.516-3.033c-0.903-1.25-1.7-2.563-2.387-3.937c-0.692-1.376-0.991-2.409-0.903-3.096
			c0.17-4.563,1.096-10.044,2.774-16.455c1.676-6.407,3.89-13.399,6.645-20.969c-3.7-1.72-7.291-3.291-10.777-4.712
			c-3.484-1.418-7.033-2.728-10.646-3.934c-5.42,7.143-11.228,13.959-17.42,20.453c-6.195,6.497-12.519,12.217-18.972,17.164
			c-6.451,4.945-12.904,8.904-19.357,11.871c-6.451,2.969-12.56,4.453-18.324,4.453c-10.324,0-18.046-1.851-23.164-5.549
			c-5.121-3.7-7.679-9.808-7.679-18.324c0-6.623,1.761-12.711,5.291-18.261c3.528-5.549,8.195-10.365,14.003-14.453
			c5.808-4.085,12.343-7.335,19.615-9.744c7.269-2.407,14.646-3.827,22.132-4.259c7.741-0.429,14.73-0.236,20.969,0.58
			c6.236,0.819,12.065,2.088,17.486,3.808c3.786-5.332,7.269-10.602,10.453-15.807c3.182-5.206,5.915-10.11,8.195-14.711
			c2.277-4.601,4.085-8.753,5.42-12.453c1.333-3.698,2.085-6.711,2.258-9.033c0.344-4.731-0.626-7.937-2.904-9.615
			c-2.28-1.679-5.442-2.473-9.486-2.388c-6.109,0-11.829,1.376-17.162,4.129c-5.335,2.755-10.154,6.345-14.453,10.774
			c-4.305,4.434-8.002,9.445-11.099,15.035c-3.096,5.593-5.464,11.228-7.098,16.906c-0.258,0.602-1.031,1.335-2.322,2.192
			c-1.291,0.863-2.646,1.613-4.066,2.258c-1.42,0.646-2.689,1.096-3.808,1.354c-1.118,0.258-1.593,0.046-1.418-0.643
			c0.341-1.807,0.646-3.291,0.902-4.453c0.258-1.162,0.538-2.237,0.84-3.225c0.3-0.989,0.687-2.022,1.162-3.099
			c0.47-1.074,1.138-2.473,2-4.192c2.495-5.162,5.742-10.261,9.742-15.294c4-5.033,8.453-9.568,13.357-13.615
			c4.904-4.041,10.173-7.332,15.807-9.871c5.635-2.536,11.335-3.893,17.101-4.066c3.267-0.085,6.3,0.346,9.096,1.291
			c2.794,0.947,5.206,2.302,7.228,4.066c2.02,1.764,3.591,3.915,4.709,6.451c1.118,2.538,1.591,5.357,1.42,8.453
			c-0.173,3.272-0.885,6.97-2.129,11.099c-1.247,4.129-2.948,8.517-5.098,13.162c-2.151,4.646-4.69,9.486-7.613,14.519
			c-2.926,5.033-6.151,10.046-9.679,15.032c3.182,1.464,6.278,2.97,9.291,4.516c3.011,1.55,6.022,3.184,9.033,4.904
			c2.84-7.14,5.936-14.431,9.291-21.873c3.357-7.44,6.819-14.624,10.39-21.549c3.569-6.926,7.074-13.4,10.516-19.423
			C1466.737,1413.461,1469.965,1408.299,1472.976,1403.997z M1327.927,1526.076c5.764,0,11.657-1.335,17.681-4
			c6.019-2.668,11.978-6.239,17.873-10.711c5.891-4.472,11.634-9.593,17.228-15.357c5.591-5.764,10.841-11.829,15.744-18.197
			c-4.821-0.945-9.873-1.613-15.165-2c-5.291-0.388-11.12-0.407-17.485-0.063c-4.56,0.258-9.099,0.904-13.615,1.934
			c-4.516,1.033-8.838,2.409-12.969,4.131c-4.129,1.72-7.98,3.676-11.549,5.871c-3.571,2.192-6.645,4.56-9.225,7.096
			c-2.582,2.541-4.582,5.187-6.002,7.937c-1.418,2.755-2.044,5.466-1.871,8.132c0.258,2.838,1.011,5.225,2.258,7.162
			c1.247,1.934,2.818,3.503,4.711,4.709c1.89,1.206,3.912,2.066,6.066,2.582C1323.754,1525.818,1325.864,1526.076,1327.927,1526.076
			z"/>
		<path style="fill:#A61C29;" d="M1518.529,1472.262c0,0.604-0.217,1.077-0.646,1.42c-0.431,0.346-0.884,0.538-1.356,0.582
			c-0.473,0.044-0.882-0.107-1.225-0.453c-0.344-0.343-0.517-0.858-0.517-1.549c-0.173-0.858-0.321-1.954-0.45-3.289
			c-0.129-1.335-0.431-2.624-0.904-3.873c-0.473-1.245-1.226-2.341-2.259-3.289c-1.033-0.948-2.538-1.464-4.516-1.549
			c-2.409-0.085-4.755,0.387-7.032,1.42c-2.281,1.031-4.453,2.451-6.517,4.259c-2.065,1.805-4.002,3.892-5.807,6.258
			c-1.807,2.368-3.442,4.818-4.904,7.354c-1.464,2.541-2.733,5.079-3.807,7.615c-1.077,2.538-1.915,4.884-2.516,7.033
			c-0.432,1.464-0.775,3.225-1.033,5.291c-0.258,2.065-0.173,3.98,0.258,5.741c0.431,1.766,1.333,3.121,2.712,4.066
			c1.374,0.947,3.525,1.077,6.45,0.387c1.376-0.343,3.055-1.333,5.033-2.967s3.978-3.549,6.002-5.744
			c2.02-2.192,3.934-4.495,5.742-6.904c1.807-2.407,3.269-4.516,4.387-6.324c0.945-2.495,1.742-4.904,2.387-7.225
			c0.646-2.324,1.053-4.343,1.225-6.066c0.86-0.429,2.022-0.344,3.486,0.258c1.461,0.602,2.838,1.464,4.129,2.579
			c1.291,1.12,2.321,2.412,3.096,3.873c0.775,1.464,0.947,2.882,0.516,4.258c-0.516,1.291-1.14,2.838-1.871,4.646
			c-0.731,1.808-1.464,3.656-2.192,5.549c-0.733,1.893-1.42,3.764-2.066,5.613c-0.646,1.851-1.077,3.53-1.291,5.033
			c-0.214,1.505-0.214,2.733,0,3.678c0.215,0.947,0.794,1.464,1.742,1.549h1.55c2.923-0.86,5.656-2.409,8.195-4.645
			c2.536-2.237,4.904-4.775,7.096-7.615c2.195-2.838,4.215-5.808,6.066-8.904c1.85-3.099,3.55-5.936,5.099-8.516
			c0.258-0.431,0.646-0.668,1.162-0.711c0.514-0.041,0.967,0.066,1.354,0.324c0.387,0.258,0.665,0.602,0.838,1.03
			c0.171,0.433,0.085,0.947-0.259,1.55c-1.722,2.667-3.398,5.379-5.033,8.129c-1.634,2.755-3.354,5.42-5.162,8.003
			c-1.805,2.579-3.722,5.076-5.742,7.483c-2.022,2.412-4.239,4.604-6.645,6.582c-0.604,0.516-1.357,1.118-2.259,1.807
			c-0.903,0.689-1.937,1.335-3.099,1.934c-1.162,0.604-2.409,1.099-3.742,1.486c-1.335,0.385-2.774,0.536-4.324,0.451
			c-2.409-0.173-4.368-0.775-5.871-1.807c-1.506-1.031-2.646-2.366-3.42-4c-0.775-1.632-1.184-3.483-1.225-5.549
			c-0.044-2.063,0.236-4.17,0.838-6.324c-1.722,2.154-3.549,4.261-5.483,6.324c-1.937,2.066-3.937,3.917-6,5.549
			c-2.066,1.634-4.175,2.948-6.324,3.937c-2.151,0.989-4.258,1.398-6.323,1.225c-3.7-0.171-6.561-1.053-8.582-2.646
			c-2.022-1.59-3.506-3.461-4.451-5.613c-0.948-2.151-1.486-4.387-1.615-6.711c-0.127-2.321-0.063-4.258,0.195-5.808
			c0.428-3.011,1.374-6.324,2.838-9.937c1.462-3.612,3.357-7.203,5.679-10.774c2.324-3.569,5.011-6.97,8.066-10.195
			c3.052-3.225,6.324-5.936,9.807-8.129c3.484-2.195,7.118-3.744,10.906-4.648c3.783-0.901,7.654-0.838,11.612,0.195
			c1.72,0.516,3.118,1.354,4.195,2.516c1.075,1.162,1.912,2.538,2.516,4.13c0.602,1.593,0.987,3.313,1.162,5.161
			C1518.571,1468.63,1518.612,1470.457,1518.529,1472.262z"/>
		<path style="fill:#A61C29;" d="M1562.534,1467.616c1.978-1.805,4.085-3.503,6.322-5.096c2.237-1.59,4.539-2.969,6.904-4.129
			c2.365-1.162,4.731-2.044,7.099-2.646c2.365-0.602,4.623-0.775,6.774-0.516c3.439,0.431,6.066,1.549,7.873,3.355
			c1.805,1.807,3.052,3.936,3.742,6.387c0.687,2.453,0.904,5.057,0.646,7.808c-0.258,2.755-0.733,5.337-1.42,7.744
			c-1.464,4.818-3.527,9.53-6.195,14.129c-2.667,4.604-5.741,8.711-9.225,12.326c-3.486,3.613-7.337,6.539-11.552,8.775
			c-4.214,2.239-8.56,3.399-13.033,3.484c-4.646,0.088-8.088-0.794-10.324-2.646c-2.239-1.849-3.7-4.148-4.387-6.904
			c-0.173-0.428-0.302-0.881-0.387-1.354c-0.088-0.472-0.173-0.969-0.258-1.483c-2.066,4.129-4.195,8.258-6.387,12.387
			c-2.195,4.129-4.195,8.28-6,12.453c-1.807,4.173-3.376,8.472-4.711,12.906c-1.333,4.429-2.171,9.052-2.516,13.871
			c0,0.689-0.458,0.903-1.376,0.646c-0.911-0.259-1.939-0.709-3.074-1.354c-1.13-0.646-2.2-1.42-3.206-2.324
			c-1.001-0.901-1.547-1.698-1.634-2.387c0.261-5.162,1.22-10.387,2.88-15.678c1.656-5.291,3.678-10.626,6.061-16.003
			c2.385-5.376,4.889-10.774,7.513-16.195c2.626-5.42,5.052-10.881,7.291-16.389v0.129c1.033-2.924,2.129-5.915,3.291-8.97
			c1.162-3.052,2.321-6.063,3.483-9.033c1.162-2.968,2.214-5.827,3.162-8.582c0.945-2.75,1.72-5.245,2.324-7.484
			c0.858-0.429,2-0.366,3.418,0.192c1.42,0.56,2.774,1.401,4.066,2.516c1.291,1.12,2.324,2.412,3.099,3.873
			c0.772,1.464,0.945,2.882,0.514,4.258L1562.534,1467.616z M1550.532,1494.717l-0.775,1.937c-0.258,1.376-0.368,2.797-0.322,4.258
			c0.042,1.464,0.322,2.838,0.838,4.129c0.516,1.291,1.311,2.368,2.387,3.225c1.075,0.863,2.516,1.335,4.324,1.42
			c2.665,0.259,5.632-0.731,8.904-2.967c3.269-2.237,6.453-5.077,9.549-8.519c3.096-3.44,5.893-7.204,8.387-11.291
			c2.495-4.085,4.344-7.915,5.549-11.486c1.203-3.569,1.528-6.579,0.97-9.032c-0.563-2.451-2.346-3.761-5.357-3.937
			c-2.063-0.083-4.28,0.217-6.645,0.904c-2.368,0.689-4.733,1.678-7.099,2.969c-2.365,1.289-4.689,2.838-6.967,4.646
			c-2.281,1.805-4.324,3.785-6.131,5.936c-1.289,2.838-2.624,5.871-4,9.096c-1.376,3.228-2.624,6.346-3.742,9.357L1550.532,1494.717
			z"/>
		<path style="fill:#A61C29;" d="M1628.604,1467.616c1.978-1.805,4.085-3.503,6.322-5.096c2.236-1.59,4.538-2.969,6.904-4.129
			c2.365-1.162,4.731-2.044,7.098-2.646c2.366-0.602,4.624-0.775,6.774-0.516c3.44,0.431,6.066,1.549,7.874,3.355
			c1.805,1.807,3.052,3.936,3.742,6.387c0.687,2.453,0.903,5.057,0.646,7.808c-0.258,2.755-0.733,5.337-1.42,7.744
			c-1.464,4.818-3.527,9.53-6.195,14.129c-2.668,4.604-5.742,8.711-9.225,12.326c-3.486,3.613-7.337,6.539-11.552,8.775
			c-4.214,2.239-8.56,3.399-13.033,3.484c-4.645,0.088-8.088-0.794-10.324-2.646c-2.239-1.849-3.7-4.148-4.387-6.904
			c-0.173-0.428-0.302-0.881-0.387-1.354c-0.088-0.472-0.173-0.969-0.258-1.483c-2.066,4.129-4.195,8.258-6.387,12.387
			c-2.195,4.129-4.195,8.28-6,12.453c-1.807,4.173-3.376,8.472-4.711,12.906c-1.333,4.429-2.171,9.052-2.516,13.871
			c0,0.689-0.458,0.903-1.376,0.646c-0.911-0.259-1.939-0.709-3.074-1.354c-1.13-0.646-2.2-1.42-3.206-2.324
			c-1.001-0.901-1.547-1.698-1.634-2.387c0.26-5.162,1.22-10.387,2.879-15.678c1.656-5.291,3.678-10.626,6.061-16.003
			c2.385-5.376,4.889-10.774,7.513-16.195c2.626-5.42,5.052-10.881,7.291-16.389v0.129c1.033-2.924,2.129-5.915,3.291-8.97
			c1.162-3.052,2.321-6.063,3.484-9.033c1.162-2.968,2.214-5.827,3.161-8.582c0.945-2.75,1.72-5.245,2.324-7.484
			c0.857-0.429,2-0.366,3.417,0.192c1.42,0.56,2.775,1.401,4.066,2.516c1.291,1.12,2.324,2.412,3.099,3.873
			c0.772,1.464,0.945,2.882,0.514,4.258L1628.604,1467.616z M1616.601,1494.717l-0.774,1.937c-0.258,1.376-0.368,2.797-0.322,4.258
			c0.041,1.464,0.322,2.838,0.838,4.129c0.516,1.291,1.311,2.368,2.387,3.225c1.074,0.863,2.516,1.335,4.324,1.42
			c2.665,0.259,5.632-0.731,8.904-2.967c3.269-2.237,6.453-5.077,9.549-8.519c3.096-3.44,5.893-7.204,8.388-11.291
			c2.495-4.085,4.343-7.915,5.549-11.486c1.203-3.569,1.527-6.579,0.969-9.032c-0.563-2.451-2.346-3.761-5.357-3.937
			c-2.063-0.083-4.28,0.217-6.645,0.904c-2.368,0.689-4.734,1.678-7.099,2.969c-2.365,1.289-4.689,2.838-6.967,4.646
			c-2.28,1.805-4.324,3.785-6.131,5.936c-1.289,2.838-2.624,5.871-4,9.096c-1.376,3.228-2.624,6.346-3.742,9.357L1616.601,1494.717z
			"/>
		<path style="fill:#A61C29;" d="M1684.221,1454.842c0.857-0.429,2-0.366,3.417,0.192c1.42,0.56,2.775,1.401,4.066,2.516
			c1.291,1.12,2.324,2.412,3.098,3.873c0.772,1.464,0.945,2.882,0.514,4.258c-0.432,1.206-1.269,3.14-2.516,5.808
			c-1.247,2.667-2.646,5.7-4.193,9.096c-1.549,3.401-3.055,6.904-4.516,10.519c-1.464,3.613-2.626,6.926-3.486,9.937
			c-0.86,3.011-1.289,5.483-1.289,7.42c0,1.934,0.775,2.948,2.322,3.033h1.549c2.838-0.86,5.505-2.365,8-4.516
			c2.495-2.151,4.797-4.601,6.904-7.357c2.107-2.752,4.086-5.635,5.937-8.645c1.849-3.011,3.549-5.807,5.098-8.39
			c1.632-4.299,3.225-8.775,4.775-13.42c1.547-4.645,3.052-9.42,4.516-14.323c0.858-0.429,2-0.366,3.42,0.192
			c1.418,0.56,2.774,1.401,4.063,2.516c1.291,1.12,2.324,2.412,3.099,3.873c0.775,1.464,0.945,2.882,0.517,4.258l-19.101,46.2
			c-1.978,4.818-3.934,9.354-5.87,13.612c-1.934,4.258-3.937,8.28-6,12.065c3.613,1.978,7.14,4.107,10.582,6.39
			c3.44,2.277,6.838,4.58,10.195,6.904c0.945,0.687,1.052,1.44,0.321,2.258c-0.73,0.816-1.786,1.55-3.162,2.193
			c-1.376,0.646-2.819,1.14-4.322,1.486c-1.508,0.341-2.562,0.341-3.162,0c-3.013-2.066-5.766-4.002-8.261-5.807
			c-2.495-1.807-4.904-3.486-7.225-5.033c-2.497,3.783-5.162,7.14-8.002,10.065c-2.838,2.924-5.934,5.399-9.292,7.421
			c-3.354,2.019-7.032,3.569-11.033,4.645c-4,1.074-8.409,1.612-13.227,1.612c-2.753,0-5.462-0.28-8.129-0.835
			c-2.668-0.558-5.055-1.437-7.162-2.636c-2.107-1.203-3.827-2.769-5.162-4.697c-1.332-1.932-2-4.311-2-7.14
			c0-3.776,0.926-7.271,2.774-10.485c1.849-3.218,4.322-6.005,7.42-8.362c3.096-2.361,6.667-4.205,10.709-5.532
			c4.046-1.33,8.305-1.995,12.777-1.995c2.838,0,5.355,0.107,7.549,0.324c2.193,0.214,4.236,0.516,6.129,0.904
			c1.893,0.387,3.72,0.857,5.486,1.417c1.761,0.56,3.632,1.228,5.613,2c2.065-3.883,4.043-7.91,5.936-12.073
			c1.89-4.166,3.698-8.446,5.42-12.833l2.838-7.225c-1.722,2.497-3.572,4.904-5.549,7.225c-1.981,2.324-4.129,4.475-6.453,6.453
			c-0.602,0.516-1.376,1.118-2.321,1.807c-0.948,0.689-2,1.313-3.162,1.871c-1.162,0.56-2.409,1.033-3.742,1.42
			c-1.335,0.385-2.775,0.58-4.324,0.58c-1.805-0.088-3.335-0.602-4.58-1.55c-1.25-0.945-2.217-2.192-2.904-3.742
			c-0.689-1.549-1.077-3.31-1.162-5.291c-0.088-1.978,0.085-4.085,0.516-6.324c0.599-3.096,1.59-6.753,2.967-10.967
			c1.377-4.215,2.882-8.539,4.516-12.97c1.634-4.431,3.206-8.777,4.711-13.035
			C1682.175,1461.745,1683.359,1458.025,1684.221,1454.842z M1649.895,1565.435c3.439,0,6.689-0.626,9.741-1.871
			c3.055-1.25,5.98-2.969,8.775-5.161c2.797-2.195,5.442-4.819,7.936-7.874s4.904-6.431,7.228-10.129
			c-2.926-1.206-6-2.151-9.228-2.841c-3.225-0.69-6.903-1.077-11.033-1.159c-3.181,0-6.538,0.341-10.066,1.031
			c-3.527,0.689-6.753,1.744-9.678,3.161c-2.923,1.42-5.335,3.247-7.228,5.486c-1.89,2.237-2.753,4.86-2.58,7.871
			c0,2.324,0.516,4.214,1.547,5.678c1.033,1.461,2.346,2.623,3.937,3.483c1.593,0.86,3.335,1.462,5.228,1.808
			C1646.367,1565.262,1648.173,1565.435,1649.895,1565.435z"/>
	</g>
	<g>
		<path style="fill:#A61C29;" d="M1425.03,1822.146c29.554,0,39.301,11.946,39.301,37.729v34.426
			c0,25.781-9.747,37.885-39.301,37.885h-39.771v-110.04H1425.03z M1425.502,1905.149c7.544,0,11.318-1.259,11.318-10.692
			c0-0.156,0-34.426,0-34.582c0-9.746-3.774-10.689-11.318-10.689h-13.205v55.963H1425.502z"/>
		<path style="fill:#A61C29;" d="M1554.717,1932.187h-27.037v-23.108h-22.952v23.108h-27.037v-71.997
			c0-19.807,3.145-40.872,38.514-40.872c35.371,0,38.514,21.065,38.514,40.872V1932.187z M1527.679,1860.19
			c0-7.547-1.101-11.321-11.476-11.321c-10.375,0-11.476,3.774-11.476,11.321v21.693h22.952V1860.19z"/>
		<path style="fill:#A61C29;" d="M1594.958,1822.146l14.148,35.371l14.148-35.371h32.696l-31.125,69.797v40.243h-31.44v-40.243
			l-31.283-69.797H1594.958z"/>
	</g>
	<g>
		<path style="fill:#EE3041;" d="M1171.454,1709.146c0,17.159,1.12,27.654,17.625,27.654c16.499,0,18.287-8.697,19.174-24.095
			l37.018,8.26c0,14.712-3.343,54.185-56.192,54.185c-52.859,0-55.982-39.473-55.982-54.185v-55.763
			c0-14.709,3.123-54.184,55.982-54.184c52.849,0,56.192,39.475,56.192,54.184l-37.018,8.261
			c-0.886-15.396-2.675-24.095-19.174-24.095c-16.504,0-17.625,10.497-17.625,27.654V1709.146z"/>
		<path style="fill:#EE3041;" d="M1434.745,1615.031l35.235,85.417v-85.417h38.35v156.108h-45.045l-35.235-86.09v86.09h-38.358
			v-156.108H1434.745z"/>
		<path style="fill:#EE3041;" d="M1716.545,1615.031c41.924,0,55.751,16.942,55.751,53.531v48.828
			c0,36.572-13.827,53.749-55.751,53.749h-56.419v-156.108H1716.545z M1717.214,1732.788c10.704,0,16.061-1.798,16.061-15.182
			c0-0.217,0-48.828,0-49.045c0-13.836-5.357-15.162-16.061-15.162h-18.731v79.388H1717.214z"/>
		<path style="fill:#EE3041;" d="M1845.961,1611.018c-50.177,0-54.645,29.89-54.645,57.98v102.141h38.362v-32.775h32.56v32.775
			h38.358v-102.141C1900.597,1640.908,1896.139,1611.018,1845.961,1611.018z M1877.542,1686.92l-15.606,6.482
			c0,0-3.596,1.437-4.126,2.417c-0.741,1.359,1.15,5.34,1.15,5.34l-12.37-1.42l-0.314,0.928l0.572,15.035h-1.837l0.575-15.018
			l-0.322-0.945l-12.355,1.42c0,0,1.715-4.307,0.979-5.668c-0.477-0.87-3.55-1.942-3.55-1.942l-15.968-6.628
			c0,0,5.418-2.051,5.013-3.05c-0.511-1.255-5.744-9.715-5.744-9.715s9.398,0.215,11.289,0.361c1.291,0.112,0.263-5.847,0.263-5.847
			l10.568,8.482c0,0,1.398,1.252,1.518,1.218c0.1-0.039-0.3-2.09-0.3-2.09l-2.694-18.957c0,0,5.052,4.302,5.681,3.033
			c0.906-1.854,5.963-10.86,5.963-10.86s5.072,9.661,5.968,10.86c0.716,0.945,5.683-3.033,5.683-3.033l-2.643,18.541
			c0,0-0.406,2.378-0.351,2.541c0.044,0.163,1.578-1.252,1.578-1.252l10.568-8.482c0,0-1.023,5.959,0.263,5.847
			c1.876-0.146,11.277-0.361,11.277-0.361s-5.221,8.46-5.737,9.715C1872.124,1684.869,1877.542,1686.92,1877.542,1686.92z"/>
		<path style="fill:#EE3041;" d="M1313.801,1611.018c-50.172,0-54.641,29.89-54.641,57.98v102.141h38.36v-32.775h32.558v32.775
			h38.358v-102.141C1368.436,1640.908,1363.98,1611.018,1313.801,1611.018z M1345.386,1686.92l-15.61,6.482
			c0,0-3.596,1.437-4.126,2.417c-0.74,1.359,1.15,5.34,1.15,5.34l-12.366-1.42l-0.316,0.928l0.57,15.035h-1.832l0.57-15.018
			l-0.317-0.945l-12.355,1.42c0,0,1.715-4.307,0.979-5.668c-0.482-0.87-3.552-1.942-3.552-1.942l-15.968-6.628
			c0,0,5.421-2.051,5.011-3.05c-0.506-1.255-5.739-9.715-5.739-9.715s9.398,0.215,11.286,0.361c1.289,0.112,0.266-5.847,0.266-5.847
			l10.567,8.482c0,0,1.398,1.252,1.516,1.218c0.102-0.039-0.297-2.09-0.297-2.09l-2.699-18.957c0,0,5.057,4.302,5.685,3.033
			c0.906-1.854,5.963-10.86,5.963-10.86s5.067,9.661,5.963,10.86c0.722,0.945,5.686-3.033,5.686-3.033l-2.646,18.541
			c0,0-0.407,2.378-0.351,2.541c0.044,0.163,1.578-1.252,1.578-1.252l10.568-8.482c0,0-1.023,5.959,0.265,5.847
			c1.878-0.146,11.277-0.361,11.277-0.361s-5.223,8.46-5.739,9.715C1339.963,1684.869,1345.386,1686.92,1345.386,1686.92z"/>
		<path style="fill:#EE3041;" d="M1584.232,1611.018c-50.17,0-54.643,29.89-54.643,57.98v102.141h38.363v-32.775h32.56v32.775
			h38.358v-102.141C1638.869,1640.908,1634.412,1611.018,1584.232,1611.018z M1615.82,1686.92l-15.61,6.482
			c0,0-3.596,1.437-4.131,2.417c-0.736,1.359,1.155,5.34,1.155,5.34l-12.365-1.42l-0.322,0.928l0.575,15.035h-1.834l0.573-15.018
			l-0.317-0.945l-12.358,1.42c0,0,1.718-4.307,0.982-5.668c-0.483-0.87-3.552-1.942-3.552-1.942l-15.971-6.628
			c0,0,5.423-2.051,5.014-3.05c-0.509-1.255-5.739-9.715-5.739-9.715s9.398,0.215,11.284,0.361c1.291,0.112,0.264-5.847,0.264-5.847
			l10.572,8.482c0,0,1.399,1.252,1.515,1.218c0.097-0.039-0.302-2.09-0.302-2.09l-2.695-18.957c0,0,5.057,4.302,5.684,3.033
			c0.908-1.854,5.966-10.86,5.966-10.86s5.067,9.661,5.966,10.86c0.716,0.945,5.683-3.033,5.683-3.033l-2.645,18.541
			c0,0-0.41,2.378-0.351,2.541c0.044,0.163,1.578-1.252,1.578-1.252l10.57-8.482c0,0-1.028,5.959,0.261,5.847
			c1.88-0.146,11.279-0.361,11.279-0.361s-5.223,8.46-5.739,9.715C1610.397,1684.869,1615.82,1686.92,1615.82,1686.92z"/>
	</g>
	<g>
		<g>
			<rect x="1725.738" y="1818.405" style="fill:#EE3041;" width="178.035" height="116.649"/>
			<path style="fill:#FFFFFF;" d="M1900.597,1821.584v110.291h-171.68v-110.291H1900.597 M1906.955,1815.228h-6.358h-171.68h-6.356
				v6.355v110.291v6.356h6.356h171.68h6.358v-6.356v-110.291V1815.228L1906.955,1815.228z"/>
		</g>
		<rect x="1768.233" y="1821.584" style="fill:#FFFFFF;" width="93.061" height="110.291"/>
		<path style="fill:#EE3041;" d="M1840.87,1880.071c0.502-1.235,5.639-9.549,5.639-9.549s-9.225,0.214-11.076,0.343
			c-1.271,0.09-0.273-5.737-0.273-5.737l-10.387,8.317c0,0-1.496,1.413-1.542,1.267c-0.046-0.161,0.363-2.504,0.363-2.504
			l2.582-18.229c0,0-4.858,3.883-5.586,2.976c-0.872-1.162-5.856-10.677-5.856-10.677s-4.957,8.843-5.849,10.677
			c-0.624,1.252-5.583-2.976-5.583-2.976l2.636,18.611c0,0,0.4,2.034,0.297,2.052c-0.127,0.036-1.501-1.196-1.501-1.196
			l-10.375-8.317c0,0,0.999,5.827-0.255,5.737c-1.851-0.129-11.082-0.343-11.082-0.343s5.137,8.314,5.627,9.549
			c0.412,0.979-4.931,2.959-4.931,2.959l15.705,6.536c0,0,3.016,1.055,3.478,1.891c0.716,1.361-0.969,5.591-0.969,5.591
			l12.158-1.376l0.317,0.906l-0.573,14.743h1.798l-0.555-14.743l0.312-0.906l12.146,1.376c0,0-1.851-3.92-1.135-5.245
			c0.519-0.964,4.059-2.363,4.059-2.363l15.335-6.409C1845.793,1883.03,1840.466,1881.05,1840.87,1880.071z"/>
	</g>
	<g>
		<g>
			<rect x="1129.917" y="1818.405" style="fill:#EE3041;" width="178.037" height="116.649"/>
			<path style="fill:#FFFFFF;" d="M1304.775,1821.584v110.291h-171.679v-110.291H1304.775 M1311.13,1815.228h-6.355h-171.679h-6.358
				v6.355v110.291v6.356h6.358h171.679h6.355v-6.356v-110.291V1815.228L1311.13,1815.228z"/>
		</g>
		<rect x="1172.409" y="1821.584" style="fill:#FFFFFF;" width="93.061" height="110.291"/>
		<path style="fill:#EE3041;" d="M1245.051,1880.071c0.502-1.235,5.637-9.549,5.637-9.549s-9.223,0.214-11.074,0.343
			c-1.272,0.09-0.273-5.737-0.273-5.737l-10.387,8.317c0,0-1.496,1.413-1.545,1.267c-0.044-0.161,0.365-2.504,0.365-2.504
			l2.577-18.229c0,0-4.857,3.883-5.583,2.976c-0.872-1.162-5.856-10.677-5.856-10.677s-4.96,8.843-5.847,10.677
			c-0.624,1.252-5.584-2.976-5.584-2.976l2.631,18.611c0,0,0.4,2.034,0.302,2.052c-0.127,0.036-1.5-1.196-1.5-1.196l-10.378-8.317
			c0,0,0.999,5.827-0.253,5.737c-1.851-0.129-11.084-0.343-11.084-0.343s5.135,8.314,5.627,9.549c0.41,0.979-4.93,2.959-4.93,2.959
			l15.707,6.536c0,0,3.011,1.055,3.479,1.891c0.716,1.361-0.972,5.591-0.972,5.591l12.159-1.376l0.316,0.906l-0.575,14.743h1.797
			l-0.55-14.743l0.307-0.906l12.149,1.376c0,0-1.854-3.92-1.133-5.245c0.516-0.964,4.053-2.363,4.053-2.363l15.337-6.409
			C1249.972,1883.03,1244.642,1881.05,1245.051,1880.071z"/>
	</g>
	<g>
		<g>
			<g>
				<g>
					<path style="fill:#EE3041;" d="M1660.96,1247.469c-3.123-1.198-4.575-4.251-3.206-6.938l5.759-11.15
						c1.335-2.56,4.955-3.759,8.034-2.65c3.113,1.145,4.519,4.195,3.153,6.865l-5.72,11.147
						C1667.658,1247.397,1664.026,1248.595,1660.96,1247.469z"/>
				</g>
				<g>
					<path style="fill:#EE3041;" d="M1616.297,1334.375c-3.111-1.125-4.556-4.178-3.196-6.848l11.186-21.771
						c1.364-2.653,4.95-3.776,8.073-2.653c3.07,1.13,4.468,4.251,3.114,6.904l-11.157,21.717
						C1623.016,1334.375,1619.386,1335.574,1616.297,1334.375z M1638.597,1290.958c-3.123-1.196-4.521-4.246-3.167-6.901
						l11.176-21.717c1.333-2.668,4.96-3.849,8.078-2.74c3.07,1.198,4.488,4.285,3.153,6.845l-11.177,21.809
						C1645.286,1290.904,1641.703,1292.1,1638.597,1290.958z"/>
				</g>
			</g>
			<g>
				<g>
					<path style="fill:#EE3041;" d="M1867.291,1413c-1.206-2.667,0.326-5.7,3.518-6.792l13.281-4.431
						c3.159-1.052,6.709,0.329,7.907,2.926c1.252,2.704-0.263,5.793-3.43,6.826l-13.32,4.448
						C1872.085,1416.995,1868.548,1415.67,1867.291,1413z"/>
				</g>
				<g>
					<path style="fill:#EE3041;" d="M1763.572,1447.609c-1.245-2.65,0.327-5.737,3.476-6.789l25.929-8.643
						c3.132-1.055,6.723,0.29,7.92,2.958c1.252,2.706-0.309,5.686-3.457,6.738l-25.914,8.643
						C1768.379,1451.587,1764.822,1450.262,1763.572,1447.609z M1815.433,1430.27c-1.245-2.651,0.31-5.703,3.474-6.719l25.949-8.68
						c3.113-1.089,6.694,0.237,7.947,2.979c1.208,2.651-0.341,5.7-3.459,6.772l-25.946,8.641
						C1820.227,1434.301,1816.676,1432.976,1815.433,1430.27z"/>
				</g>
			</g>
			<g>
				<g>
					<path style="fill:#EE3041;" d="M1183.295,1430.596c-1.361,2.668-4.948,3.851-8.066,2.668l-13.082-4.848
						c-3.113-1.14-4.521-4.246-3.167-6.843c1.379-2.653,4.994-3.852,8.078-2.743l13.087,4.938
						C1183.259,1424.876,1184.667,1428.016,1183.295,1430.596z"/>
				</g>
				<g>
					<path style="fill:#EE3041;" d="M1285.352,1468.71c-1.334,2.597-4.955,3.796-8.078,2.651l-25.505-9.552
						c-3.094-1.142-4.487-4.246-3.133-6.845c1.335-2.668,4.95-3.849,8.036-2.704l25.559,9.549
						C1285.299,1462.953,1286.707,1465.989,1285.352,1468.71z M1234.338,1449.645c-1.35,2.614-4.994,3.813-8.054,2.651l-25.53-9.479
						c-3.069-1.218-4.521-4.231-3.147-6.901c1.359-2.653,4.945-3.866,8.068-2.653l25.52,9.481
						C1234.274,1443.943,1235.699,1446.993,1234.338,1449.645z"/>
				</g>
			</g>
			<g>
				<g>
					<path style="fill:#EE3041;" d="M1377.605,1254.768c-3.148,0.982-6.697-0.343-7.941-2.994l-5.231-11.333
						c-1.206-2.667,0.363-5.739,3.476-6.718c3.157-1.072,6.738,0.183,7.956,2.923l5.218,11.349
						C1382.282,1250.666,1380.719,1253.716,1377.605,1254.768z"/>
				</g>
				<g>
					<path style="fill:#EE3041;" d="M1418.172,1343.145c-3.159,0.999-6.702-0.27-7.914-2.979l-10.163-22.058
						c-1.206-2.707,0.356-5.776,3.469-6.758c3.152-1.072,6.694,0.254,7.946,2.907l10.114,22.117
						C1422.876,1339.023,1421.342,1342.075,1418.172,1343.145z M1397.883,1298.911c-3.135,1.072-6.721-0.254-7.919-2.924
						l-10.175-22.1c-1.218-2.703,0.351-5.719,3.513-6.772c3.113-1.052,6.694,0.256,7.907,2.996l10.178,22.117
						C1402.574,1294.862,1401.02,1297.859,1397.883,1298.911z"/>
				</g>
			</g>
		</g>
		<g>
			<g>
				<g>
					<path style="fill:#EE3041;" d="M1529.614,1261.014c-2.073,0-3.788-1.415-3.788-3.196v-7.425c0-1.725,1.715-3.176,3.788-3.176
						c2.031,0,3.683,1.452,3.683,3.176v7.425C1533.297,1259.599,1531.645,1261.014,1529.614,1261.014z"/>
				</g>
				<path style="fill:#EE3041;" d="M1529.614,1268.261c-2.073,0-3.788,1.379-3.788,3.104v11.223v4.648v29.417
					c0,1.779,1.715,3.179,3.788,3.179c2.031,0,3.683-1.4,3.683-3.179v-29.417v-4.648v-11.223
					C1533.297,1269.64,1531.645,1268.261,1529.614,1268.261z"/>
			</g>
			<g>
				<g>
					<path style="fill:#EE3041;" d="M1763.193,1343.491c-1.484-1.272-1.484-3.267,0-4.504l6.146-5.264
						c1.452-1.272,3.81-1.272,5.301,0c1.442,1.272,1.442,3.23,0,4.502l-6.156,5.266
						C1767.005,1344.69,1764.617,1344.69,1763.193,1343.491z"/>
				</g>
				<path style="fill:#EE3041;" d="M1757.192,1348.538c-1.447-1.198-3.834-1.198-5.262,0l-9.32,7.954l-3.851,3.249l-24.434,20.865
					c-1.435,1.235-1.435,3.23,0,4.504c1.474,1.198,3.861,1.198,5.313,0l24.414-20.865l3.859-3.233l9.281-7.97
					C1758.678,1351.844,1758.678,1349.773,1757.192,1348.538z"/>
			</g>
			<g>
				<g>
					<path style="fill:#EE3041;" d="M1859.939,1542.488c0-1.725,1.662-3.196,3.742-3.196h8.721c2.07,0,3.732,1.471,3.732,3.196
						c0,1.798-1.661,3.179-3.732,3.179h-8.721C1861.601,1545.667,1859.939,1544.286,1859.939,1542.488z"/>
				</g>
				<path style="fill:#EE3041;" d="M1851.477,1542.488c0-1.725-1.662-3.196-3.742-3.196h-13.118h-5.454h-34.528
					c-2.061,0-3.752,1.471-3.752,3.196c0,1.798,1.691,3.179,3.752,3.179h34.528h5.454h13.118
					C1849.815,1545.667,1851.477,1544.286,1851.477,1542.488z"/>
			</g>
			<g>
				<g>
					<path style="fill:#EE3041;" d="M1199.234,1542.488c0,1.798-1.676,3.179-3.737,3.179h-8.736c-2.061,0-3.737-1.381-3.737-3.179
						c0-1.725,1.676-3.196,3.737-3.196h8.736C1197.558,1539.292,1199.234,1540.763,1199.234,1542.488z"/>
				</g>
				<path style="fill:#EE3041;" d="M1207.702,1542.488c0,1.798,1.659,3.179,3.737,3.179h13.13h5.447h34.528
					c2.1,0,3.732-1.381,3.732-3.179c0-1.725-1.632-3.196-3.732-3.196h-34.528h-5.447h-13.13
					C1209.361,1539.292,1207.702,1540.763,1207.702,1542.488z"/>
			</g>
			<g>
				<g>
					<path style="fill:#EE3041;" d="M1295.983,1343.491c-1.452,1.199-3.81,1.199-5.264,0l-6.199-5.266
						c-1.428-1.272-1.428-3.23,0-4.502c1.505-1.272,3.864-1.272,5.291,0l6.173,5.264
						C1297.465,1340.224,1297.465,1342.219,1295.983,1343.491z"/>
				</g>
				<path style="fill:#EE3041;" d="M1301.986,1348.538c-1.452,1.235-1.452,3.306,0,4.505l9.271,7.97l3.849,3.233l24.438,20.865
					c1.447,1.198,3.815,1.198,5.296,0c1.442-1.274,1.442-3.269,0-4.504l-24.424-20.865l-3.868-3.249l-9.269-7.954
					C1305.801,1347.34,1303.428,1347.34,1301.986,1348.538z"/>
			</g>
		</g>
	</g>
</g>
</svg>
