<?xml version="1.0" encoding="utf-8"?>
<!-- Generator: Adobe Illustrator 27.5.0, SVG Export Plug-In . SVG Version: 6.00 Build 0)  -->
<svg version="1.1" xmlns="http://www.w3.org/2000/svg" xmlns:xlink="http://www.w3.org/1999/xlink" x="0px" y="0px"
	 viewBox="0 0 800 800" style="enable-background:new 0 0 800 800;" xml:space="preserve">
<g id="_x31_47">
	<g>
		<rect style="fill:#7CCDF2;" width="800" height="800"/>
		<rect x="26" y="26" style="fill:#FFFFFF;" width="748" height="748"/>
		<g>
			<path style="fill:#16CDF2;" d="M194.055,581.637h3.069v-14.916h5.202l0.169-2.732h-13.643l-0.171,2.732h5.373V581.637z
				 M210.168,575.33c0.851,0.17,1.621,0.17,2.215,0.17c0.258,0,0.6,0,1.109,0l3.24,6.223l3.496-0.168l-3.922-6.908
				c1.962-1.023,2.984-2.643,2.984-4.945c0-3.836-2.559-5.713-6.99-5.713h-5.202v17.648h3.069V575.33z M212.213,566.631
				c2.644,0,4.009,1.023,4.009,2.984c0,2.219-1.621,3.326-4.009,3.326c-0.512,0-1.193-0.086-2.045-0.172v-6.139H212.213z
				 M229.267,575.074l2.644-8.443l2.643,8.443H229.267z M236.512,581.637h3.155l-5.712-17.73l-4.178,0.17l-5.628,17.561h3.155
				l1.191-3.836h6.824L236.512,581.637z M250.156,578.994l-4.691-15.088l-3.07,0.17l5.628,17.561h4.178l5.628-17.561l-3.07-0.17
				L250.156,578.994z M273.772,581.637l0.171-2.727h-8.272v-4.688h6.738l0.17-2.731h-6.908v-4.771h8.101l0.171-2.732h-11.338v17.648
				H273.772z M279.312,581.637h10.659l0.171-2.727h-7.758v-14.922h-3.072V581.637z M304.978,583.769l2.556-0.168V560.41l-2.556,0.17
				V583.769z M323.225,563.988v17.225c1.875,0.424,3.666,0.682,5.625,0.682c5.542,0,8.782-3.07,8.782-9.125
				c0-5.967-2.899-8.781-8.015-8.781H323.225z M329.534,566.721c3.325,0,4.943,2.043,4.943,6.135c0,4.092-1.959,6.31-5.372,6.31
				c-0.937,0-1.874-0.086-2.814-0.256v-12.19H329.534z M343.43,581.637h2.982v-17.648h-2.982V581.637z M352.381,580.871
				c1.706,0.684,3.495,1.023,5.287,1.023c4.095,0,6.393-1.793,6.393-5.117c0-5.711-8.778-5.199-8.949-7.758
				c-0.088-1.537,1.022-2.559,2.814-2.559c1.704,0,3.408,0.342,5.029,0.941l0.51-2.732c-1.621-0.594-3.324-0.934-5.198-0.934
				c-4.095,0-6.309,1.705-6.309,4.943c0,5.627,8.779,5.201,8.949,7.844c0.085,1.535-1.106,2.643-2.898,2.643
				c-1.704,0-3.41-0.342-5.029-0.938L352.381,580.871z M377.364,566.461c1.107,0,2.47,0.26,4.09,0.772l0.513-2.734
				c-1.536-0.51-3.154-0.762-4.771-0.762c-2.392,0-4.351,0.762-5.799,2.215c-1.451,1.361-2.218,3.664-2.218,6.818
				c0,3.156,0.767,5.459,2.218,6.906c1.448,1.451,3.407,2.219,5.799,2.219c1.617,0,3.235-0.258,4.771-0.767l-0.513-2.729
				c-1.62,0.512-3.066,0.768-4.09,0.768c-3.324,0-5.031-2.131-5.031-6.397C372.333,568.594,374.04,566.461,377.364,566.461
				L377.364,566.461z M390.324,572.769c0-4.43,1.703-6.309,4.857-6.309c3.156,0,4.86,1.879,4.86,6.309
				c0,4.266-1.62,6.397-4.86,6.397C391.942,579.166,390.324,577.035,390.324,572.769L390.324,572.769z M395.182,563.736
				c-5.368,0-8.012,3.066-8.012,9.033c0,6.055,2.644,9.125,8.012,9.125c5.373,0,8.014-3.07,8.014-9.125
				C403.195,566.803,400.555,563.736,395.182,563.736L395.182,563.736z M415.049,578.994l-4.689-15.088l-3.07,0.17l5.629,17.561
				h4.178l5.627-17.561l-3.07-0.17L415.049,578.994z M438.668,581.637l0.17-2.727h-8.271v-4.688h6.734l0.17-2.731h-6.904v-4.771
				h8.102l0.17-2.732h-11.256v17.648H438.668z M447.275,575.33c0.854,0.17,1.623,0.17,2.219,0.17c0.256,0,0.598,0,1.107,0
				l3.24,6.223l3.494-0.168l-3.922-6.908c1.963-1.023,2.898-2.643,2.898-4.945c0-3.836-2.471-5.713-6.904-5.713h-5.203v17.648h3.07
				V575.33z M449.236,566.631c2.73,0,4.092,1.023,4.092,2.984c0,2.219-1.617,3.326-4.006,3.326c-0.51,0-1.193-0.086-2.047-0.172
				v-6.139H449.236z M472.258,583.769l2.473-0.168V560.41l-2.473,0.17V583.769z M498.346,566.461c1.195,0,2.561,0.26,4.18,0.772
				l0.514-2.734c-1.623-0.51-3.24-0.762-4.863-0.762c-2.385,0-4.262,0.762-5.799,2.215c-1.445,1.361-2.129,3.664-2.129,6.818
				c0,3.156,0.684,5.459,2.129,6.906c1.537,1.451,3.414,2.219,5.799,2.219c1.623,0,3.24-0.258,4.863-0.767l-0.514-2.729
				c-1.705,0.512-3.068,0.768-4.18,0.768c-3.322,0-4.943-2.131-4.943-6.397C493.402,568.594,495.023,566.461,498.346,566.461
				L498.346,566.461z M512.332,575.074l2.643-8.443l2.643,8.443H512.332z M519.578,581.637h3.152l-5.711-17.73l-4.178,0.17
				l-5.627,17.561h3.154l1.197-3.836h6.818L519.578,581.637z M532.707,566.721c2.729,0,4.092,1.021,4.092,3.15
				c0,2.305-1.619,3.412-4.092,3.412c-0.512,0-1.191-0.086-2.133-0.172v-6.391H532.707z M530.574,575.84
				c0.941,0.086,1.707,0.17,2.305,0.17c2.133,0,3.836-0.51,5.117-1.531c1.361-1.111,1.959-2.559,1.959-4.522
				c0-4.006-2.557-5.969-6.99-5.969h-5.371v17.648h2.98V575.84z M549.162,581.637h2.984v-14.916h5.203l0.17-2.732h-13.642
				l-0.17,2.732h5.455V581.637z M562.207,563.988v12.022c0,4.008,2.559,5.885,6.736,5.885c4.264,0,6.822-1.877,6.822-5.885v-12.022
				h-2.984v11.766c0,2.219-1.281,3.412-3.838,3.412c-2.387,0-3.752-1.023-3.752-3.412v-11.766H562.207z M584.803,575.33
				c0.852,0.17,1.619,0.17,2.215,0.17c0.256,0,0.596,0,1.111,0l3.238,6.223l3.496-0.168l-3.924-6.908
				c1.963-1.023,2.984-2.643,2.984-4.945c0-3.836-2.557-5.713-6.99-5.713h-5.115v17.648h2.984V575.33z M586.848,566.631
				c2.642,0,4.006,1.023,4.006,2.984c0,2.219-1.617,3.326-4.006,3.326c-0.512,0-1.193-0.086-2.045-0.172v-6.139H586.848z
				 M611.148,581.637l0.17-2.727h-8.272v-4.688h6.734l0.17-2.731h-6.904v-4.771h8.102l0.17-2.732h-11.342v17.648H611.148z"/>
		</g>
		<g>
			<path style="fillRule:evenodd;clipRule:evenodd;fill:#8CD6F6;" d="M481.516,424.797c64.686,0,117.467-13.832,117.467-30.784
				c0-17.008-52.781-30.842-117.467-30.842c-64.744,0-117.525,13.834-117.525,30.842
				C363.99,410.965,416.772,424.797,481.516,424.797L481.516,424.797z"/>
			<path style="fillRule:evenodd;clipRule:evenodd;fill:#7CCDF2;" d="M470.402,420.09c54.199,0,98.477-11.621,98.477-25.851
				c0-14.174-44.277-25.795-98.477-25.795c-54.197,0-98.475,11.621-98.475,25.795C371.928,408.469,416.205,420.09,470.402,420.09
				L470.402,420.09z"/>
			<path style="fill:#B3B3B3;" d="M238.529,173.986c-0.964,0.567-2.154,0.228-2.721-0.68c-0.567-0.964-0.227-2.211,0.736-2.778
				l1.191-0.681l1.247-0.68l1.191-0.681l1.19-0.68l1.19-0.624l1.02-0.567c0.965-0.51,2.156-0.17,2.723,0.794
				c0.51,0.964,0.17,2.211-0.793,2.722l-1.021,0.566l-1.191,0.624l-1.19,0.681l-1.19,0.623l-1.19,0.681L238.529,173.986z
				 M615.027,320.878c-0.057,1.078-0.965,1.928-2.098,1.871c-1.078-0.057-1.928-1.021-1.871-2.098l0.057-1.418l0.057-1.02
				c0.057-1.135,1.02-1.984,2.098-1.928c1.078,0.057,1.984,0.963,1.928,2.098l-0.057,1.076L615.027,320.878z M614.801,298.144
				c0.057,1.078-0.738,2.041-1.814,2.154c-1.135,0.113-2.098-0.736-2.211-1.815v-0.396l-0.113-1.246l-0.113-1.248l-0.17-1.246
				l-0.172-1.191l-0.113-1.248l-0.17-1.189l-0.057-0.057c-0.17-1.078,0.625-2.098,1.701-2.268c1.078-0.17,2.098,0.566,2.267,1.643
				v0.057l0.17,1.305l0.17,1.248l0.172,1.246l0.17,1.305l0.113,1.248l0.113,1.303L614.801,298.144z M609.357,270.251
				c0.34,1.076-0.283,2.211-1.303,2.553c-1.078,0.34-2.211-0.285-2.553-1.305l-0.057-0.285l-0.34-1.076l-0.34-1.076l-0.397-1.021
				l-0.34-1.076l-0.396-1.021l-0.398-1.076l-0.34-0.795c-0.396-1.02,0.113-2.211,1.135-2.607c1.02-0.396,2.211,0.113,2.607,1.133
				l0.34,0.852l0.396,1.078l0.396,1.076l0.399,1.135l0.396,1.076l0.34,1.076l0.34,1.135L609.357,270.251z M597.623,244.399
				c0.567,0.908,0.283,2.154-0.625,2.721c-0.963,0.625-2.211,0.34-2.777-0.623l-0.51-0.85l-0.566-0.908l-0.568-0.85l-0.566-0.852
				l-0.566-0.906l-0.625-0.852l-0.566-0.85l-0.34-0.51c-0.68-0.906-0.453-2.154,0.453-2.777c0.908-0.625,2.154-0.455,2.779,0.453
				l0.397,0.566l0.623,0.852l0.566,0.906l0.625,0.906l0.566,0.906l0.623,0.908l0.566,0.908L597.623,244.399z M579.99,222.12
				c0.795,0.793,0.795,2.039,0,2.834c-0.736,0.793-2.041,0.793-2.834,0l-0.057-0.057l-0.68-0.68l-0.738-0.738l-0.736-0.68
				l-0.738-0.68l-0.736-0.682l-0.736-0.68l-0.738-0.623l-0.566-0.512c-0.85-0.736-0.963-1.984-0.227-2.834
				c0.738-0.85,1.984-0.908,2.836-0.226l0.623,0.566l0.736,0.682l0.793,0.68l0.738,0.68l0.736,0.738l0.795,0.68l0.736,0.736
				l0.736,0.736L579.99,222.12z M557.768,204.487c0.906,0.625,1.189,1.814,0.623,2.777c-0.623,0.908-1.814,1.191-2.777,0.625
				l-0.283-0.172l-0.852-0.508l-0.793-0.512l-0.85-0.51l-0.852-0.51l-0.85-0.512l-0.852-0.453l-0.85-0.51l-0.625-0.34
				c-0.963-0.51-1.303-1.758-0.793-2.721c0.566-0.965,1.758-1.305,2.723-0.795l0.68,0.396l0.85,0.453l0.852,0.512l0.906,0.51
				l0.85,0.51l0.852,0.512l0.85,0.566l0.908,0.51L557.768,204.487z M532.369,191.845c1.02,0.396,1.588,1.531,1.19,2.553
				c-0.396,1.076-1.586,1.586-2.607,1.189l-0.736-0.283l-0.908-0.34l-0.85-0.34l-0.906-0.285l-0.908-0.34l-0.906-0.283l-0.908-0.34
				l-0.85-0.283l-0.453-0.172c-1.078-0.34-1.644-1.416-1.305-2.492c0.34-1.021,1.475-1.645,2.494-1.305l0.51,0.17l0.908,0.283
				l0.906,0.34l0.908,0.285l0.906,0.34l0.965,0.34l0.906,0.34l0.908,0.34L532.369,191.845z M505.1,184.191
				c1.076,0.17,1.814,1.247,1.645,2.324c-0.227,1.077-1.248,1.814-2.324,1.588h-0.115l-0.85-0.171l-0.906-0.113l-0.908-0.17
				l-0.85-0.113l-0.85-0.17l-0.908-0.113l-0.85-0.113l-0.908-0.113l-0.68-0.113c-1.078-0.114-1.871-1.135-1.758-2.211
				c0.17-1.078,1.135-1.871,2.268-1.758l0.68,0.113l0.908,0.113l0.906,0.113l0.908,0.17l0.906,0.113l0.908,0.17l0.906,0.114
				l0.906,0.17l0.908,0.17H505.1z M476.81,181.98c1.133-0.057,2.041,0.794,2.098,1.928c0,1.077-0.852,1.983-1.928,2.041
				l-0.682,0.057h-0.793l-0.793,0.057h-0.738l-0.793,0.057l-0.795,0.057l-0.793,0.057l-0.736,0.057l-0.795,0.113l-0.736,0.057h-0.17
				c-1.135,0.113-2.098-0.681-2.211-1.757c-0.17-1.078,0.623-2.098,1.758-2.212h0.227l0.793-0.113l0.795-0.057l0.793-0.057
				l0.793-0.057l0.795-0.057l0.85-0.057l0.795-0.057h0.793l0.85-0.057H476.81z M448.746,186.97c1.022-0.397,2.154,0.113,2.551,1.134
				c0.398,1.02-0.113,2.212-1.133,2.607l-0.566,0.172l-0.568,0.227l-0.566,0.227l-0.623,0.283l-0.566,0.227l-0.512,0.227
				l-0.566,0.283l-0.51,0.227c-0.795,0.398-1.814,0.227-2.438-0.51l-0.738-0.85l-0.736-0.793l-0.396-0.512
				c-0.736-0.793-0.682-2.098,0.113-2.834c0.85-0.737,2.098-0.681,2.834,0.17l0.453,0.51l0.512,0.567l0.396-0.17l0.623-0.228
				l0.623-0.283l0.625-0.227l0.623-0.283L448.746,186.97z M429.697,173.25c0.852,0.68,0.965,1.927,0.227,2.777
				c-0.68,0.851-1.928,0.964-2.777,0.284l-0.283-0.227l-0.965-0.794l-1.076-0.85l-1.021-0.794l-1.02-0.794l-1.078-0.793
				l-0.793-0.567c-0.906-0.681-1.076-1.928-0.453-2.835c0.68-0.85,1.928-1.077,2.834-0.396l0.795,0.566l1.076,0.851l1.078,0.794
				l1.076,0.851l1.078,0.851l1.02,0.85L429.697,173.25z M406.113,157.433c0.965,0.51,1.361,1.757,0.852,2.721
				c-0.512,0.964-1.758,1.361-2.723,0.851l-0.283-0.17l-1.303-0.681l-1.305-0.68l-1.305-0.681l-1.359-0.624l-1.305-0.623
				l-0.17-0.113c-1.021-0.454-1.475-1.645-1.021-2.608c0.453-1.021,1.645-1.474,2.666-1.021l0.17,0.113l1.418,0.624l1.359,0.681
				l1.361,0.68l1.359,0.681l1.305,0.737L406.113,157.433z M379.922,146.605c1.078,0.34,1.645,1.417,1.359,2.494
				c-0.34,1.077-1.416,1.644-2.494,1.36l-0.17-0.057l-0.793-0.227l-0.738-0.227l-0.793-0.228l-0.793-0.227l-0.738-0.227l-0.793-0.17
				l-0.793-0.227l-0.795-0.228l-0.793-0.17l-0.396-0.113c-1.078-0.227-1.758-1.304-1.475-2.381c0.227-1.077,1.303-1.758,2.381-1.474
				l0.453,0.057l0.793,0.226l0.795,0.227l0.85,0.17l0.795,0.227l0.793,0.227l0.795,0.228l0.793,0.227l0.793,0.227l0.795,0.227
				L379.922,146.605z M352.141,141.105c1.078,0.113,1.871,1.077,1.758,2.211c-0.055,1.077-1.076,1.871-2.152,1.814l-0.172-0.057
				l-0.85-0.057l-0.85-0.057l-0.908-0.113l-0.85-0.057l-0.906-0.057l-0.908-0.057l-0.85-0.057l-0.908-0.057h-0.68
				c-1.078-0.057-1.928-0.964-1.928-2.098c0.057-1.078,1.02-1.928,2.098-1.928l0.68,0.057l0.906,0.057l0.908,0.057l0.963,0.057
				l0.908,0.057l0.908,0.057l0.906,0.057l0.85,0.113l0.908,0.057H352.141z M323.797,140.991c1.076-0.057,2.096,0.737,2.152,1.814
				c0.113,1.134-0.68,2.098-1.813,2.211h-0.113l-0.965,0.057l-0.965,0.113l-0.963,0.113l-0.963,0.113l-0.965,0.113l-1.02,0.113
				l-0.965,0.114l-0.906,0.113c-1.135,0.17-2.098-0.624-2.269-1.701c-0.168-1.077,0.625-2.098,1.703-2.268l0.963-0.113l1.021-0.113
				l0.963-0.113l1.021-0.171l1.02-0.057l0.965-0.113l1.02-0.113l0.963-0.057L323.797,140.991z M295.902,145.754
				c1.078-0.284,2.154,0.396,2.438,1.474c0.285,1.077-0.396,2.154-1.473,2.438l0,0l-1.022,0.227l-1.076,0.284l-1.021,0.283
				l-1.076,0.283l-1.078,0.284l-1.02,0.34l-1.078,0.283l-0.227,0.113c-1.078,0.284-2.154-0.283-2.494-1.36
				c-0.342-1.077,0.283-2.154,1.361-2.494l0.227-0.057l1.076-0.341l1.076-0.283l1.078-0.34l1.078-0.283l1.076-0.284l1.076-0.283
				L295.902,145.754L295.902,145.754z M269.086,154.598c1.022-0.453,2.156,0.057,2.609,1.077c0.396,1.02-0.113,2.211-1.135,2.607
				l-0.736,0.341l-1.135,0.453l-1.133,0.454l-1.135,0.453l-1.133,0.51l-1.135,0.511l-0.908,0.397
				c-0.963,0.396-2.152-0.058-2.605-1.021c-0.455-1.02,0-2.211,1.02-2.664l0.906-0.396l1.135-0.511l1.189-0.51l1.135-0.454
				l1.135-0.51l1.133-0.454L269.086,154.598z"/>
			<path style="fill:#526373;" d="M538.207,347.751c-1.586-0.625-3.06-1.645-3.967-2.893l-1.021-1.416
				c-1.531-2.098-4.818-3.629-7.369-3.402l-16.385,1.361c-2.551,0.17-5.67,2.211-6.916,4.479l-1.021,1.814
				c-0.736,1.303-2.041,2.494-3.514,3.344l-8.447,0.738l-4.025,0.283l-17.576,1.473l-5.895,0.512
				c-3.232,0.227-5.67,3.061-5.387,6.35l3.912,46.942c0.227,3.23,3.061,5.613,6.35,5.383l82.092-6.801
				c3.287-0.285,5.668-3.117,5.385-6.351l-3.855-46.941c-0.283-3.232-3.117-5.67-6.35-5.387L538.207,347.751z"/>
			<path style="fill:#526373;" d="M474.201,350.075c-0.17-2.211-2.098-3.855-4.252-3.629l-4.139,0.34
				c-2.211,0.17-3.853,2.098-3.627,4.252l0.113,1.531l12.018-1.02L474.201,350.075L474.201,350.075z"/>
			<path style="fill:#FEFEFE;" d="M483.387,362.831c-18.709,14.91-6.633,44.899,16.951,42.915
				c23.584-1.926,30.613-33.448,9.693-45.126C501.584,355.915,490.926,356.765,483.387,362.831L483.387,362.831z"/>
			<path style="fill:#D5D5D7;" d="M487.014,367.423c-14.115,11.281-4.988,33.959,12.869,32.484
				c17.803-1.473,23.074-25.342,7.314-34.129C500.791,362.208,492.74,362.888,487.014,367.423L487.014,367.423z"/>
			<path style="fill:#5F5F5F;" d="M489.34,370.314c-11.283,9.016-4.025,27.1,10.203,25.91c14.23-1.191,18.482-20.184,5.84-27.213
				C500.338,366.175,493.875,366.686,489.34,370.314L489.34,370.314z"/>
			<path style="fill:#434443;" d="M490.359,371.675c-9.922,7.938-3.516,23.867,9.07,22.848c12.529-1.021,16.271-17.803,5.16-24.039
				C500.111,367.989,494.385,368.444,490.359,371.675L490.359,371.675z"/>
			<path style="fill:#22201E;" d="M493.932,376.153c-5.5,4.422-1.984,13.266,4.988,12.699c6.973-0.623,9.07-9.922,2.891-13.379
				C499.316,374.112,496.143,374.339,493.932,376.153L493.932,376.153z"/>
			<path style="fill:#BABCBE;" d="M493.703,379.726c-2.947-1.645-1.982-6.066,1.305-6.293c3.346-0.283,4.988,3.912,2.381,5.953
				C496.369,380.235,494.838,380.349,493.703,379.726L493.703,379.726z"/>
			<path style="fill:#FEFEFE;" d="M502.094,388.456c-1.416-0.793-0.906-2.947,0.682-3.063c1.645-0.17,2.438,1.928,1.189,2.949
				C503.455,388.739,502.719,388.796,502.094,388.456L502.094,388.456z"/>
			<polygon style="fill:#FFF7AD;" points="540.137,301.999 535.203,354.44 584.356,335.618 536.508,357.558 577.383,390.724 
				534.467,360.224 526.19,412.266 531.121,359.825 481.912,378.647 529.818,356.708 488.885,323.542 531.859,354.044 			"/>
			<path style="fill:#F4CB74;" d="M183.367,196.835c-2.607,1.984-4.478,4.25-5.046,6.121c-0.17,0.625-0.227,1.135-0.057,1.531
				c0,0.057,0,0.17,0.113,0.34c0.057,0.172,0.17,0.227,0.17,0.227c0.284,0.398,0.737,0.625,1.305,0.793l0.057,0.059
				c1.87,0.51,4.818,0.17,7.88-0.965c2.494-0.906,5.159-2.438,8.844-4.592c0.624-0.34,1.305-0.736,1.984-1.135l4.989,3.232h-0.057
				c-0.283,0.17-0.511,0.455-0.567,0.795c-0.113,0.281-0.113,0.68,0.057,0.963l0.681,1.248c0.17,0.34,0.454,0.566,0.794,0.623
				c0.34,0.113,0.681,0.057,0.964-0.113l1.928-1.021l0.68,0.453c-0.227,0.172-0.397,0.398-0.453,0.682
				c-0.113,0.34-0.057,0.68,0.113,0.963l0.681,1.305c0.17,0.283,0.396,0.51,0.736,0.623c0.341,0.057,0.681,0.057,0.964-0.113
				l1.758-0.963l5.046,3.287c0.113,0.113,0.283,0.17,0.396,0.229c0.396,0.113,0.794,0.055,1.134-0.115l2.552-1.416
				c0.283-0.113,0.51-0.398,0.566-0.682c0.113-0.396,0-0.85-0.283-1.189l-9.751-9.979c-0.058-0.057-0.171-0.227-0.228-0.283
				l-2.324-4.309c4.082-2.381,7.824-4.707,10.771-6.804c0.284-0.227,0.567-0.396,0.794-0.623l8.787,3.515
				c0.058,0,0.114,0.057,0.171,0.057c0.396,0.113,0.85,0.057,1.247-0.113l1.19-0.68c0.283-0.113,0.453-0.397,0.566-0.681l0,0l0,0
				v-0.057c0.113-0.398,0-0.851-0.34-1.134c-5.386-4.819-8.334-10.318-9.468-17.405c-0.057-0.453-0.34-0.851-0.794-0.964l0,0
				c-0.283-0.113-0.623-0.057-0.906,0.057l-1.191,0.681c-0.396,0.227-0.68,0.566-0.793,0.964c0,0.057-0.057,0.113-0.057,0.113
				l-1.814,9.298c-0.34,0.113-0.624,0.227-0.964,0.396c-3.401,1.304-7.37,3.175-11.565,5.272l-2.381-4.309
				c0-0.057-0.113-0.283-0.113-0.34l-3.062-13.55c-0.057-0.454-0.397-0.794-0.794-0.907c-0.34-0.113-0.623-0.057-0.907,0.057
				l-2.551,1.417c-0.341,0.171-0.624,0.511-0.737,0.907c0,0.113-0.057,0.227-0.057,0.397l0.057,6.009l-1.758,0.964
				c-0.34,0.17-0.566,0.454-0.623,0.737c-0.113,0.34-0.057,0.68,0.113,1.021l0.681,1.247c0.17,0.283,0.453,0.51,0.736,0.624
				c0.284,0.057,0.567,0.057,0.851-0.058v0.851l-1.928,1.077c-0.283,0.113-0.51,0.398-0.623,0.737
				c-0.057,0.34-0.057,0.681,0.113,0.964l0.68,1.304c0.171,0.284,0.454,0.511,0.794,0.624c0.284,0.057,0.681,0.057,0.964-0.113l0,0
				v5.896c-0.68,0.396-1.36,0.736-2.041,1.076C188.243,193.886,185.521,195.304,183.367,196.835L183.367,196.835z"/>
			<path style="fill:#5BD6F6;" d="M613.043,330.517c5.385,0,9.75-4.365,9.75-9.752c0-5.387-4.365-9.752-9.75-9.752
				c-5.33,0-9.752,4.365-9.752,9.752C603.291,326.151,607.713,330.517,613.043,330.517L613.043,330.517z"/>
			<path style="fill:#C95BC3;" d="M444.777,200.519c5.387,0,9.752-4.365,9.752-9.75c0-5.33-4.365-9.752-9.752-9.752
				c-5.385,0-9.75,4.422-9.75,9.752C435.027,196.153,439.393,200.519,444.777,200.519L444.777,200.519z"/>
		</g>
		<g>
			<path style="fillRule:evenodd;clipRule:evenodd;fill:#D4D4D4;" d="M190.533,239.02
				c105.336-68.543,219.637,36.816,408.299,92.283c-107.603-31.636-202.62,28.815-221.499,106.031L190.533,239.02z"/>
		</g>
		<g id="CANADA_1_">
			<g>
				<g>
					<defs>
						<path id="SVGID_1_" d="M190.535,239.02c152.004-90.481,334.805-42.731,408.293,92.283l0,0
							c-101.035-39.513-201.199,8.237-223.725,92.285C313.58,362.065,252.057,300.541,190.535,239.02z"/>
					</defs>
					<clipPath id="SVGID_00000042736148357430818800000014041485423141857408_">
						<use xlink:href="#SVGID_1_"  style="overflow:visible;"/>
					</clipPath>
					<g style="clipPath:url(#SVGID_00000042736148357430818800000014041485423141857408_);">
						<defs>
							<path id="SVGID_00000148636375295656174360000009309759493807721394_" d="M190.535,239.02
								c152.004-90.481,334.805-42.731,408.293,92.283l0,0c-101.035-39.513-201.199,8.237-223.725,92.285
								C313.58,362.065,252.057,300.541,190.535,239.02z"/>
						</defs>
						<clipPath id="SVGID_00000067942584356908129380000013198782886739239830_">
							<use xlink:href="#SVGID_00000148636375295656174360000009309759493807721394_"  style="overflow:visible;"/>
						</clipPath>
					</g>
				</g>
			</g>
			<g>
				<g>
					<defs>
						<path id="SVGID_00000023967361433686425730000011277881039443060107_" d="M190.535,239.02
							c152.004-90.481,334.805-42.731,408.293,92.283l0,0c-101.035-39.513-201.199,8.237-223.725,92.285
							C313.58,362.065,252.057,300.541,190.535,239.02z"/>
					</defs>
					<clipPath id="SVGID_00000160186409337772879430000017037327432539706813_">
						<use xlink:href="#SVGID_00000023967361433686425730000011277881039443060107_"  style="overflow:visible;"/>
					</clipPath>
					<path style="clipPath:url(#SVGID_00000160186409337772879430000017037327432539706813_);fill:#EA0020;" d="M375.103,423.588
						c5.299-19.773,14.895-37.537,27.785-52.627c-33.93-57.837-67.859-115.675-101.791-173.512
						c-37.344,6.649-74.805,20.284-110.563,41.57C252.057,300.542,313.58,362.065,375.103,423.588z"/>
					<path style="clipPath:url(#SVGID_00000160186409337772879430000017037327432539706813_);fill:#EA0020;" d="M528.672,317.241
						c22.672,0.301,46.393,4.768,70.156,14.061l0,0c-17.289-31.76-40.623-58.69-68.184-80.131
						C529.988,273.194,529.328,295.218,528.672,317.241z"/>
					<path style="clipPath:url(#SVGID_00000160186409337772879430000017037327432539706813_);fill:#FFFFFF;" d="M402.889,370.961
						c29.021-33.968,74.746-54.397,125.783-53.72c0.656-22.023,1.313-44.047,1.973-66.069
						c-62.041-48.26-145.49-68.689-229.547-53.723C335.029,255.286,368.959,313.124,402.889,370.961z"/>
					<g style="clipPath:url(#SVGID_00000160186409337772879430000017037327432539706813_);">
						<defs>
							<path id="SVGID_00000158707030629417185580000002632925468665881775_" d="M190.535,239.02
								c152.004-90.481,334.805-42.731,408.293,92.283l0,0c-101.035-39.513-201.199,8.237-223.725,92.285
								C313.58,362.065,252.057,300.541,190.535,239.02z"/>
						</defs>
						<clipPath id="SVGID_00000048496134221525552770000002639245060218989993_">
							<use xlink:href="#SVGID_00000158707030629417185580000002632925468665881775_"  style="overflow:visible;"/>
						</clipPath>
						<path style="clipPath:url(#SVGID_00000048496134221525552770000002639245060218989993_);fill:#EA0020;" d="M428.449,217.523
							c-3.537,4.127-6.84,8.663-9.875,13.587c-1.059,1.597-3.879,1.264-7,0.126c-3.682-1.267-7.414-2.507-11.199-3.716
							c5.514,8.692,10.764,17.217,15.76,25.563c2.887,4.529-1.605,4.779-4.523,2.919c-6.697-3.885-13.691-7.831-21.006-11.809
							c-0.012,2.348,0.006,4.717,0.051,7.11c0.059,0.943-0.881,2.058-2.951,2.114c-7.207-0.108-14.494,0.01-21.854,0.37
							c4.299,4.779,8.467,9.515,12.514,14.201c2.658,3.143,4.086,4.314,1.617,6.017c-1.77,1.512-3.504,3.073-5.197,4.683
							c14.146,4.26,27.234,8.695,39.434,13.061c1.435,0.488,2.525,1.738,2.59,3.121c0.08,2.673,0.193,5.375,0.344,8.107
							c8.926-4.128,17.307-7.138,26.916-9.664c0.879-0.149,2.492,0.215,2.695,1.001c1.609,7.922,3.273,15.902,4.994,23.935
							c1.395-0.461,2.799-0.905,4.211-1.332c-2.127-7.626-4.289-15.284-6.473-22.972c-0.205-0.774,0.971-1.579,1.859-1.678
							c10.156-0.357,19.277-0.17,29.434,0.601c-1.096-1.741-2.205-3.511-3.338-5.306c-0.557-0.935-0.111-1.941,1.004-2.439
							c9.361-4.399,19.404-7.006,29.705-7.679c-2.188-1.12-4.387-2.234-6.609-3.342c-2.932-1.299-2.188-1.882-1.256-3.451
							c1.453-2.326,2.955-4.518,4.494-6.57c-6.342-1.868-12.742-3.357-19.17-4.471c-1.889-0.379-3.236-1.331-3.596-2.01
							c-1.023-1.738-2.061-3.497-3.113-5.277c-4.906,1.547-9.68,3.582-14.271,6.088c-1.922,1.238-6.371,0.684-5.705-2.947
							c0.91-6.629,2.004-12.974,3.266-19.027c-3.076,0.005-6.141,0.117-9.184,0.336c-2.563,0.242-5.242-0.119-7.103-1.954
							C440.375,229.223,434.565,223.448,428.449,217.523z"/>
					</g>
				</g>
			</g>
			<g>
				<g>
					<defs>
						<path id="SVGID_00000099628009342404343940000014449215076932473505_" d="M190.535,239.02
							c152.004-90.481,334.805-42.731,408.293,92.283l0,0c-101.035-39.513-201.199,8.237-223.725,92.285
							C313.58,362.065,252.057,300.541,190.535,239.02z"/>
					</defs>
					<clipPath id="SVGID_00000024002752973643105740000004835299265404554655_">
						<use xlink:href="#SVGID_00000099628009342404343940000014449215076932473505_"  style="overflow:visible;"/>
					</clipPath>
					<g style="clipPath:url(#SVGID_00000024002752973643105740000004835299265404554655_);">
						<defs>
							<path id="SVGID_00000021112419804718774890000001235429653707510199_" d="M190.535,239.02
								c152.004-90.481,334.805-42.731,408.293,92.283l0,0c-101.035-39.513-201.199,8.237-223.725,92.285
								C313.58,362.065,252.057,300.541,190.535,239.02z"/>
						</defs>
						<clipPath id="SVGID_00000050662895374645403700000014341060025974421680_">
							<use xlink:href="#SVGID_00000021112419804718774890000001235429653707510199_"  style="overflow:visible;"/>
						</clipPath>
					</g>
				</g>
			</g>
		</g>
		<g>
			<path style="fill:#526373;" d="M274.732,521.078l0.088,0.262c0.117,6.914-1.988,12.32-6.316,16.236
				c-4.33,3.906-10.309,5.871-17.92,5.871c-7.772,0-14.041-2.494-18.813-7.49c-4.775-5.008-7.158-11.455-7.158-19.373v-12.846
				c0-7.891,2.33-14.348,6.979-19.363c4.654-5.035,10.762-7.547,18.324-7.547c7.883,0,14.053,1.936,18.5,5.777
				c4.445,3.861,6.615,9.281,6.49,16.281l-0.086,0.262h-12.629c0-4.135-1-7.227-3.006-9.271c-2-2.033-5.088-3.041-9.269-3.041
				c-3.883,0-6.92,1.57-9.102,4.686c-2.174,3.123-3.266,7.18-3.266,12.123v12.939c0,4.979,1.152,9.047,3.447,12.182
				c2.299,3.146,5.498,4.727,9.588,4.727c3.883,0,6.781-1.029,8.689-3.045c1.918-2.033,2.871-5.17,2.871-9.369H274.732z"/>
			<path style="fill:#526373;" d="M317.861,528.547h-20.984l-4.354,13.969h-13.572l21.84-64.744h13.293l21.75,64.744h-13.563
				L317.861,528.547z M300.08,518.363h14.629l-7.162-22.812h-0.266L300.08,518.363z"/>
			<path style="fill:#526373;" d="M394.4,542.516h-12.988l-26.1-43.672l-0.268,0.043v43.629h-12.982v-64.744h12.982l26.1,43.619
				l0.268-0.051v-43.568H394.4V542.516z"/>
			<path style="fill:#526373;" d="M440.871,528.547h-20.99l-4.355,13.969h-13.568l21.838-64.744h13.301l21.738,64.744h-13.563
				L440.871,528.547z M423.08,518.363h14.627l-7.148-22.812h-0.273L423.08,518.363z"/>
			<path style="fill:#526373;" d="M465.068,542.516v-64.744h22.588c7.918,0,14.439,2.519,19.563,7.58
				c5.127,5.049,7.685,11.533,7.685,19.445v10.725c0,7.943-2.559,14.43-7.685,19.449c-5.123,5.018-11.645,7.545-19.563,7.545
				H465.068z M478.055,487.762v44.787h9.602c4.262,0,7.709-1.6,10.309-4.772c2.619-3.207,3.922-7.273,3.922-12.256v-10.803
				c0-4.959-1.303-9.023-3.922-12.203c-2.6-3.16-6.047-4.754-10.309-4.754H478.055z"/>
			<path style="fill:#526373;" d="M558.139,528.547h-20.99l-4.359,13.969h-13.559l21.832-64.744h13.299l21.758,64.744h-13.566
				L558.139,528.547z M540.359,518.363h14.637l-7.168-22.812h-0.273L540.359,518.363z"/>
		</g>
	</g>
</g>
<g id="Layer_1">
</g>
</svg>
