<svg width="654" height="494" viewBox="0 0 654 494" fill="none" xmlns="http://www.w3.org/2000/svg">
<path d="M262.5 358H74V411" stroke="#CCCCCC" strokeWidth="2"/>
<path d="M420 193.5H584" stroke="#CCCCCC" strokeWidth="2"/>
<path d="M67 0V193.5H255" stroke="#CCCCCC" strokeWidth="2"/>
<path d="M264 166.5C264 159.873 269.373 154.5 276 154.5H402C408.627 154.5 414 159.873 414 166.5V214.5C414 221.127 408.627 226.5 402 226.5H276C269.373 226.5 264 221.127 264 214.5V166.5Z" fill="black"/>
<path d="M308.792 181.632L314.936 175.152C315.56 174.512 316.048 173.96 316.4 173.496C316.752 173.016 317 172.576 317.144 172.176C317.304 171.776 317.384 171.36 317.384 170.928C317.384 170.08 317.112 169.416 316.568 168.936C316.024 168.456 315.32 168.216 314.456 168.216C313.608 168.216 312.864 168.424 312.224 168.84C311.584 169.24 311.016 169.864 310.52 170.712L308.936 169.392C309.592 168.304 310.384 167.488 311.312 166.944C312.24 166.384 313.312 166.104 314.528 166.104C315.552 166.104 316.44 166.304 317.192 166.704C317.96 167.104 318.552 167.664 318.968 168.384C319.384 169.104 319.592 169.944 319.592 170.904C319.592 171.592 319.504 172.208 319.328 172.752C319.168 173.296 318.872 173.856 318.44 174.432C318.024 174.992 317.44 175.664 316.688 176.448L311.72 181.56L308.792 181.632ZM308.792 183V181.632L310.712 180.984H319.976V183H308.792ZM328.904 183.24C327.656 183.24 326.512 182.888 325.472 182.184C324.448 181.48 323.632 180.488 323.024 179.208C322.416 177.912 322.112 176.392 322.112 174.648C322.112 172.904 322.408 171.392 323 170.112C323.608 168.832 324.424 167.848 325.448 167.16C326.472 166.456 327.6 166.104 328.832 166.104C330.096 166.104 331.24 166.456 332.264 167.16C333.288 167.848 334.096 168.832 334.688 170.112C335.296 171.392 335.6 172.912 335.6 174.672C335.6 176.416 335.296 177.936 334.688 179.232C334.096 180.512 333.288 181.504 332.264 182.208C331.256 182.896 330.136 183.24 328.904 183.24ZM328.856 181.104C329.736 181.104 330.504 180.864 331.16 180.384C331.832 179.888 332.36 179.16 332.744 178.2C333.128 177.24 333.32 176.056 333.32 174.648C333.32 173.24 333.128 172.064 332.744 171.12C332.36 170.16 331.832 169.44 331.16 168.96C330.488 168.464 329.712 168.216 328.832 168.216C327.968 168.216 327.2 168.464 326.528 168.96C325.856 169.44 325.328 170.16 324.944 171.12C324.576 172.064 324.392 173.24 324.392 174.648C324.392 176.056 324.576 177.24 324.944 178.2C325.328 179.16 325.856 179.888 326.528 180.384C327.2 180.864 327.976 181.104 328.856 181.104ZM337.479 181.632L343.624 175.152C344.248 174.512 344.736 173.96 345.088 173.496C345.44 173.016 345.688 172.576 345.832 172.176C345.992 171.776 346.072 171.36 346.072 170.928C346.072 170.08 345.8 169.416 345.256 168.936C344.712 168.456 344.008 168.216 343.144 168.216C342.296 168.216 341.552 168.424 340.912 168.84C340.272 169.24 339.704 169.864 339.208 170.712L337.624 169.392C338.28 168.304 339.072 167.488 340 166.944C340.928 166.384 342 166.104 343.216 166.104C344.24 166.104 345.128 166.304 345.88 166.704C346.648 167.104 347.24 167.664 347.656 168.384C348.072 169.104 348.28 169.944 348.28 170.904C348.28 171.592 348.192 172.208 348.016 172.752C347.856 173.296 347.56 173.856 347.128 174.432C346.712 174.992 346.128 175.664 345.376 176.448L340.408 181.56L337.479 181.632ZM337.479 183V181.632L339.4 180.984H348.664V183H337.479ZM357.592 183.24C356.344 183.24 355.2 182.888 354.16 182.184C353.136 181.48 352.32 180.488 351.712 179.208C351.104 177.912 350.8 176.392 350.8 174.648C350.8 172.904 351.096 171.392 351.688 170.112C352.296 168.832 353.112 167.848 354.136 167.16C355.16 166.456 356.288 166.104 357.52 166.104C358.784 166.104 359.928 166.456 360.952 167.16C361.976 167.848 362.784 168.832 363.376 170.112C363.984 171.392 364.288 172.912 364.288 174.672C364.288 176.416 363.984 177.936 363.376 179.232C362.784 180.512 361.976 181.504 360.952 182.208C359.944 182.896 358.824 183.24 357.592 183.24ZM357.544 181.104C358.424 181.104 359.192 180.864 359.848 180.384C360.52 179.888 361.048 179.16 361.432 178.2C361.816 177.24 362.008 176.056 362.008 174.648C362.008 173.24 361.816 172.064 361.432 171.12C361.048 170.16 360.52 169.44 359.848 168.96C359.176 168.464 358.4 168.216 357.52 168.216C356.656 168.216 355.888 168.464 355.216 168.96C354.544 169.44 354.016 170.16 353.632 171.12C353.264 172.064 353.08 173.24 353.08 174.648C353.08 176.056 353.264 177.24 353.632 178.2C354.016 179.16 354.544 179.888 355.216 180.384C355.888 180.864 356.664 181.104 357.544 181.104Z" fill="white"/>
<path d="M296.512 207.16C295.659 207.16 294.923 207 294.304 206.68C293.685 206.349 293.152 205.896 292.704 205.32L293.296 204.744C293.712 205.309 294.181 205.725 294.704 205.992C295.237 206.248 295.851 206.376 296.544 206.376C297.291 206.376 297.899 206.2 298.368 205.848C298.837 205.496 299.072 205.005 299.072 204.376C299.072 203.896 298.971 203.507 298.768 203.208C298.565 202.909 298.293 202.664 297.952 202.472C297.621 202.28 297.253 202.109 296.848 201.96C296.453 201.811 296.053 201.661 295.648 201.512C295.253 201.352 294.891 201.16 294.56 200.936C294.229 200.701 293.957 200.403 293.744 200.04C293.541 199.677 293.44 199.219 293.44 198.664C293.44 198.109 293.573 197.629 293.84 197.224C294.117 196.808 294.491 196.488 294.96 196.264C295.44 196.04 295.989 195.928 296.608 195.928C297.312 195.928 297.941 196.067 298.496 196.344C299.051 196.611 299.515 196.989 299.888 197.48L299.296 198.056C298.944 197.619 298.549 197.288 298.112 197.064C297.685 196.829 297.179 196.712 296.592 196.712C295.909 196.712 295.355 196.883 294.928 197.224C294.512 197.555 294.304 198.019 294.304 198.616C294.304 199.064 294.405 199.427 294.608 199.704C294.811 199.981 295.077 200.216 295.408 200.408C295.749 200.589 296.117 200.749 296.512 200.888C296.917 201.027 297.317 201.176 297.712 201.336C298.107 201.496 298.469 201.699 298.8 201.944C299.141 202.179 299.413 202.483 299.616 202.856C299.819 203.229 299.92 203.704 299.92 204.28C299.92 205.208 299.611 205.923 298.992 206.424C298.384 206.915 297.557 207.16 296.512 207.16ZM303.212 207V196.408H304.028V207H303.212ZM301.292 200.28V199.56H305.948V200.28H301.292ZM310.605 207.16C309.891 207.16 309.245 206.989 308.669 206.648C308.104 206.307 307.656 205.848 307.325 205.272C306.995 204.685 306.829 204.024 306.829 203.288C306.829 202.563 306.995 201.907 307.325 201.32C307.656 200.733 308.104 200.269 308.669 199.928C309.235 199.576 309.869 199.4 310.573 199.4C311.149 199.4 311.661 199.512 312.109 199.736C312.568 199.949 312.941 200.253 313.229 200.648C313.528 201.043 313.72 201.512 313.805 202.056V204.488C313.709 205.032 313.512 205.507 313.213 205.912C312.925 206.307 312.557 206.616 312.109 206.84C311.672 207.053 311.171 207.16 310.605 207.16ZM310.717 206.392C311.571 206.392 312.248 206.109 312.749 205.544C313.261 204.968 313.517 204.216 313.517 203.288C313.517 202.659 313.4 202.115 313.165 201.656C312.941 201.187 312.616 200.824 312.189 200.568C311.763 200.301 311.267 200.168 310.701 200.168C310.115 200.168 309.592 200.301 309.133 200.568C308.685 200.835 308.328 201.203 308.061 201.672C307.805 202.141 307.677 202.675 307.677 203.272C307.677 203.88 307.805 204.419 308.061 204.888C308.328 205.357 308.691 205.725 309.149 205.992C309.608 206.259 310.131 206.392 310.717 206.392ZM313.485 207V205L313.661 203.176L313.485 201.368V199.56H314.301V207H313.485ZM316.7 207V199.56H317.516V207H316.7ZM317.516 202.552L317.116 202.408C317.116 201.459 317.356 200.723 317.836 200.2C318.316 199.667 318.945 199.4 319.724 199.4C320.087 199.4 320.423 199.464 320.732 199.592C321.052 199.72 321.345 199.928 321.612 200.216L321.068 200.792C320.865 200.568 320.647 200.408 320.412 200.312C320.177 200.216 319.9 200.168 319.58 200.168C318.972 200.168 318.476 200.376 318.092 200.792C317.708 201.197 317.516 201.784 317.516 202.552ZM323.993 207V196.408H324.809V207H323.993ZM322.073 200.28V199.56H326.729V200.28H322.073ZM333.689 207.16C333.092 207.16 332.569 207.048 332.121 206.824C331.684 206.589 331.3 206.269 330.969 205.864L331.545 205.304C331.812 205.645 332.116 205.907 332.457 206.088C332.809 206.259 333.215 206.344 333.673 206.344C334.068 206.344 334.441 206.259 334.793 206.088C335.145 205.907 335.433 205.624 335.657 205.24C335.881 204.856 335.993 204.36 335.993 203.752V196.088H336.841V203.784C336.841 204.509 336.692 205.123 336.393 205.624C336.105 206.125 335.721 206.509 335.241 206.776C334.761 207.032 334.244 207.16 333.689 207.16ZM342.795 207.16C342.069 207.16 341.413 206.989 340.827 206.648C340.251 206.296 339.792 205.827 339.451 205.24C339.109 204.643 338.939 203.981 338.939 203.256C338.939 202.531 339.109 201.88 339.451 201.304C339.792 200.717 340.251 200.253 340.827 199.912C341.413 199.571 342.069 199.4 342.795 199.4C343.509 199.4 344.155 199.571 344.731 199.912C345.317 200.253 345.781 200.717 346.123 201.304C346.464 201.88 346.635 202.531 346.635 203.256C346.635 203.992 346.464 204.653 346.123 205.24C345.781 205.827 345.317 206.296 344.731 206.648C344.155 206.989 343.509 207.16 342.795 207.16ZM342.795 206.392C343.36 206.392 343.867 206.253 344.315 205.976C344.773 205.699 345.131 205.325 345.387 204.856C345.653 204.376 345.787 203.837 345.787 203.24C345.787 202.653 345.653 202.131 345.387 201.672C345.131 201.213 344.773 200.851 344.315 200.584C343.867 200.307 343.36 200.168 342.795 200.168C342.219 200.168 341.701 200.307 341.243 200.584C340.795 200.851 340.437 201.213 340.171 201.672C339.904 202.131 339.771 202.659 339.771 203.256C339.771 203.853 339.904 204.387 340.171 204.856C340.437 205.325 340.795 205.699 341.243 205.976C341.701 206.253 342.219 206.392 342.795 206.392ZM351.471 207.16C350.874 207.16 350.341 207.021 349.871 206.744C349.402 206.467 349.034 206.083 348.767 205.592C348.511 205.101 348.383 204.536 348.383 203.896V199.56H349.199V203.864C349.199 204.365 349.29 204.808 349.471 205.192C349.663 205.565 349.93 205.859 350.271 206.072C350.613 206.285 351.013 206.392 351.471 206.392C352.154 206.392 352.698 206.163 353.103 205.704C353.519 205.235 353.727 204.621 353.727 203.864V199.56H354.543V203.896C354.543 204.536 354.41 205.101 354.143 205.592C353.887 206.083 353.525 206.467 353.055 206.744C352.597 207.021 352.069 207.16 351.471 207.16ZM356.763 207V199.56H357.579V207H356.763ZM357.579 202.552L357.179 202.408C357.179 201.459 357.419 200.723 357.899 200.2C358.379 199.667 359.008 199.4 359.786 199.4C360.149 199.4 360.485 199.464 360.795 199.592C361.115 199.72 361.408 199.928 361.675 200.216L361.131 200.792C360.928 200.568 360.709 200.408 360.475 200.312C360.24 200.216 359.963 200.168 359.643 200.168C359.035 200.168 358.539 200.376 358.155 200.792C357.771 201.197 357.579 201.784 357.579 202.552ZM368.706 207V202.584C368.706 201.859 368.493 201.272 368.066 200.824C367.64 200.376 367.074 200.152 366.37 200.152C365.89 200.152 365.464 200.259 365.09 200.472C364.728 200.675 364.44 200.957 364.226 201.32C364.024 201.683 363.922 202.104 363.922 202.584L363.506 202.344C363.506 201.779 363.64 201.277 363.906 200.84C364.173 200.392 364.536 200.04 364.994 199.784C365.453 199.528 365.976 199.4 366.562 199.4C367.149 199.4 367.661 199.539 368.098 199.816C368.546 200.083 368.893 200.451 369.138 200.92C369.384 201.389 369.506 201.912 369.506 202.488V207H368.706ZM363.106 207V199.56H363.922V207H363.106ZM375.187 207.16C374.451 207.16 373.784 206.989 373.187 206.648C372.6 206.307 372.136 205.843 371.795 205.256C371.453 204.669 371.283 204.008 371.283 203.272C371.283 202.536 371.448 201.88 371.779 201.304C372.109 200.717 372.563 200.253 373.139 199.912C373.725 199.571 374.376 199.4 375.091 199.4C375.773 199.4 376.371 199.555 376.883 199.864C377.405 200.163 377.811 200.579 378.099 201.112C378.397 201.645 378.547 202.259 378.547 202.952C378.547 203.016 378.541 203.101 378.531 203.208C378.52 203.304 378.504 203.427 378.483 203.576H371.859V202.872H378.019L377.747 203.096C377.768 202.509 377.672 201.997 377.459 201.56C377.245 201.112 376.936 200.765 376.531 200.52C376.125 200.275 375.64 200.152 375.075 200.152C374.488 200.152 373.971 200.285 373.523 200.552C373.075 200.808 372.723 201.165 372.467 201.624C372.221 202.083 372.099 202.616 372.099 203.224C372.099 203.864 372.227 204.424 372.483 204.904C372.749 205.373 373.117 205.741 373.587 206.008C374.056 206.264 374.605 206.392 375.235 206.392C375.715 206.392 376.157 206.307 376.563 206.136C376.979 205.955 377.325 205.688 377.603 205.336L378.147 205.864C377.805 206.269 377.373 206.589 376.851 206.824C376.339 207.048 375.784 207.16 375.187 207.16ZM382.822 207.016L379.51 199.56H380.406L383.27 206.168H382.854L385.846 199.56H386.742L383.238 207.016H382.822ZM380.886 210.152L382.806 206.216L383.238 207.016L381.766 210.152H380.886Z" fill="white"/>
<path d="M266.5 334C266.5 327.373 271.873 322 278.5 322H404.5C411.127 322 416.5 327.373 416.5 334V382C416.5 388.627 411.127 394 404.5 394H278.5C271.873 394 266.5 388.627 266.5 382V334Z" fill="black"/>
<path d="M292.66 348.86L297.78 343.46C298.3 342.927 298.707 342.467 299 342.08C299.293 341.68 299.5 341.313 299.62 340.98C299.753 340.647 299.82 340.3 299.82 339.94C299.82 339.233 299.593 338.68 299.14 338.28C298.687 337.88 298.1 337.68 297.38 337.68C296.673 337.68 296.053 337.853 295.52 338.2C294.987 338.533 294.513 339.053 294.1 339.76L292.78 338.66C293.327 337.753 293.987 337.073 294.76 336.62C295.533 336.153 296.427 335.92 297.44 335.92C298.293 335.92 299.033 336.087 299.66 336.42C300.3 336.753 300.793 337.22 301.14 337.82C301.487 338.42 301.66 339.12 301.66 339.92C301.66 340.493 301.587 341.007 301.44 341.46C301.307 341.913 301.06 342.38 300.7 342.86C300.353 343.327 299.867 343.887 299.24 344.54L295.1 348.8L292.66 348.86ZM292.66 350V348.86L294.26 348.32H301.98V350H292.66ZM309.42 350.2C308.38 350.2 307.427 349.907 306.56 349.32C305.707 348.733 305.027 347.907 304.52 346.84C304.014 345.76 303.76 344.493 303.76 343.04C303.76 341.587 304.007 340.327 304.5 339.26C305.007 338.193 305.687 337.373 306.54 336.8C307.394 336.213 308.334 335.92 309.36 335.92C310.414 335.92 311.367 336.213 312.22 336.8C313.074 337.373 313.747 338.193 314.24 339.26C314.747 340.327 315 341.593 315 343.06C315 344.513 314.747 345.78 314.24 346.86C313.747 347.927 313.074 348.753 312.22 349.34C311.38 349.913 310.447 350.2 309.42 350.2ZM309.38 348.42C310.114 348.42 310.754 348.22 311.3 347.82C311.86 347.407 312.3 346.8 312.62 346C312.94 345.2 313.1 344.213 313.1 343.04C313.1 341.867 312.94 340.887 312.62 340.1C312.3 339.3 311.86 338.7 311.3 338.3C310.74 337.887 310.094 337.68 309.36 337.68C308.64 337.68 308 337.887 307.44 338.3C306.88 338.7 306.44 339.3 306.12 340.1C305.814 340.887 305.66 341.867 305.66 343.04C305.66 344.213 305.814 345.2 306.12 346C306.44 346.8 306.88 347.407 307.44 347.82C308 348.22 308.647 348.42 309.38 348.42ZM316.566 348.86L321.686 343.46C322.206 342.927 322.613 342.467 322.906 342.08C323.2 341.68 323.406 341.313 323.526 340.98C323.66 340.647 323.726 340.3 323.726 339.94C323.726 339.233 323.5 338.68 323.046 338.28C322.593 337.88 322.006 337.68 321.286 337.68C320.58 337.68 319.96 337.853 319.426 338.2C318.893 338.533 318.42 339.053 318.006 339.76L316.686 338.66C317.233 337.753 317.893 337.073 318.666 336.62C319.44 336.153 320.333 335.92 321.346 335.92C322.2 335.92 322.94 336.087 323.566 336.42C324.206 336.753 324.7 337.22 325.046 337.82C325.393 338.42 325.566 339.12 325.566 339.92C325.566 340.493 325.493 341.007 325.346 341.46C325.213 341.913 324.966 342.38 324.606 342.86C324.26 343.327 323.773 343.887 323.146 344.54L319.006 348.8L316.566 348.86ZM316.566 350V348.86L318.166 348.32H325.886V350H316.566ZM331.667 350.2C330.76 350.2 329.933 350.033 329.187 349.7C328.453 349.353 327.833 348.853 327.327 348.2L328.607 346.92C328.913 347.387 329.333 347.76 329.867 348.04C330.4 348.307 330.993 348.44 331.647 348.44C332.26 348.44 332.787 348.327 333.227 348.1C333.68 347.86 334.033 347.527 334.287 347.1C334.553 346.673 334.687 346.18 334.687 345.62C334.687 345.047 334.553 344.553 334.287 344.14C334.033 343.713 333.673 343.387 333.207 343.16C332.74 342.933 332.187 342.82 331.547 342.82C331.307 342.82 331.067 342.84 330.827 342.88C330.587 342.907 330.353 342.953 330.127 343.02L330.927 341.94C331.18 341.82 331.453 341.727 331.747 341.66C332.04 341.593 332.333 341.56 332.627 341.56C333.373 341.56 334.04 341.733 334.627 342.08C335.227 342.427 335.7 342.913 336.047 343.54C336.407 344.167 336.587 344.893 336.587 345.72C336.587 346.6 336.373 347.38 335.947 348.06C335.533 348.727 334.96 349.253 334.227 349.64C333.493 350.013 332.64 350.2 331.667 350.2ZM330.127 343.02V341.88L334.187 337.26L336.427 337.24L332.247 341.98L330.127 343.02ZM327.987 337.8V336.12H336.427V337.24L334.787 337.8H327.987ZM337.768 350.8L343.328 335.34H345.008L339.468 350.8H337.768ZM345.941 348.86L351.061 343.46C351.581 342.927 351.988 342.467 352.281 342.08C352.575 341.68 352.781 341.313 352.901 340.98C353.035 340.647 353.101 340.3 353.101 339.94C353.101 339.233 352.875 338.68 352.421 338.28C351.968 337.88 351.381 337.68 350.661 337.68C349.955 337.68 349.335 337.853 348.801 338.2C348.268 338.533 347.795 339.053 347.381 339.76L346.061 338.66C346.608 337.753 347.268 337.073 348.041 336.62C348.815 336.153 349.708 335.92 350.721 335.92C351.575 335.92 352.315 336.087 352.941 336.42C353.581 336.753 354.075 337.22 354.421 337.82C354.768 338.42 354.941 339.12 354.941 339.92C354.941 340.493 354.868 341.007 354.721 341.46C354.588 341.913 354.341 342.38 353.981 342.86C353.635 343.327 353.148 343.887 352.521 344.54L348.381 348.8L345.941 348.86ZM345.941 350V348.86L347.541 348.32H355.261V350H345.941ZM362.702 350.2C361.662 350.2 360.708 349.907 359.842 349.32C358.988 348.733 358.308 347.907 357.802 346.84C357.295 345.76 357.042 344.493 357.042 343.04C357.042 341.587 357.288 340.327 357.782 339.26C358.288 338.193 358.968 337.373 359.822 336.8C360.675 336.213 361.615 335.92 362.642 335.92C363.695 335.92 364.648 336.213 365.502 336.8C366.355 337.373 367.028 338.193 367.522 339.26C368.028 340.327 368.282 341.593 368.282 343.06C368.282 344.513 368.028 345.78 367.522 346.86C367.028 347.927 366.355 348.753 365.502 349.34C364.662 349.913 363.728 350.2 362.702 350.2ZM362.662 348.42C363.395 348.42 364.035 348.22 364.582 347.82C365.142 347.407 365.582 346.8 365.902 346C366.222 345.2 366.382 344.213 366.382 343.04C366.382 341.867 366.222 340.887 365.902 340.1C365.582 339.3 365.142 338.7 364.582 338.3C364.022 337.887 363.375 337.68 362.642 337.68C361.922 337.68 361.282 337.887 360.722 338.3C360.162 338.7 359.722 339.3 359.402 340.1C359.095 340.887 358.942 341.867 358.942 343.04C358.942 344.213 359.095 345.2 359.402 346C359.722 346.8 360.162 347.407 360.722 347.82C361.282 348.22 361.928 348.42 362.662 348.42ZM369.847 348.86L374.968 343.46C375.488 342.927 375.894 342.467 376.188 342.08C376.481 341.68 376.688 341.313 376.808 340.98C376.941 340.647 377.008 340.3 377.008 339.94C377.008 339.233 376.781 338.68 376.328 338.28C375.874 337.88 375.288 337.68 374.568 337.68C373.861 337.68 373.241 337.853 372.708 338.2C372.174 338.533 371.701 339.053 371.288 339.76L369.968 338.66C370.514 337.753 371.174 337.073 371.948 336.62C372.721 336.153 373.614 335.92 374.628 335.92C375.481 335.92 376.221 336.087 376.848 336.42C377.488 336.753 377.981 337.22 378.328 337.82C378.674 338.42 378.848 339.12 378.848 339.92C378.848 340.493 378.774 341.007 378.628 341.46C378.494 341.913 378.248 342.38 377.888 342.86C377.541 343.327 377.054 343.887 376.428 344.54L372.288 348.8L369.847 348.86ZM369.847 350V348.86L371.448 348.32H379.168V350H369.847ZM380.668 345.22L385.728 336.12H387.848L382.688 345.22H380.668ZM380.668 346.38V345.22L381.468 344.7H391.308V346.38H380.668ZM387.448 350V340.82H389.308V350H387.448Z" fill="white"/>
<path d="M311.696 367L308.63 357.452H309.386L312.102 366.118H311.836L314.538 357.452H315.14L317.856 366.118H317.576L320.306 357.452H321.062L317.996 367H317.422L314.72 358.348H314.958L312.27 367H311.696ZM324.568 367.14C323.934 367.14 323.36 366.991 322.846 366.692C322.342 366.384 321.941 365.973 321.642 365.46C321.344 364.937 321.194 364.359 321.194 363.724C321.194 363.089 321.344 362.52 321.642 362.016C321.941 361.503 322.342 361.097 322.846 360.798C323.36 360.499 323.934 360.35 324.568 360.35C325.194 360.35 325.758 360.499 326.262 360.798C326.776 361.097 327.182 361.503 327.48 362.016C327.779 362.52 327.928 363.089 327.928 363.724C327.928 364.368 327.779 364.947 327.48 365.46C327.182 365.973 326.776 366.384 326.262 366.692C325.758 366.991 325.194 367.14 324.568 367.14ZM324.568 366.468C325.063 366.468 325.506 366.347 325.898 366.104C326.3 365.861 326.612 365.535 326.836 365.124C327.07 364.704 327.186 364.233 327.186 363.71C327.186 363.197 327.07 362.739 326.836 362.338C326.612 361.937 326.3 361.619 325.898 361.386C325.506 361.143 325.063 361.022 324.568 361.022C324.064 361.022 323.612 361.143 323.21 361.386C322.818 361.619 322.506 361.937 322.272 362.338C322.039 362.739 321.922 363.201 321.922 363.724C321.922 364.247 322.039 364.713 322.272 365.124C322.506 365.535 322.818 365.861 323.21 366.104C323.612 366.347 324.064 366.468 324.568 366.468ZM329.613 367V360.49H330.327V367H329.613ZM330.327 363.108L329.977 362.982C329.977 362.151 330.187 361.507 330.607 361.05C331.027 360.583 331.577 360.35 332.258 360.35C332.576 360.35 332.87 360.406 333.141 360.518C333.421 360.63 333.677 360.812 333.911 361.064L333.435 361.568C333.257 361.372 333.066 361.232 332.861 361.148C332.655 361.064 332.413 361.022 332.133 361.022C331.601 361.022 331.167 361.204 330.831 361.568C330.495 361.923 330.327 362.436 330.327 363.108ZM339.323 367L335.697 363.654L339.253 360.49H340.163L336.383 363.836L336.397 363.43L340.289 367H339.323ZM335.081 367V357.172H335.795V367H335.081ZM343.958 367L347.85 357.452H348.438L352.316 367H351.504L347.99 358.208H348.284L344.742 367H343.958ZM345.652 364.186V363.528H350.622V364.186H345.652ZM355.908 367.14C355.553 367.14 355.217 367.093 354.9 367C354.592 366.897 354.307 366.757 354.046 366.58C353.794 366.403 353.57 366.197 353.374 365.964L353.85 365.488C354.111 365.833 354.415 366.09 354.76 366.258C355.115 366.417 355.502 366.496 355.922 366.496C356.407 366.496 356.79 366.398 357.07 366.202C357.35 366.006 357.49 365.731 357.49 365.376C357.49 365.059 357.401 364.811 357.224 364.634C357.047 364.447 356.813 364.303 356.524 364.2C356.244 364.097 355.945 363.999 355.628 363.906C355.32 363.813 355.021 363.701 354.732 363.57C354.452 363.439 354.223 363.257 354.046 363.024C353.869 362.791 353.78 362.478 353.78 362.086C353.78 361.741 353.869 361.437 354.046 361.176C354.223 360.915 354.471 360.714 354.788 360.574C355.115 360.425 355.497 360.35 355.936 360.35C356.421 360.35 356.855 360.434 357.238 360.602C357.63 360.77 357.943 361.017 358.176 361.344L357.714 361.82C357.527 361.559 357.275 361.358 356.958 361.218C356.641 361.069 356.286 360.994 355.894 360.994C355.427 360.994 355.073 361.092 354.83 361.288C354.587 361.484 354.466 361.736 354.466 362.044C354.466 362.333 354.555 362.562 354.732 362.73C354.909 362.898 355.138 363.029 355.418 363.122C355.707 363.215 356.006 363.309 356.314 363.402C356.631 363.486 356.93 363.598 357.21 363.738C357.499 363.878 357.733 364.069 357.91 364.312C358.087 364.555 358.176 364.886 358.176 365.306C358.176 365.866 357.971 366.314 357.56 366.65C357.149 366.977 356.599 367.14 355.908 367.14ZM309.302 385V375.452H310.044V385H309.302ZM309.778 380.576V379.904H315.014V380.576H309.778ZM309.778 376.124V375.452H315.252V376.124H309.778ZM316.993 385V375.172H317.707V385H316.993ZM322.806 385.14C322.162 385.14 321.578 384.991 321.056 384.692C320.542 384.393 320.136 383.987 319.838 383.474C319.539 382.961 319.39 382.382 319.39 381.738C319.39 381.094 319.534 380.52 319.824 380.016C320.113 379.503 320.51 379.097 321.014 378.798C321.527 378.499 322.096 378.35 322.722 378.35C323.319 378.35 323.842 378.485 324.29 378.756C324.747 379.017 325.102 379.381 325.354 379.848C325.615 380.315 325.746 380.851 325.746 381.458C325.746 381.514 325.741 381.589 325.732 381.682C325.722 381.766 325.708 381.873 325.69 382.004H319.894V381.388H325.284L325.046 381.584C325.064 381.071 324.98 380.623 324.794 380.24C324.607 379.848 324.336 379.545 323.982 379.33C323.627 379.115 323.202 379.008 322.708 379.008C322.194 379.008 321.742 379.125 321.35 379.358C320.958 379.582 320.65 379.895 320.426 380.296C320.211 380.697 320.104 381.164 320.104 381.696C320.104 382.256 320.216 382.746 320.44 383.166C320.673 383.577 320.995 383.899 321.406 384.132C321.816 384.356 322.297 384.468 322.848 384.468C323.268 384.468 323.655 384.393 324.01 384.244C324.374 384.085 324.677 383.852 324.92 383.544L325.396 384.006C325.097 384.361 324.719 384.641 324.262 384.846C323.814 385.042 323.328 385.14 322.806 385.14ZM327.37 385V378.49H328.084V385H327.37ZM328.084 381.108L327.734 380.982C327.734 380.151 327.944 379.507 328.364 379.05C328.784 378.583 329.335 378.35 330.016 378.35C330.334 378.35 330.628 378.406 330.898 378.518C331.178 378.63 331.435 378.812 331.668 379.064L331.192 379.568C331.015 379.372 330.824 379.232 330.618 379.148C330.413 379.064 330.17 379.022 329.89 379.022C329.358 379.022 328.924 379.204 328.588 379.568C328.252 379.923 328.084 380.436 328.084 381.108ZM335.477 385.14C334.852 385.14 334.287 384.991 333.783 384.692C333.288 384.393 332.896 383.992 332.607 383.488C332.318 382.975 332.173 382.396 332.173 381.752C332.173 381.117 332.318 380.543 332.607 380.03C332.896 379.517 333.288 379.111 333.783 378.812C334.278 378.504 334.833 378.35 335.449 378.35C335.953 378.35 336.401 378.448 336.793 378.644C337.194 378.831 337.521 379.097 337.773 379.442C338.034 379.787 338.202 380.198 338.277 380.674V382.802C338.193 383.278 338.02 383.693 337.759 384.048C337.507 384.393 337.185 384.664 336.793 384.86C336.41 385.047 335.972 385.14 335.477 385.14ZM335.575 384.468C336.322 384.468 336.914 384.221 337.353 383.726C337.801 383.222 338.025 382.564 338.025 381.752C338.025 381.201 337.922 380.725 337.717 380.324C337.521 379.913 337.236 379.596 336.863 379.372C336.49 379.139 336.056 379.022 335.561 379.022C335.048 379.022 334.59 379.139 334.189 379.372C333.797 379.605 333.484 379.927 333.251 380.338C333.027 380.749 332.915 381.215 332.915 381.738C332.915 382.27 333.027 382.741 333.251 383.152C333.484 383.563 333.802 383.885 334.203 384.118C334.604 384.351 335.062 384.468 335.575 384.468ZM337.997 385V383.25L338.151 381.654L337.997 380.072V378.49H338.711V385H337.997ZM345.71 385V381.136C345.71 380.501 345.523 379.988 345.15 379.596C344.776 379.204 344.282 379.008 343.666 379.008C343.246 379.008 342.872 379.101 342.546 379.288C342.228 379.465 341.976 379.713 341.79 380.03C341.612 380.347 341.524 380.716 341.524 381.136L341.16 380.926C341.16 380.431 341.276 379.993 341.51 379.61C341.743 379.218 342.06 378.91 342.462 378.686C342.863 378.462 343.32 378.35 343.834 378.35C344.347 378.35 344.795 378.471 345.178 378.714C345.57 378.947 345.873 379.269 346.088 379.68C346.302 380.091 346.41 380.548 346.41 381.052V385H345.71ZM340.81 385V378.49H341.524V385H340.81ZM351.338 385.14C350.703 385.14 350.129 384.991 349.616 384.692C349.112 384.384 348.711 383.973 348.412 383.46C348.113 382.937 347.964 382.359 347.964 381.724C347.964 381.089 348.113 380.52 348.412 380.016C348.711 379.503 349.112 379.097 349.616 378.798C350.129 378.499 350.703 378.35 351.338 378.35C351.814 378.35 352.262 378.439 352.682 378.616C353.102 378.793 353.461 379.045 353.76 379.372L353.284 379.848C353.041 379.587 352.752 379.386 352.416 379.246C352.089 379.097 351.73 379.022 351.338 379.022C350.834 379.022 350.381 379.143 349.98 379.386C349.588 379.619 349.275 379.937 349.042 380.338C348.809 380.739 348.692 381.201 348.692 381.724C348.692 382.247 348.809 382.713 349.042 383.124C349.275 383.535 349.588 383.861 349.98 384.104C350.381 384.347 350.834 384.468 351.338 384.468C351.73 384.468 352.094 384.398 352.43 384.258C352.775 384.109 353.069 383.899 353.312 383.628L353.788 384.104C353.48 384.431 353.111 384.687 352.682 384.874C352.262 385.051 351.814 385.14 351.338 385.14ZM358.161 385.14C357.517 385.14 356.934 384.991 356.411 384.692C355.898 384.393 355.492 383.987 355.193 383.474C354.895 382.961 354.745 382.382 354.745 381.738C354.745 381.094 354.89 380.52 355.179 380.016C355.469 379.503 355.865 379.097 356.369 378.798C356.883 378.499 357.452 378.35 358.077 378.35C358.675 378.35 359.197 378.485 359.645 378.756C360.103 379.017 360.457 379.381 360.709 379.848C360.971 380.315 361.101 380.851 361.101 381.458C361.101 381.514 361.097 381.589 361.087 381.682C361.078 381.766 361.064 381.873 361.045 382.004H355.249V381.388H360.639L360.401 381.584C360.42 381.071 360.336 380.623 360.149 380.24C359.963 379.848 359.692 379.545 359.337 379.33C358.983 379.115 358.558 379.008 358.063 379.008C357.55 379.008 357.097 379.125 356.705 379.358C356.313 379.582 356.005 379.895 355.781 380.296C355.567 380.697 355.459 381.164 355.459 381.696C355.459 382.256 355.571 382.746 355.795 383.166C356.029 383.577 356.351 383.899 356.761 384.132C357.172 384.356 357.653 384.468 358.203 384.468C358.623 384.468 359.011 384.393 359.365 384.244C359.729 384.085 360.033 383.852 360.275 383.544L360.751 384.006C360.453 384.361 360.075 384.641 359.617 384.846C359.169 385.042 358.684 385.14 358.161 385.14Z" fill="white"/>
<path d="M13.5 434C13.5 427.373 18.8726 422 25.5 422H151.5C158.127 422 163.5 427.373 163.5 434V482C163.5 488.627 158.127 494 151.5 494H25.5C18.8726 494 13.5 488.627 13.5 482V434Z" fill="black"/>
<path d="M30.66 451.86L35.78 446.46C36.3 445.927 36.7067 445.467 37 445.08C37.2933 444.68 37.5 444.313 37.62 443.98C37.7533 443.647 37.82 443.3 37.82 442.94C37.82 442.233 37.5933 441.68 37.14 441.28C36.6867 440.88 36.1 440.68 35.38 440.68C34.6733 440.68 34.0533 440.853 33.52 441.2C32.9867 441.533 32.5133 442.053 32.1 442.76L30.78 441.66C31.3267 440.753 31.9867 440.073 32.76 439.62C33.5333 439.153 34.4267 438.92 35.44 438.92C36.2933 438.92 37.0333 439.087 37.66 439.42C38.3 439.753 38.7933 440.22 39.14 440.82C39.4867 441.42 39.66 442.12 39.66 442.92C39.66 443.493 39.5867 444.007 39.44 444.46C39.3067 444.913 39.06 445.38 38.7 445.86C38.3533 446.327 37.8667 446.887 37.24 447.54L33.1 451.8L30.66 451.86ZM30.66 453V451.86L32.26 451.32H39.98V453H30.66ZM47.4203 453.2C46.3803 453.2 45.427 452.907 44.5603 452.32C43.707 451.733 43.027 450.907 42.5203 449.84C42.0136 448.76 41.7603 447.493 41.7603 446.04C41.7603 444.587 42.007 443.327 42.5003 442.26C43.007 441.193 43.687 440.373 44.5403 439.8C45.3936 439.213 46.3336 438.92 47.3603 438.92C48.4136 438.92 49.367 439.213 50.2203 439.8C51.0736 440.373 51.747 441.193 52.2403 442.26C52.747 443.327 53.0003 444.593 53.0003 446.06C53.0003 447.513 52.747 448.78 52.2403 449.86C51.747 450.927 51.0736 451.753 50.2203 452.34C49.3803 452.913 48.447 453.2 47.4203 453.2ZM47.3803 451.42C48.1136 451.42 48.7536 451.22 49.3003 450.82C49.8603 450.407 50.3003 449.8 50.6203 449C50.9403 448.2 51.1003 447.213 51.1003 446.04C51.1003 444.867 50.9403 443.887 50.6203 443.1C50.3003 442.3 49.8603 441.7 49.3003 441.3C48.7403 440.887 48.0936 440.68 47.3603 440.68C46.6403 440.68 46.0003 440.887 45.4403 441.3C44.8803 441.7 44.4403 442.3 44.1203 443.1C43.8136 443.887 43.6603 444.867 43.6603 446.04C43.6603 447.213 43.8136 448.2 44.1203 449C44.4403 449.8 44.8803 450.407 45.4403 450.82C46.0003 451.22 46.647 451.42 47.3803 451.42ZM54.5662 451.86L59.6863 446.46C60.2063 445.927 60.6129 445.467 60.9063 445.08C61.1996 444.68 61.4063 444.313 61.5263 443.98C61.6596 443.647 61.7263 443.3 61.7263 442.94C61.7263 442.233 61.4996 441.68 61.0463 441.28C60.5929 440.88 60.0063 440.68 59.2863 440.68C58.5796 440.68 57.9596 440.853 57.4263 441.2C56.8929 441.533 56.4196 442.053 56.0063 442.76L54.6863 441.66C55.2329 440.753 55.8929 440.073 56.6663 439.62C57.4396 439.153 58.3329 438.92 59.3463 438.92C60.1996 438.92 60.9396 439.087 61.5663 439.42C62.2063 439.753 62.6996 440.22 63.0463 440.82C63.3929 441.42 63.5663 442.12 63.5663 442.92C63.5663 443.493 63.4929 444.007 63.3463 444.46C63.2129 444.913 62.9663 445.38 62.6063 445.86C62.2596 446.327 61.7729 446.887 61.1463 447.54L57.0063 451.8L54.5662 451.86ZM54.5662 453V451.86L56.1663 451.32H63.8863V453H54.5662ZM65.3866 448.22L70.4466 439.12H72.5666L67.4066 448.22H65.3866ZM65.3866 449.38V448.22L66.1866 447.7H76.0266V449.38H65.3866ZM72.1666 453V443.82H74.0266V453H72.1666ZM76.9597 453.8L82.5197 438.34H84.1997L78.6597 453.8H76.9597ZM87.6461 447.6V445.96H91.4261C91.9461 445.96 92.4061 445.853 92.8061 445.64C93.2194 445.427 93.5394 445.127 93.7661 444.74C94.0061 444.353 94.1261 443.893 94.1261 443.36C94.1261 442.827 94.0061 442.367 93.7661 441.98C93.5394 441.593 93.2194 441.293 92.8061 441.08C92.4061 440.867 91.9461 440.76 91.4261 440.76H87.6461V439.12H91.5461C92.3994 439.12 93.1594 439.293 93.8261 439.64C94.5061 439.987 95.0394 440.48 95.4261 441.12C95.8261 441.747 96.0261 442.493 96.0261 443.36C96.0261 444.213 95.8261 444.96 95.4261 445.6C95.0394 446.227 94.5061 446.72 93.8261 447.08C93.1594 447.427 92.3994 447.6 91.5461 447.6H87.6461ZM86.3861 453V439.12H88.2661V453H86.3861ZM102.048 453.2C101.101 453.2 100.248 452.987 99.4881 452.56C98.7281 452.12 98.1281 451.527 97.6881 450.78C97.2481 450.033 97.0281 449.187 97.0281 448.24C97.0281 447.307 97.2415 446.467 97.6681 445.72C98.1081 444.973 98.6948 444.387 99.4281 443.96C100.175 443.52 101.008 443.3 101.928 443.3C102.808 443.3 103.581 443.5 104.248 443.9C104.928 444.3 105.455 444.853 105.828 445.56C106.215 446.267 106.408 447.067 106.408 447.96C106.408 448.093 106.401 448.24 106.388 448.4C106.375 448.547 106.348 448.72 106.308 448.92H98.2881V447.42H105.348L104.688 448C104.688 447.36 104.575 446.82 104.348 446.38C104.121 445.927 103.801 445.58 103.388 445.34C102.975 445.087 102.475 444.96 101.888 444.96C101.275 444.96 100.735 445.093 100.268 445.36C99.8015 445.627 99.4415 446 99.1881 446.48C98.9348 446.96 98.8081 447.527 98.8081 448.18C98.8081 448.847 98.9415 449.433 99.2081 449.94C99.4748 450.433 99.8548 450.82 100.348 451.1C100.841 451.367 101.408 451.5 102.048 451.5C102.581 451.5 103.068 451.407 103.508 451.22C103.961 451.033 104.348 450.753 104.668 450.38L105.828 451.56C105.375 452.093 104.815 452.5 104.148 452.78C103.495 453.06 102.795 453.2 102.048 453.2ZM108.371 453V443.5H110.171V453H108.371ZM110.171 447.58L109.491 447.28C109.491 446.067 109.771 445.1 110.331 444.38C110.891 443.66 111.697 443.3 112.751 443.3C113.231 443.3 113.664 443.387 114.051 443.56C114.437 443.72 114.797 443.993 115.131 444.38L113.951 445.6C113.751 445.387 113.531 445.233 113.291 445.14C113.051 445.047 112.771 445 112.451 445C111.784 445 111.237 445.213 110.811 445.64C110.384 446.067 110.171 446.713 110.171 447.58ZM119.203 453.2C118.67 453.2 118.163 453.133 117.683 453C117.217 452.853 116.783 452.653 116.383 452.4C115.983 452.133 115.637 451.82 115.343 451.46L116.503 450.3C116.85 450.727 117.25 451.047 117.703 451.26C118.157 451.46 118.663 451.56 119.223 451.56C119.783 451.56 120.217 451.467 120.523 451.28C120.83 451.08 120.983 450.807 120.983 450.46C120.983 450.113 120.857 449.847 120.603 449.66C120.363 449.46 120.05 449.3 119.663 449.18C119.277 449.047 118.863 448.92 118.423 448.8C117.997 448.667 117.59 448.5 117.203 448.3C116.817 448.1 116.497 447.827 116.243 447.48C116.003 447.133 115.883 446.673 115.883 446.1C115.883 445.527 116.023 445.033 116.303 444.62C116.583 444.193 116.97 443.867 117.463 443.64C117.97 443.413 118.577 443.3 119.283 443.3C120.03 443.3 120.69 443.433 121.263 443.7C121.85 443.953 122.33 444.34 122.703 444.86L121.543 446.02C121.277 445.673 120.943 445.407 120.543 445.22C120.157 445.033 119.717 444.94 119.223 444.94C118.703 444.94 118.303 445.033 118.023 445.22C117.757 445.393 117.623 445.64 117.623 445.96C117.623 446.28 117.743 446.527 117.983 446.7C118.223 446.873 118.537 447.02 118.923 447.14C119.323 447.26 119.737 447.387 120.163 447.52C120.59 447.64 120.997 447.807 121.383 448.02C121.77 448.233 122.083 448.52 122.323 448.88C122.577 449.24 122.703 449.713 122.703 450.3C122.703 451.193 122.383 451.9 121.743 452.42C121.117 452.94 120.27 453.2 119.203 453.2ZM129.118 453.2C128.172 453.2 127.318 452.987 126.558 452.56C125.798 452.12 125.198 451.527 124.758 450.78C124.318 450.033 124.098 449.187 124.098 448.24C124.098 447.307 124.312 446.467 124.738 445.72C125.178 444.973 125.765 444.387 126.498 443.96C127.245 443.52 128.078 443.3 128.998 443.3C129.878 443.3 130.652 443.5 131.318 443.9C131.998 444.3 132.525 444.853 132.898 445.56C133.285 446.267 133.478 447.067 133.478 447.96C133.478 448.093 133.472 448.24 133.458 448.4C133.445 448.547 133.418 448.72 133.378 448.92H125.358V447.42H132.418L131.758 448C131.758 447.36 131.645 446.82 131.418 446.38C131.192 445.927 130.872 445.58 130.458 445.34C130.045 445.087 129.545 444.96 128.958 444.96C128.345 444.96 127.805 445.093 127.338 445.36C126.872 445.627 126.512 446 126.258 446.48C126.005 446.96 125.878 447.527 125.878 448.18C125.878 448.847 126.012 449.433 126.278 449.94C126.545 450.433 126.925 450.82 127.418 451.1C127.912 451.367 128.478 451.5 129.118 451.5C129.652 451.5 130.138 451.407 130.578 451.22C131.032 451.033 131.418 450.753 131.738 450.38L132.898 451.56C132.445 452.093 131.885 452.5 131.218 452.78C130.565 453.06 129.865 453.2 129.118 453.2ZM142.161 453V447.46C142.161 446.74 141.934 446.147 141.481 445.68C141.028 445.213 140.441 444.98 139.721 444.98C139.241 444.98 138.814 445.087 138.441 445.3C138.068 445.513 137.774 445.807 137.561 446.18C137.348 446.553 137.241 446.98 137.241 447.46L136.501 447.04C136.501 446.32 136.661 445.68 136.981 445.12C137.301 444.56 137.748 444.12 138.321 443.8C138.894 443.467 139.541 443.3 140.261 443.3C140.981 443.3 141.614 443.48 142.161 443.84C142.721 444.2 143.161 444.673 143.481 445.26C143.801 445.833 143.961 446.447 143.961 447.1V453H142.161ZM135.441 453V443.5H137.241V453H135.441ZM147.741 453V439.52H149.541V453H147.741ZM145.401 445.14V443.5H151.881V445.14H145.401Z" fill="white"/>
<path d="M34.224 474L30.72 463.088H31.584L34.688 472.992H34.384L37.472 463.088H38.16L41.264 472.992H40.944L44.064 463.088H44.928L41.424 474H40.768L37.68 464.112H37.952L34.88 474H34.224ZM48.9354 474.16C48.21 474.16 47.554 473.989 46.9674 473.648C46.3914 473.296 45.9327 472.827 45.5914 472.24C45.25 471.643 45.0794 470.981 45.0794 470.256C45.0794 469.531 45.25 468.88 45.5914 468.304C45.9327 467.717 46.3914 467.253 46.9674 466.912C47.554 466.571 48.21 466.4 48.9354 466.4C49.65 466.4 50.2954 466.571 50.8714 466.912C51.458 467.253 51.922 467.717 52.2634 468.304C52.6047 468.88 52.7754 469.531 52.7754 470.256C52.7754 470.992 52.6047 471.653 52.2634 472.24C51.922 472.827 51.458 473.296 50.8714 473.648C50.2954 473.989 49.65 474.16 48.9354 474.16ZM48.9354 473.392C49.5007 473.392 50.0074 473.253 50.4554 472.976C50.914 472.699 51.2714 472.325 51.5274 471.856C51.794 471.376 51.9274 470.837 51.9274 470.24C51.9274 469.653 51.794 469.131 51.5274 468.672C51.2714 468.213 50.914 467.851 50.4554 467.584C50.0074 467.307 49.5007 467.168 48.9354 467.168C48.3594 467.168 47.842 467.307 47.3834 467.584C46.9354 467.851 46.578 468.213 46.3114 468.672C46.0447 469.131 45.9114 469.659 45.9114 470.256C45.9114 470.853 46.0447 471.387 46.3114 471.856C46.578 472.325 46.9354 472.699 47.3834 472.976C47.842 473.253 48.3594 473.392 48.9354 473.392ZM54.7 474V466.56H55.516V474H54.7ZM55.516 469.552L55.116 469.408C55.116 468.459 55.356 467.723 55.836 467.2C56.316 466.667 56.9453 466.4 57.724 466.4C58.0867 466.4 58.4227 466.464 58.732 466.592C59.052 466.72 59.3453 466.928 59.612 467.216L59.068 467.792C58.8653 467.568 58.6467 467.408 58.412 467.312C58.1773 467.216 57.9 467.168 57.58 467.168C56.972 467.168 56.476 467.376 56.092 467.792C55.708 468.197 55.516 468.784 55.516 469.552ZM65.798 474L61.654 470.176L65.718 466.56H66.758L62.438 470.384L62.454 469.92L66.902 474H65.798ZM60.95 474V462.768H61.766V474H60.95ZM71.0946 474L75.5426 463.088H76.2146L80.6466 474H79.7186L75.7026 463.952H76.0386L71.9906 474H71.0946ZM73.0306 470.784V470.032H78.7106V470.784H73.0306ZM84.7521 474.16C84.3468 474.16 83.9628 474.107 83.6001 474C83.2481 473.883 82.9228 473.723 82.6241 473.52C82.3361 473.317 82.0801 473.083 81.8561 472.816L82.4001 472.272C82.6988 472.667 83.0455 472.96 83.4401 473.152C83.8455 473.333 84.2881 473.424 84.7681 473.424C85.3228 473.424 85.7601 473.312 86.0801 473.088C86.4001 472.864 86.5601 472.549 86.5601 472.144C86.5601 471.781 86.4588 471.499 86.2561 471.296C86.0535 471.083 85.7868 470.917 85.4561 470.8C85.1361 470.683 84.7948 470.571 84.4321 470.464C84.0801 470.357 83.7388 470.229 83.4081 470.08C83.0881 469.931 82.8268 469.723 82.6241 469.456C82.4215 469.189 82.3201 468.832 82.3201 468.384C82.3201 467.989 82.4215 467.643 82.6241 467.344C82.8268 467.045 83.1095 466.816 83.4721 466.656C83.8455 466.485 84.2828 466.4 84.7841 466.4C85.3388 466.4 85.8348 466.496 86.2721 466.688C86.7201 466.88 87.0775 467.163 87.3441 467.536L86.8161 468.08C86.6028 467.781 86.3148 467.552 85.9521 467.392C85.5895 467.221 85.1841 467.136 84.7361 467.136C84.2028 467.136 83.7975 467.248 83.5201 467.472C83.2428 467.696 83.1041 467.984 83.1041 468.336C83.1041 468.667 83.2055 468.928 83.4081 469.12C83.6108 469.312 83.8721 469.461 84.1921 469.568C84.5228 469.675 84.8641 469.781 85.2161 469.888C85.5788 469.984 85.9201 470.112 86.2401 470.272C86.5708 470.432 86.8375 470.651 87.0401 470.928C87.2428 471.205 87.3441 471.584 87.3441 472.064C87.3441 472.704 87.1095 473.216 86.6401 473.6C86.1708 473.973 85.5415 474.16 84.7521 474.16ZM93.0974 474V463.088H93.9454V474H93.0974ZM93.6414 468.944V468.176H99.6254V468.944H93.6414ZM93.6414 463.856V463.088H99.8974V463.856H93.6414ZM101.888 474V462.768H102.704V474H101.888ZM108.53 474.16C107.794 474.16 107.128 473.989 106.53 473.648C105.944 473.307 105.48 472.843 105.138 472.256C104.797 471.669 104.626 471.008 104.626 470.272C104.626 469.536 104.792 468.88 105.122 468.304C105.453 467.717 105.906 467.253 106.482 466.912C107.069 466.571 107.72 466.4 108.434 466.4C109.117 466.4 109.714 466.555 110.226 466.864C110.749 467.163 111.154 467.579 111.442 468.112C111.741 468.645 111.89 469.259 111.89 469.952C111.89 470.016 111.885 470.101 111.874 470.208C111.864 470.304 111.848 470.427 111.826 470.576H105.202V469.872H111.362L111.09 470.096C111.112 469.509 111.016 468.997 110.802 468.56C110.589 468.112 110.28 467.765 109.874 467.52C109.469 467.275 108.984 467.152 108.418 467.152C107.832 467.152 107.314 467.285 106.866 467.552C106.418 467.808 106.066 468.165 105.81 468.624C105.565 469.083 105.442 469.616 105.442 470.224C105.442 470.864 105.57 471.424 105.826 471.904C106.093 472.373 106.461 472.741 106.93 473.008C107.4 473.264 107.949 473.392 108.578 473.392C109.058 473.392 109.501 473.307 109.906 473.136C110.322 472.955 110.669 472.688 110.946 472.336L111.49 472.864C111.149 473.269 110.717 473.589 110.194 473.824C109.682 474.048 109.128 474.16 108.53 474.16ZM113.747 474V466.56H114.563V474H113.747ZM114.563 469.552L114.163 469.408C114.163 468.459 114.403 467.723 114.883 467.2C115.363 466.667 115.992 466.4 116.771 466.4C117.134 466.4 117.47 466.464 117.779 466.592C118.099 466.72 118.392 466.928 118.659 467.216L118.115 467.792C117.912 467.568 117.694 467.408 117.459 467.312C117.224 467.216 116.947 467.168 116.627 467.168C116.019 467.168 115.523 467.376 115.139 467.792C114.755 468.197 114.563 468.784 114.563 469.552ZM123.012 474.16C122.297 474.16 121.652 473.989 121.076 473.648C120.51 473.307 120.062 472.848 119.732 472.272C119.401 471.685 119.236 471.024 119.236 470.288C119.236 469.563 119.401 468.907 119.732 468.32C120.062 467.733 120.51 467.269 121.076 466.928C121.641 466.576 122.276 466.4 122.98 466.4C123.556 466.4 124.068 466.512 124.516 466.736C124.974 466.949 125.348 467.253 125.636 467.648C125.934 468.043 126.126 468.512 126.212 469.056V471.488C126.116 472.032 125.918 472.507 125.62 472.912C125.332 473.307 124.964 473.616 124.516 473.84C124.078 474.053 123.577 474.16 123.012 474.16ZM123.124 473.392C123.977 473.392 124.654 473.109 125.156 472.544C125.668 471.968 125.924 471.216 125.924 470.288C125.924 469.659 125.806 469.115 125.572 468.656C125.348 468.187 125.022 467.824 124.596 467.568C124.169 467.301 123.673 467.168 123.108 467.168C122.521 467.168 121.998 467.301 121.54 467.568C121.092 467.835 120.734 468.203 120.468 468.672C120.212 469.141 120.084 469.675 120.084 470.272C120.084 470.88 120.212 471.419 120.468 471.888C120.734 472.357 121.097 472.725 121.556 472.992C122.014 473.259 122.537 473.392 123.124 473.392ZM125.892 474V472L126.068 470.176L125.892 468.368V466.56H126.708V474H125.892ZM134.706 474V469.584C134.706 468.859 134.493 468.272 134.066 467.824C133.64 467.376 133.074 467.152 132.37 467.152C131.89 467.152 131.464 467.259 131.09 467.472C130.728 467.675 130.44 467.957 130.226 468.32C130.024 468.683 129.922 469.104 129.922 469.584L129.506 469.344C129.506 468.779 129.64 468.277 129.906 467.84C130.173 467.392 130.536 467.04 130.994 466.784C131.453 466.528 131.976 466.4 132.562 466.4C133.149 466.4 133.661 466.539 134.098 466.816C134.546 467.083 134.893 467.451 135.138 467.92C135.384 468.389 135.506 468.912 135.506 469.488V474H134.706ZM129.106 474V466.56H129.922V474H129.106ZM141.139 474.16C140.413 474.16 139.757 473.989 139.171 473.648C138.595 473.296 138.136 472.827 137.795 472.24C137.453 471.643 137.283 470.981 137.283 470.256C137.283 469.531 137.453 468.88 137.795 468.304C138.136 467.717 138.595 467.253 139.171 466.912C139.757 466.571 140.413 466.4 141.139 466.4C141.683 466.4 142.195 466.501 142.675 466.704C143.155 466.907 143.565 467.195 143.907 467.568L143.363 468.112C143.085 467.813 142.755 467.584 142.371 467.424C141.997 467.253 141.587 467.168 141.139 467.168C140.563 467.168 140.045 467.307 139.587 467.584C139.139 467.851 138.781 468.213 138.515 468.672C138.248 469.131 138.115 469.659 138.115 470.256C138.115 470.853 138.248 471.387 138.515 471.856C138.781 472.325 139.139 472.699 139.587 472.976C140.045 473.253 140.563 473.392 141.139 473.392C141.587 473.392 142.003 473.312 142.387 473.152C142.781 472.981 143.117 472.741 143.395 472.432L143.939 472.976C143.587 473.349 143.165 473.643 142.675 473.856C142.195 474.059 141.683 474.16 141.139 474.16ZM148.937 474.16C148.201 474.16 147.534 473.989 146.937 473.648C146.35 473.307 145.886 472.843 145.545 472.256C145.203 471.669 145.033 471.008 145.033 470.272C145.033 469.536 145.198 468.88 145.529 468.304C145.859 467.717 146.313 467.253 146.889 466.912C147.475 466.571 148.126 466.4 148.841 466.4C149.523 466.4 150.121 466.555 150.633 466.864C151.155 467.163 151.561 467.579 151.849 468.112C152.147 468.645 152.297 469.259 152.297 469.952C152.297 470.016 152.291 470.101 152.281 470.208C152.27 470.304 152.254 470.427 152.233 470.576H145.609V469.872H151.769L151.497 470.096C151.518 469.509 151.422 468.997 151.209 468.56C150.995 468.112 150.686 467.765 150.281 467.52C149.875 467.275 149.39 467.152 148.825 467.152C148.238 467.152 147.721 467.285 147.273 467.552C146.825 467.808 146.473 468.165 146.217 468.624C145.971 469.083 145.849 469.616 145.849 470.224C145.849 470.864 145.977 471.424 146.233 471.904C146.499 472.373 146.867 472.741 147.337 473.008C147.806 473.264 148.355 473.392 148.985 473.392C149.465 473.392 149.907 473.307 150.313 473.136C150.729 472.955 151.075 472.688 151.353 472.336L151.897 472.864C151.555 473.269 151.123 473.589 150.601 473.824C150.089 474.048 149.534 474.16 148.937 474.16Z" fill="white"/>
<path d="M503.5 251C503.5 244.373 508.873 239 515.5 239H641.5C648.127 239 653.5 244.373 653.5 251V299C653.5 305.627 648.127 311 641.5 311H515.5C508.873 311 503.5 305.627 503.5 299V251Z" fill="black"/>
<path d="M533.66 262.86L538.78 257.46C539.3 256.927 539.707 256.467 540 256.08C540.293 255.68 540.5 255.313 540.62 254.98C540.753 254.647 540.82 254.3 540.82 253.94C540.82 253.233 540.593 252.68 540.14 252.28C539.687 251.88 539.1 251.68 538.38 251.68C537.673 251.68 537.053 251.853 536.52 252.2C535.987 252.533 535.513 253.053 535.1 253.76L533.78 252.66C534.327 251.753 534.987 251.073 535.76 250.62C536.533 250.153 537.427 249.92 538.44 249.92C539.293 249.92 540.033 250.087 540.66 250.42C541.3 250.753 541.793 251.22 542.14 251.82C542.487 252.42 542.66 253.12 542.66 253.92C542.66 254.493 542.587 255.007 542.44 255.46C542.307 255.913 542.06 256.38 541.7 256.86C541.353 257.327 540.867 257.887 540.24 258.54L536.1 262.8L533.66 262.86ZM533.66 264V262.86L535.26 262.32H542.98V264H533.66ZM550.42 264.2C549.38 264.2 548.427 263.907 547.56 263.32C546.707 262.733 546.027 261.907 545.52 260.84C545.014 259.76 544.76 258.493 544.76 257.04C544.76 255.587 545.007 254.327 545.5 253.26C546.007 252.193 546.687 251.373 547.54 250.8C548.394 250.213 549.334 249.92 550.36 249.92C551.414 249.92 552.367 250.213 553.22 250.8C554.074 251.373 554.747 252.193 555.24 253.26C555.747 254.327 556 255.593 556 257.06C556 258.513 555.747 259.78 555.24 260.86C554.747 261.927 554.074 262.753 553.22 263.34C552.38 263.913 551.447 264.2 550.42 264.2ZM550.38 262.42C551.114 262.42 551.754 262.22 552.3 261.82C552.86 261.407 553.3 260.8 553.62 260C553.94 259.2 554.1 258.213 554.1 257.04C554.1 255.867 553.94 254.887 553.62 254.1C553.3 253.3 552.86 252.7 552.3 252.3C551.74 251.887 551.094 251.68 550.36 251.68C549.64 251.68 549 251.887 548.44 252.3C547.88 252.7 547.44 253.3 547.12 254.1C546.814 254.887 546.66 255.867 546.66 257.04C546.66 258.213 546.814 259.2 547.12 260C547.44 260.8 547.88 261.407 548.44 261.82C549 262.22 549.647 262.42 550.38 262.42ZM557.566 262.86L562.686 257.46C563.206 256.927 563.613 256.467 563.906 256.08C564.2 255.68 564.406 255.313 564.526 254.98C564.66 254.647 564.726 254.3 564.726 253.94C564.726 253.233 564.5 252.68 564.046 252.28C563.593 251.88 563.006 251.68 562.286 251.68C561.58 251.68 560.96 251.853 560.426 252.2C559.893 252.533 559.42 253.053 559.006 253.76L557.686 252.66C558.233 251.753 558.893 251.073 559.666 250.62C560.44 250.153 561.333 249.92 562.346 249.92C563.2 249.92 563.94 250.087 564.566 250.42C565.206 250.753 565.7 251.22 566.046 251.82C566.393 252.42 566.566 253.12 566.566 253.92C566.566 254.493 566.493 255.007 566.346 255.46C566.213 255.913 565.966 256.38 565.606 256.86C565.26 257.327 564.773 257.887 564.146 258.54L560.006 262.8L557.566 262.86ZM557.566 264V262.86L559.166 262.32H566.886V264H557.566ZM574.327 264.2C573.287 264.2 572.333 263.907 571.467 263.32C570.613 262.733 569.933 261.907 569.427 260.84C568.92 259.76 568.667 258.493 568.667 257.04C568.667 255.587 568.913 254.327 569.407 253.26C569.913 252.193 570.593 251.373 571.447 250.8C572.3 250.213 573.24 249.92 574.267 249.92C575.32 249.92 576.273 250.213 577.127 250.8C577.98 251.373 578.653 252.193 579.147 253.26C579.653 254.327 579.907 255.593 579.907 257.06C579.907 258.513 579.653 259.78 579.147 260.86C578.653 261.927 577.98 262.753 577.127 263.34C576.287 263.913 575.353 264.2 574.327 264.2ZM574.287 262.42C575.02 262.42 575.66 262.22 576.207 261.82C576.767 261.407 577.207 260.8 577.527 260C577.847 259.2 578.007 258.213 578.007 257.04C578.007 255.867 577.847 254.887 577.527 254.1C577.207 253.3 576.767 252.7 576.207 252.3C575.647 251.887 575 251.68 574.267 251.68C573.547 251.68 572.907 251.887 572.347 252.3C571.787 252.7 571.347 253.3 571.027 254.1C570.72 254.887 570.567 255.867 570.567 257.04C570.567 258.213 570.72 259.2 571.027 260C571.347 260.8 571.787 261.407 572.347 261.82C572.907 262.22 573.553 262.42 574.287 262.42ZM581.132 264.8L586.692 249.34H588.372L582.832 264.8H581.132ZM589.305 262.86L594.425 257.46C594.945 256.927 595.351 256.467 595.645 256.08C595.938 255.68 596.145 255.313 596.265 254.98C596.398 254.647 596.465 254.3 596.465 253.94C596.465 253.233 596.238 252.68 595.785 252.28C595.331 251.88 594.745 251.68 594.025 251.68C593.318 251.68 592.698 251.853 592.165 252.2C591.631 252.533 591.158 253.053 590.745 253.76L589.425 252.66C589.971 251.753 590.631 251.073 591.405 250.62C592.178 250.153 593.071 249.92 594.085 249.92C594.938 249.92 595.678 250.087 596.305 250.42C596.945 250.753 597.438 251.22 597.785 251.82C598.131 252.42 598.305 253.12 598.305 253.92C598.305 254.493 598.231 255.007 598.085 255.46C597.951 255.913 597.705 256.38 597.345 256.86C596.998 257.327 596.511 257.887 595.885 258.54L591.745 262.8L589.305 262.86ZM589.305 264V262.86L590.905 262.32H598.625V264H589.305ZM606.065 264.2C605.025 264.2 604.072 263.907 603.205 263.32C602.352 262.733 601.672 261.907 601.165 260.84C600.658 259.76 600.405 258.493 600.405 257.04C600.405 255.587 600.652 254.327 601.145 253.26C601.652 252.193 602.332 251.373 603.185 250.8C604.038 250.213 604.978 249.92 606.005 249.92C607.058 249.92 608.012 250.213 608.865 250.8C609.718 251.373 610.392 252.193 610.885 253.26C611.392 254.327 611.645 255.593 611.645 257.06C611.645 258.513 611.392 259.78 610.885 260.86C610.392 261.927 609.718 262.753 608.865 263.34C608.025 263.913 607.092 264.2 606.065 264.2ZM606.025 262.42C606.758 262.42 607.398 262.22 607.945 261.82C608.505 261.407 608.945 260.8 609.265 260C609.585 259.2 609.745 258.213 609.745 257.04C609.745 255.867 609.585 254.887 609.265 254.1C608.945 253.3 608.505 252.7 607.945 252.3C607.385 251.887 606.738 251.68 606.005 251.68C605.285 251.68 604.645 251.887 604.085 252.3C603.525 252.7 603.085 253.3 602.765 254.1C602.458 254.887 602.305 255.867 602.305 257.04C602.305 258.213 602.458 259.2 602.765 260C603.085 260.8 603.525 261.407 604.085 261.82C604.645 262.22 605.292 262.42 606.025 262.42ZM613.211 262.86L618.331 257.46C618.851 256.927 619.257 256.467 619.551 256.08C619.844 255.68 620.051 255.313 620.171 254.98C620.304 254.647 620.371 254.3 620.371 253.94C620.371 253.233 620.144 252.68 619.691 252.28C619.237 251.88 618.651 251.68 617.931 251.68C617.224 251.68 616.604 251.853 616.071 252.2C615.537 252.533 615.064 253.053 614.651 253.76L613.331 252.66C613.877 251.753 614.537 251.073 615.311 250.62C616.084 250.153 616.977 249.92 617.991 249.92C618.844 249.92 619.584 250.087 620.211 250.42C620.851 250.753 621.344 251.22 621.691 251.82C622.037 252.42 622.211 253.12 622.211 253.92C622.211 254.493 622.137 255.007 621.991 255.46C621.857 255.913 621.611 256.38 621.251 256.86C620.904 257.327 620.417 257.887 619.791 258.54L615.651 262.8L613.211 262.86ZM613.211 264V262.86L614.811 262.32H622.531V264H613.211ZM628.311 264.2C627.404 264.2 626.578 264.033 625.831 263.7C625.098 263.353 624.478 262.853 623.971 262.2L625.251 260.92C625.558 261.387 625.978 261.76 626.511 262.04C627.044 262.307 627.638 262.44 628.291 262.44C628.904 262.44 629.431 262.327 629.871 262.1C630.324 261.86 630.678 261.527 630.931 261.1C631.198 260.673 631.331 260.18 631.331 259.62C631.331 259.047 631.198 258.553 630.931 258.14C630.678 257.713 630.318 257.387 629.851 257.16C629.384 256.933 628.831 256.82 628.191 256.82C627.951 256.82 627.711 256.84 627.471 256.88C627.231 256.907 626.998 256.953 626.771 257.02L627.571 255.94C627.824 255.82 628.098 255.727 628.391 255.66C628.684 255.593 628.978 255.56 629.271 255.56C630.018 255.56 630.684 255.733 631.271 256.08C631.871 256.427 632.344 256.913 632.691 257.54C633.051 258.167 633.231 258.893 633.231 259.72C633.231 260.6 633.018 261.38 632.591 262.06C632.178 262.727 631.604 263.253 630.871 263.64C630.138 264.013 629.284 264.2 628.311 264.2ZM626.771 257.02V255.88L630.831 251.26L633.071 251.24L628.891 255.98L626.771 257.02ZM624.631 251.8V250.12H633.071V251.24L631.431 251.8H624.631Z" fill="white"/>
<path d="M569.12 283.14C568.373 283.14 567.729 283 567.188 282.72C566.647 282.431 566.18 282.034 565.788 281.53L566.306 281.026C566.67 281.521 567.081 281.885 567.538 282.118C568.005 282.342 568.541 282.454 569.148 282.454C569.801 282.454 570.333 282.3 570.744 281.992C571.155 281.684 571.36 281.255 571.36 280.704C571.36 280.284 571.271 279.943 571.094 279.682C570.917 279.421 570.679 279.206 570.38 279.038C570.091 278.87 569.769 278.721 569.414 278.59C569.069 278.459 568.719 278.329 568.364 278.198C568.019 278.058 567.701 277.89 567.412 277.694C567.123 277.489 566.885 277.227 566.698 276.91C566.521 276.593 566.432 276.191 566.432 275.706C566.432 275.221 566.549 274.801 566.782 274.446C567.025 274.082 567.351 273.802 567.762 273.606C568.182 273.41 568.663 273.312 569.204 273.312C569.82 273.312 570.371 273.433 570.856 273.676C571.341 273.909 571.747 274.241 572.074 274.67L571.556 275.174C571.248 274.791 570.903 274.502 570.52 274.306C570.147 274.101 569.703 273.998 569.19 273.998C568.593 273.998 568.107 274.147 567.734 274.446C567.37 274.735 567.188 275.141 567.188 275.664C567.188 276.056 567.277 276.373 567.454 276.616C567.631 276.859 567.865 277.064 568.154 277.232C568.453 277.391 568.775 277.531 569.12 277.652C569.475 277.773 569.825 277.904 570.17 278.044C570.515 278.184 570.833 278.361 571.122 278.576C571.421 278.781 571.659 279.047 571.836 279.374C572.013 279.701 572.102 280.116 572.102 280.62C572.102 281.432 571.831 282.057 571.29 282.496C570.758 282.925 570.035 283.14 569.12 283.14ZM574.982 283V273.732H575.696V283H574.982ZM573.302 277.12V276.49H577.376V277.12H573.302ZM581.362 283.14C580.839 283.14 580.372 283.019 579.962 282.776C579.551 282.533 579.229 282.197 578.996 281.768C578.772 281.339 578.66 280.844 578.66 280.284V276.49H579.374V280.256C579.374 280.695 579.453 281.082 579.612 281.418C579.78 281.745 580.013 282.001 580.312 282.188C580.61 282.375 580.96 282.468 581.362 282.468C581.959 282.468 582.435 282.267 582.79 281.866C583.154 281.455 583.336 280.919 583.336 280.256V276.49H584.05V280.284C584.05 280.844 583.933 281.339 583.7 281.768C583.476 282.197 583.158 282.533 582.748 282.776C582.346 283.019 581.884 283.14 581.362 283.14ZM588.805 283.14C588.189 283.14 587.639 282.991 587.153 282.692C586.668 282.393 586.285 281.992 586.005 281.488C585.725 280.975 585.585 280.396 585.585 279.752C585.585 279.108 585.725 278.529 586.005 278.016C586.285 277.503 586.668 277.097 587.153 276.798C587.639 276.499 588.189 276.35 588.805 276.35C589.281 276.35 589.72 276.443 590.121 276.63C590.532 276.817 590.877 277.087 591.157 277.442C591.437 277.787 591.615 278.198 591.689 278.674V280.802C591.605 281.269 591.428 281.679 591.157 282.034C590.887 282.379 590.546 282.65 590.135 282.846C589.734 283.042 589.291 283.14 588.805 283.14ZM588.931 282.468C589.426 282.468 589.86 282.351 590.233 282.118C590.607 281.885 590.896 281.567 591.101 281.166C591.316 280.755 591.423 280.284 591.423 279.752C591.423 279.211 591.316 278.739 591.101 278.338C590.887 277.927 590.588 277.605 590.205 277.372C589.832 277.139 589.393 277.022 588.889 277.022C588.395 277.022 587.951 277.139 587.559 277.372C587.177 277.605 586.873 277.927 586.649 278.338C586.425 278.739 586.313 279.206 586.313 279.738C586.313 280.27 586.425 280.741 586.649 281.152C586.873 281.563 587.181 281.885 587.573 282.118C587.965 282.351 588.418 282.468 588.931 282.468ZM592.109 283H591.395V281.25L591.563 279.654L591.395 278.072V273.172H592.109V283ZM596.434 283.014L593.536 276.49H594.32L596.826 282.272H596.462L599.08 276.49H599.864L596.798 283.014H596.434ZM594.74 285.758L596.42 282.314L596.798 283.014L595.51 285.758H594.74ZM537.337 301L541.229 291.452H541.817L545.695 301H544.883L541.369 292.208H541.663L538.121 301H537.337ZM539.031 298.186V297.528H544.001V298.186H539.031ZM552.241 301V297.136C552.241 296.501 552.054 295.988 551.681 295.596C551.308 295.204 550.813 295.008 550.197 295.008C549.777 295.008 549.404 295.101 549.077 295.288C548.76 295.465 548.508 295.713 548.321 296.03C548.144 296.347 548.055 296.716 548.055 297.136L547.691 296.926C547.691 296.431 547.808 295.993 548.041 295.61C548.274 295.218 548.592 294.91 548.993 294.686C549.394 294.462 549.852 294.35 550.365 294.35C550.878 294.35 551.326 294.471 551.709 294.714C552.101 294.947 552.404 295.269 552.619 295.68C552.834 296.091 552.941 296.548 552.941 297.052V301H552.241ZM547.341 301V294.49H548.055V301H547.341ZM557.729 301.14C557.113 301.14 556.563 300.991 556.077 300.692C555.592 300.393 555.209 299.992 554.929 299.488C554.649 298.975 554.509 298.396 554.509 297.752C554.509 297.108 554.649 296.529 554.929 296.016C555.209 295.503 555.592 295.097 556.077 294.798C556.563 294.499 557.113 294.35 557.729 294.35C558.205 294.35 558.644 294.443 559.045 294.63C559.456 294.817 559.801 295.087 560.081 295.442C560.361 295.787 560.539 296.198 560.613 296.674V298.802C560.529 299.269 560.352 299.679 560.081 300.034C559.811 300.379 559.47 300.65 559.059 300.846C558.658 301.042 558.215 301.14 557.729 301.14ZM557.855 300.468C558.35 300.468 558.784 300.351 559.157 300.118C559.531 299.885 559.82 299.567 560.025 299.166C560.24 298.755 560.347 298.284 560.347 297.752C560.347 297.211 560.24 296.739 560.025 296.338C559.811 295.927 559.512 295.605 559.129 295.372C558.756 295.139 558.317 295.022 557.813 295.022C557.319 295.022 556.875 295.139 556.483 295.372C556.101 295.605 555.797 295.927 555.573 296.338C555.349 296.739 555.237 297.206 555.237 297.738C555.237 298.27 555.349 298.741 555.573 299.152C555.797 299.563 556.105 299.885 556.497 300.118C556.889 300.351 557.342 300.468 557.855 300.468ZM561.033 301H560.319V299.25L560.487 297.654L560.319 296.072V291.172H561.033V301ZM566.501 301V291.452H567.243V301H566.501ZM574.499 301V297.136C574.499 296.501 574.312 295.988 573.939 295.596C573.565 295.204 573.071 295.008 572.455 295.008C572.035 295.008 571.661 295.101 571.335 295.288C571.017 295.465 570.765 295.713 570.579 296.03C570.401 296.347 570.313 296.716 570.313 297.136L569.949 296.926C569.949 296.431 570.065 295.993 570.299 295.61C570.532 295.218 570.849 294.91 571.251 294.686C571.652 294.462 572.109 294.35 572.623 294.35C573.136 294.35 573.584 294.471 573.967 294.714C574.359 294.947 574.662 295.269 574.877 295.68C575.091 296.091 575.199 296.548 575.199 297.052V301H574.499ZM569.599 301V294.49H570.313V301H569.599ZM578.113 301V291.732H578.827V301H578.113ZM576.433 295.12V294.49H580.507V295.12H576.433ZM584.694 301.14C584.05 301.14 583.467 300.991 582.944 300.692C582.431 300.393 582.025 299.987 581.726 299.474C581.428 298.961 581.278 298.382 581.278 297.738C581.278 297.094 581.423 296.52 581.712 296.016C582.002 295.503 582.398 295.097 582.902 294.798C583.416 294.499 583.985 294.35 584.61 294.35C585.208 294.35 585.73 294.485 586.178 294.756C586.636 295.017 586.99 295.381 587.242 295.848C587.504 296.315 587.634 296.851 587.634 297.458C587.634 297.514 587.63 297.589 587.62 297.682C587.611 297.766 587.597 297.873 587.578 298.004H581.782V297.388H587.172L586.934 297.584C586.953 297.071 586.869 296.623 586.682 296.24C586.496 295.848 586.225 295.545 585.87 295.33C585.516 295.115 585.091 295.008 584.596 295.008C584.083 295.008 583.63 295.125 583.238 295.358C582.846 295.582 582.538 295.895 582.314 296.296C582.1 296.697 581.992 297.164 581.992 297.696C581.992 298.256 582.104 298.746 582.328 299.166C582.562 299.577 582.884 299.899 583.294 300.132C583.705 300.356 584.186 300.468 584.736 300.468C585.156 300.468 585.544 300.393 585.898 300.244C586.262 300.085 586.566 299.852 586.808 299.544L587.284 300.006C586.986 300.361 586.608 300.641 586.15 300.846C585.702 301.042 585.217 301.14 584.694 301.14ZM589.259 301V294.49H589.973V301H589.259ZM589.973 297.108L589.623 296.982C589.623 296.151 589.833 295.507 590.253 295.05C590.673 294.583 591.224 294.35 591.905 294.35C592.222 294.35 592.516 294.406 592.787 294.518C593.067 294.63 593.324 294.812 593.557 295.064L593.081 295.568C592.904 295.372 592.712 295.232 592.507 295.148C592.302 295.064 592.059 295.022 591.779 295.022C591.247 295.022 590.813 295.204 590.477 295.568C590.141 295.923 589.973 296.436 589.973 297.108ZM599.71 301V297.136C599.71 296.501 599.523 295.988 599.15 295.596C598.776 295.204 598.282 295.008 597.666 295.008C597.246 295.008 596.872 295.101 596.546 295.288C596.228 295.465 595.976 295.713 595.79 296.03C595.612 296.347 595.524 296.716 595.524 297.136L595.16 296.926C595.16 296.431 595.276 295.993 595.51 295.61C595.743 295.218 596.06 294.91 596.462 294.686C596.863 294.462 597.32 294.35 597.834 294.35C598.347 294.35 598.795 294.471 599.178 294.714C599.57 294.947 599.873 295.269 600.088 295.68C600.302 296.091 600.41 296.548 600.41 297.052V301H599.71ZM594.81 301V294.49H595.524V301H594.81ZM605.38 301.14C604.736 301.14 604.153 300.991 603.63 300.692C603.117 300.393 602.711 299.987 602.412 299.474C602.113 298.961 601.964 298.382 601.964 297.738C601.964 297.094 602.109 296.52 602.398 296.016C602.687 295.503 603.084 295.097 603.588 294.798C604.101 294.499 604.671 294.35 605.296 294.35C605.893 294.35 606.416 294.485 606.864 294.756C607.321 295.017 607.676 295.381 607.928 295.848C608.189 296.315 608.32 296.851 608.32 297.458C608.32 297.514 608.315 297.589 608.306 297.682C608.297 297.766 608.283 297.873 608.264 298.004H602.468V297.388H607.858L607.62 297.584C607.639 297.071 607.555 296.623 607.368 296.24C607.181 295.848 606.911 295.545 606.556 295.33C606.201 295.115 605.777 295.008 605.282 295.008C604.769 295.008 604.316 295.125 603.924 295.358C603.532 295.582 603.224 295.895 603 296.296C602.785 296.697 602.678 297.164 602.678 297.696C602.678 298.256 602.79 298.746 603.014 299.166C603.247 299.577 603.569 299.899 603.98 300.132C604.391 300.356 604.871 300.468 605.422 300.468C605.842 300.468 606.229 300.393 606.584 300.244C606.948 300.085 607.251 299.852 607.494 299.544L607.97 300.006C607.671 300.361 607.293 300.641 606.836 300.846C606.388 301.042 605.903 301.14 605.38 301.14ZM609.945 301V294.49H610.659V301H609.945ZM610.659 297.108L610.309 296.982C610.309 296.151 610.519 295.507 610.939 295.05C611.359 294.583 611.909 294.35 612.591 294.35C612.908 294.35 613.202 294.406 613.473 294.518C613.753 294.63 614.009 294.812 614.243 295.064L613.767 295.568C613.589 295.372 613.398 295.232 613.193 295.148C612.987 295.064 612.745 295.022 612.465 295.022C611.933 295.022 611.499 295.204 611.163 295.568C610.827 295.923 610.659 296.436 610.659 297.108ZM617.209 301.14C616.854 301.14 616.518 301.093 616.201 301C615.893 300.897 615.608 300.757 615.347 300.58C615.095 300.403 614.871 300.197 614.675 299.964L615.151 299.488C615.412 299.833 615.716 300.09 616.061 300.258C616.416 300.417 616.803 300.496 617.223 300.496C617.708 300.496 618.091 300.398 618.371 300.202C618.651 300.006 618.791 299.731 618.791 299.376C618.791 299.059 618.702 298.811 618.525 298.634C618.348 298.447 618.114 298.303 617.825 298.2C617.545 298.097 617.246 297.999 616.929 297.906C616.621 297.813 616.322 297.701 616.033 297.57C615.753 297.439 615.524 297.257 615.347 297.024C615.17 296.791 615.081 296.478 615.081 296.086C615.081 295.741 615.17 295.437 615.347 295.176C615.524 294.915 615.772 294.714 616.089 294.574C616.416 294.425 616.798 294.35 617.237 294.35C617.722 294.35 618.156 294.434 618.539 294.602C618.931 294.77 619.244 295.017 619.477 295.344L619.015 295.82C618.828 295.559 618.576 295.358 618.259 295.218C617.942 295.069 617.587 294.994 617.195 294.994C616.728 294.994 616.374 295.092 616.131 295.288C615.888 295.484 615.767 295.736 615.767 296.044C615.767 296.333 615.856 296.562 616.033 296.73C616.21 296.898 616.439 297.029 616.719 297.122C617.008 297.215 617.307 297.309 617.615 297.402C617.932 297.486 618.231 297.598 618.511 297.738C618.8 297.878 619.034 298.069 619.211 298.312C619.388 298.555 619.477 298.886 619.477 299.306C619.477 299.866 619.272 300.314 618.861 300.65C618.45 300.977 617.9 301.14 617.209 301.14ZM626.042 301V297.136C626.042 296.501 625.855 295.988 625.482 295.596C625.108 295.204 624.614 295.008 623.998 295.008C623.578 295.008 623.204 295.101 622.878 295.288C622.56 295.465 622.308 295.713 622.122 296.03C621.944 296.347 621.856 296.716 621.856 297.136L621.492 296.926C621.492 296.431 621.608 295.993 621.842 295.61C622.075 295.218 622.392 294.91 622.794 294.686C623.195 294.462 623.652 294.35 624.166 294.35C624.679 294.35 625.127 294.467 625.51 294.7C625.902 294.924 626.205 295.241 626.42 295.652C626.634 296.063 626.742 296.529 626.742 297.052V301H626.042ZM621.142 301V291.172H621.856V301H621.142ZM628.73 301V294.49H629.43V301H628.73ZM629.08 292.978C628.921 292.978 628.786 292.922 628.674 292.81C628.571 292.689 628.52 292.549 628.52 292.39C628.52 292.231 628.571 292.101 628.674 291.998C628.786 291.886 628.921 291.83 629.08 291.83C629.239 291.83 629.374 291.886 629.486 291.998C629.598 292.101 629.654 292.231 629.654 292.39C629.654 292.549 629.598 292.689 629.486 292.81C629.374 292.922 629.239 292.978 629.08 292.978ZM634.864 301.14C634.378 301.14 633.93 301.042 633.52 300.846C633.118 300.65 632.782 300.379 632.512 300.034C632.241 299.679 632.064 299.269 631.98 298.802V296.674C632.064 296.198 632.241 295.787 632.512 295.442C632.792 295.087 633.132 294.817 633.534 294.63C633.944 294.443 634.388 294.35 634.864 294.35C635.48 294.35 636.03 294.499 636.516 294.798C637.001 295.097 637.384 295.503 637.664 296.016C637.944 296.529 638.084 297.108 638.084 297.752C638.084 298.396 637.944 298.975 637.664 299.488C637.384 299.992 637.001 300.393 636.516 300.692C636.03 300.991 635.48 301.14 634.864 301.14ZM634.738 300.468C635.251 300.468 635.704 300.351 636.096 300.118C636.488 299.885 636.796 299.563 637.02 299.152C637.244 298.741 637.356 298.27 637.356 297.738C637.356 297.206 637.244 296.735 637.02 296.324C636.796 295.913 636.488 295.596 636.096 295.372C635.713 295.139 635.274 295.022 634.78 295.022C634.276 295.022 633.832 295.139 633.45 295.372C633.076 295.596 632.782 295.913 632.568 296.324C632.353 296.735 632.246 297.211 632.246 297.752C632.246 298.284 632.348 298.755 632.554 299.166C632.768 299.567 633.062 299.885 633.436 300.118C633.818 300.351 634.252 300.468 634.738 300.468ZM631.56 303.758V294.49H632.274V296.114L632.106 297.696L632.274 299.292V303.758H631.56Z" fill="white"/>
<path d="M583 316V368H426" stroke="#CCCCCC" strokeWidth="2"/>
</svg>
