<svg width="728" height="800" viewBox="0 0 728 800" fill="none" xmlns="http://www.w3.org/2000/svg">
<path opacity="0.0344828" d="M-5.1922 355.549C-20.973 349.196 -18.5497 326.14 -1.79297 323.207L227.829 283.016C237.57 281.311 244.201 272.184 242.812 262.393L210.079 31.5901C207.69 14.7471 228.869 5.31764 239.788 18.363L389.405 197.125C395.752 204.709 406.971 205.888 414.757 199.79L598.271 56.0411C611.663 45.551 630.419 59.1776 624.58 75.1558L544.576 294.11C541.182 303.398 545.771 313.704 554.945 317.397L771.192 404.451C786.973 410.804 784.55 433.86 767.793 436.793L538.171 476.984C528.43 478.689 521.799 487.816 523.188 497.607L555.921 728.41C558.309 745.253 537.131 754.682 526.212 741.637L376.595 562.874C370.248 555.291 359.028 554.112 351.243 560.21L167.729 703.959C154.337 714.449 135.581 700.822 141.419 684.844L221.424 465.89C224.817 456.602 220.229 446.296 211.055 442.603L-5.1922 355.549Z" stroke="white" stroke-opacity="0.16" strokeWidth="1.4151"/>
<path opacity="0.0689655" d="M2.06231 336.128C-13.3644 328.958 -9.73779 306.06 7.14951 304.008L234.753 276.352C244.57 275.159 251.669 266.392 250.795 256.542L230.526 28.162C229.022 11.2171 250.665 2.90902 260.885 16.5078L398.638 199.79C404.58 207.695 415.722 209.46 423.816 203.778L611.463 72.034C625.386 62.2591 643.403 76.8486 636.736 92.4994L546.885 303.438C543.01 312.536 547.053 323.068 556.021 327.236L763.938 423.872C779.365 431.042 775.738 453.939 758.851 455.991L531.248 483.648C521.431 484.84 514.331 493.608 515.205 503.458L535.475 731.838C536.979 748.783 515.336 757.091 505.115 743.492L367.362 560.21C361.421 552.304 350.278 550.54 342.185 556.222L154.537 687.966C140.614 697.741 122.598 683.151 129.264 667.5L219.115 456.562C222.991 447.464 218.948 436.932 209.98 432.764L2.06231 336.128Z" stroke="white" stroke-opacity="0.16" strokeWidth="1.4151"/>
<path opacity="0.103448" d="M10.2701 317.397C-4.76013 309.429 0.0599285 286.753 17.0315 285.588L241.945 270.144C251.811 269.467 259.359 261.083 259.002 251.2L250.851 25.9047C250.236 8.90437 272.284 1.7405 281.779 15.8556L407.61 202.914C413.13 211.12 424.165 213.465 432.545 208.214L623.581 88.5078C637.996 79.4749 655.224 94.9874 647.748 110.268L548.666 312.77C544.319 321.653 547.806 332.382 556.543 337.014L755.73 442.603C770.76 450.57 765.94 473.247 748.969 474.412L524.055 489.856C514.19 490.533 506.641 498.917 506.998 508.799L515.149 734.095C515.764 751.095 493.716 758.259 484.221 744.144L358.39 557.085C352.87 548.88 341.835 546.534 333.455 551.785L142.419 671.492C128.004 680.525 110.776 665.012 118.252 649.732L217.334 447.229C221.681 438.347 218.195 427.617 209.457 422.986L10.2701 317.397Z" stroke="white" stroke-opacity="0.16" strokeWidth="1.4151"/>
<path opacity="0.137931" d="M19.3802 299.402C4.78748 290.659 10.7877 268.266 27.797 267.99L249.376 264.401C259.264 264.241 267.241 256.263 267.401 246.376L270.99 24.7967C271.266 7.78742 293.659 1.78729 302.402 16.38L416.3 206.478C421.383 214.961 432.279 217.881 440.923 213.076L634.61 105.395C649.479 97.1288 665.871 113.522 657.605 128.39L549.924 322.077C545.119 330.721 548.039 341.618 556.522 346.7L746.62 460.598C761.213 469.341 755.213 491.734 738.204 492.01L516.625 495.599C506.737 495.76 498.76 503.737 498.6 513.624L495.01 735.203C494.735 752.213 472.342 758.213 463.598 743.62L349.701 553.522C344.618 545.039 333.721 542.119 325.078 546.924L131.39 654.605C116.522 662.871 100.129 646.478 108.395 631.61L216.076 437.922C220.881 429.279 217.962 418.382 209.478 413.3L19.3802 299.402Z" stroke="white" stroke-opacity="0.16" strokeWidth="1.4151"/>
<path opacity="0.172414" d="M29.3372 282.185C15.2221 272.69 22.386 250.642 39.3864 251.257L257.017 259.13C266.9 259.488 275.283 251.939 275.961 242.073L290.879 24.8114C292.045 7.83992 314.721 3.01992 322.688 18.0502L424.685 210.461C429.317 219.198 440.046 222.684 448.929 218.338L644.542 122.627C659.823 115.15 675.335 132.379 666.302 146.794L550.668 331.331C545.417 339.711 547.763 350.746 555.968 356.265L736.663 477.816C750.778 487.311 743.614 509.359 726.614 508.744L508.983 500.87C499.1 500.513 490.717 508.061 490.039 517.927L475.121 735.189C473.956 752.161 451.279 756.981 443.312 741.95L341.315 549.54C336.683 540.802 325.954 537.316 317.071 541.662L121.458 637.374C106.178 644.85 90.6652 627.622 99.698 613.207L215.332 428.67C220.583 420.29 218.238 409.255 210.032 403.735L29.3372 282.185Z" stroke="white" stroke-opacity="0.16" strokeWidth="1.4151"/>
<path opacity="0.206897" d="M40.0854 265.785C26.4866 255.564 34.7946 233.921 51.7395 235.425L264.84 254.338C274.691 255.212 283.458 248.113 284.651 238.296L310.457 25.9196C312.509 9.03236 335.406 5.40575 342.576 20.8324L432.747 214.84C436.915 223.808 447.447 227.851 456.545 223.975L653.371 140.135C669.022 133.469 683.611 151.485 673.837 165.408L550.907 340.502C545.224 348.596 546.989 359.738 554.894 365.679L725.915 494.216C739.514 504.437 731.206 526.08 714.261 524.576L501.16 505.663C491.309 504.788 482.542 511.888 481.349 521.705L455.544 734.081C453.492 750.968 430.594 754.595 423.424 739.168L333.253 545.161C329.085 536.193 318.553 532.15 309.455 536.026L112.629 619.865C96.9782 626.532 82.3886 608.515 92.1635 594.592L215.093 419.499C220.776 411.405 219.011 400.263 211.106 394.321L40.0854 265.785Z" stroke="white" stroke-opacity="0.16" strokeWidth="1.4151"/>
<path opacity="0.241379" d="M51.567 250.235C38.5217 239.317 47.951 218.138 64.794 220.527L272.816 250.029C282.607 251.418 291.734 244.787 293.439 235.046L329.663 28.0883C332.596 11.3316 355.652 8.90825 362.005 24.689L440.466 219.592C444.159 228.766 454.465 233.355 463.754 229.961L661.096 157.853C677.074 152.015 690.701 170.77 680.211 184.162L550.65 349.563C544.552 357.349 545.731 368.568 553.315 374.915L714.433 509.765C727.478 520.683 718.049 541.862 701.206 539.473L493.184 509.971C483.393 508.583 474.266 515.214 472.561 524.955L436.337 731.912C433.404 748.669 410.348 751.092 403.995 735.311L325.534 540.408C321.841 531.234 311.535 526.646 302.246 530.04L104.904 602.147C88.9257 607.986 75.299 589.23 85.7891 575.838L215.35 410.437C221.448 402.652 220.269 391.432 212.685 385.085L51.567 250.235Z" stroke="white" stroke-opacity="0.16" strokeWidth="1.4151"/>
<path opacity="0.275862" d="M63.7227 235.57C51.2667 223.984 61.7916 203.328 78.4864 206.595L280.916 246.207C290.621 248.106 300.082 241.962 302.295 232.323L348.443 31.2832C352.249 14.7029 375.4 13.4896 380.918 29.5812L447.828 224.696C451.035 234.051 461.087 239.172 470.54 236.269L667.72 175.714C683.982 170.72 696.609 190.163 685.432 202.988L549.912 358.491C543.415 365.946 544.005 377.212 551.246 383.947L702.278 524.433C714.734 536.019 704.209 556.675 687.514 553.408L485.085 513.796C475.38 511.897 465.919 518.041 463.706 527.679L417.558 728.72C413.752 745.3 390.601 746.513 385.083 730.422L318.173 535.306C314.965 525.952 304.914 520.83 295.46 523.734L98.2806 584.288C82.0187 589.283 69.3922 569.84 80.5689 557.015L216.089 401.512C222.586 394.057 221.996 382.791 214.755 376.056L63.7227 235.57Z" stroke="white" stroke-opacity="0.16" strokeWidth="1.4151"/>
<path opacity="0.310345" d="M76.4909 221.812C64.6583 209.59 76.2498 189.513 92.7509 193.649L289.11 242.869C298.702 245.273 308.472 239.633 311.186 230.123L366.74 35.4614C371.409 19.103 394.592 19.103 399.26 35.4615L454.814 230.123C457.528 239.633 467.298 245.273 476.89 242.869L673.249 193.649C689.75 189.513 701.342 209.59 689.509 221.812L548.704 367.254C541.825 374.359 541.825 385.641 548.704 392.746L689.509 538.188C701.342 550.41 689.75 570.487 673.249 566.351L476.89 517.131C467.298 514.727 457.528 520.367 454.814 529.877L399.26 724.539C394.592 740.897 371.409 740.897 366.74 724.539L311.186 529.877C308.472 520.367 298.702 514.727 289.11 517.131L92.7508 566.351C76.2498 570.487 64.6583 550.41 76.4909 538.188L217.296 392.746C224.175 385.641 224.175 374.359 217.296 367.254L76.4909 221.812Z" stroke="white" stroke-opacity="0.16" strokeWidth="1.4151"/>
<path opacity="0.344828" d="M89.8113 208.989C78.6346 196.164 91.261 176.721 107.523 181.715L297.371 240.019C306.825 242.922 316.876 237.8 320.084 228.446L384.506 40.5855C390.024 24.4939 413.175 25.7072 416.981 42.2875L461.413 235.853C463.626 245.491 473.087 251.635 482.792 249.736L677.695 211.597C694.389 208.33 704.914 228.986 692.458 240.572L547.042 375.834C539.801 382.569 539.211 393.835 545.708 401.29L676.189 551.011C687.366 563.836 674.739 583.279 658.477 578.285L468.629 519.982C459.176 517.079 449.124 522.2 445.916 531.555L381.494 719.415C375.976 735.506 352.825 734.293 349.019 717.713L304.587 524.148C302.375 514.509 292.913 508.365 283.208 510.264L88.3056 548.404C71.6108 551.67 61.0859 531.014 73.5418 519.428L218.958 384.166C226.199 377.431 226.789 366.165 220.292 358.71L89.8113 208.989Z" stroke="white" stroke-opacity="0.16" strokeWidth="1.4151"/>
<path opacity="0.37931" d="M103.621 197.119C93.1308 183.726 106.757 164.971 122.736 170.809L305.671 237.652C314.959 241.046 325.265 236.458 328.958 227.284L401.691 46.6104C408.044 30.8296 431.1 33.2529 434.033 50.0097L467.613 241.857C469.318 251.598 478.444 258.229 488.235 256.841L681.07 229.493C697.913 227.104 707.343 248.283 694.297 259.201L544.942 384.206C537.358 390.553 536.179 401.772 542.277 409.557L662.379 562.883C672.869 576.275 659.243 595.031 643.264 589.192L460.329 522.349C451.041 518.955 440.735 523.544 437.042 532.717L364.309 713.391C357.956 729.172 334.9 726.749 331.967 709.992L298.387 518.144C296.682 508.403 287.556 501.772 277.764 503.161L84.9298 530.509C68.0868 532.898 58.6574 511.719 71.7027 500.801L221.058 375.796C228.641 369.449 229.821 358.229 223.723 350.444L103.621 197.119Z" stroke="white" stroke-opacity="0.16" strokeWidth="1.4151"/>
<path opacity="0.413793" d="M117.858 186.216C108.083 172.293 122.672 154.276 138.323 160.943L313.981 235.766C323.079 239.641 333.611 235.598 337.779 226.63L418.252 53.4881C425.422 38.0614 448.32 41.6881 450.372 58.5754L473.402 248.111C474.595 257.928 483.362 265.027 493.213 264.153L683.395 247.274C700.34 245.77 708.648 267.413 695.049 277.634L542.421 392.346C534.516 398.288 532.751 409.43 538.434 417.524L648.143 573.786C657.918 587.709 643.328 605.726 627.677 599.059L452.019 524.236C442.921 520.361 432.389 524.404 428.221 533.372L347.748 706.514C340.578 721.941 317.681 718.314 315.629 701.427L292.598 511.891C291.405 502.074 282.638 494.975 272.788 495.849L82.6059 512.728C65.661 514.232 57.3529 492.589 70.9518 482.368L223.579 367.656C231.484 361.714 233.249 350.572 227.567 342.478L117.858 186.216Z" stroke="white" stroke-opacity="0.16" strokeWidth="1.4151"/>
<path opacity="0.448276" d="M132.458 176.292C123.425 161.876 138.938 144.648 154.218 152.125L322.275 234.353C331.158 238.699 341.887 235.213 346.518 226.475L434.147 61.1704C442.114 46.1401 464.79 50.9602 465.956 67.9317L478.773 254.587C479.45 264.453 487.834 272.001 497.716 271.644L684.689 264.88C701.689 264.265 708.853 286.313 694.738 295.808L539.498 400.235C531.293 405.755 528.947 416.79 534.198 425.169L633.542 583.71C642.575 598.125 627.063 615.354 611.782 607.877L443.726 525.649C434.843 521.303 424.114 524.789 419.482 533.526L331.854 698.831C323.886 713.862 301.21 709.042 300.045 692.07L287.228 505.415C286.551 495.549 278.167 488 268.284 488.358L81.3119 495.122C64.3115 495.737 57.1475 473.689 71.2626 464.194L226.502 359.767C234.708 354.247 237.053 343.212 231.802 334.832L132.458 176.292Z" stroke="white" stroke-opacity="0.16" strokeWidth="1.4151"/>
<path opacity="0.482759" d="M147.359 167.355C139.093 152.486 155.485 136.094 170.354 144.36L330.525 233.407C339.168 238.212 350.065 235.292 355.147 226.809L449.336 69.6064C458.079 55.0138 480.472 61.014 480.748 78.0233L483.716 261.259C483.876 271.147 491.853 279.124 501.741 279.284L684.977 282.253C701.986 282.528 707.987 304.921 693.394 313.664L536.191 407.853C527.708 412.936 524.788 423.832 529.593 432.476L618.641 592.647C626.907 607.515 610.514 623.908 595.646 615.642L435.475 526.594C426.831 521.789 415.935 524.709 410.852 533.192L316.663 690.395C307.92 704.988 285.527 698.987 285.252 681.978L282.283 498.742C282.123 488.854 274.146 480.877 264.258 480.717L81.0223 477.749C64.013 477.473 58.0128 455.08 72.6055 446.337L229.808 352.148C238.291 347.066 241.211 336.169 236.406 327.526L147.359 167.355Z" stroke="white" stroke-opacity="0.16" strokeWidth="1.4151"/>
<path opacity="0.517241" d="M162.499 159.409C155.022 144.129 172.25 128.616 186.666 137.649L338.707 232.921C347.087 238.172 358.122 235.826 363.641 227.621L463.788 78.7447C473.283 64.6296 495.331 71.7935 494.716 88.7939L488.229 268.102C487.872 277.984 495.42 286.368 505.286 287.046L684.29 299.337C701.261 300.502 706.081 323.179 691.051 331.146L532.522 415.182C523.785 419.814 520.299 430.543 524.645 439.426L603.503 600.593C610.979 615.874 593.751 631.386 579.335 622.353L427.294 527.081C418.914 521.83 407.879 524.176 402.36 532.381L302.213 681.257C292.718 695.373 270.67 688.209 271.285 671.208L277.772 491.9C278.129 482.018 270.581 473.634 260.715 472.957L81.7111 460.665C64.7396 459.5 59.9195 436.824 74.9498 428.856L233.479 344.82C242.216 340.188 245.702 329.459 241.356 320.576L162.499 159.409Z" stroke="white" stroke-opacity="0.16" strokeWidth="1.4151"/>
<path opacity="0.551724" d="M177.813 152.453C171.147 136.802 189.163 122.212 203.086 131.987L346.795 232.882C354.888 238.565 366.03 236.8 371.972 228.895L477.469 88.5293C487.69 74.9305 509.333 83.2386 507.829 100.184L492.305 275.086C491.431 284.937 498.531 293.704 508.348 294.897L682.656 316.077C699.543 318.129 703.17 341.027 687.743 348.197L528.511 422.204C519.543 426.373 515.5 436.904 519.376 446.003L588.187 607.548C594.854 623.199 576.837 637.788 562.915 628.014L419.206 527.118C411.112 521.436 399.97 523.201 394.029 531.106L288.532 671.472C278.311 685.07 256.668 676.762 258.172 659.817L273.695 484.915C274.569 475.064 267.47 466.297 257.653 465.104L83.3446 443.924C66.4573 441.872 62.8308 418.974 78.2574 411.804L237.489 337.797C246.457 333.628 250.5 323.097 246.625 313.998L177.813 152.453Z" stroke="white" stroke-opacity="0.16" strokeWidth="1.4151"/>
<path opacity="0.586207" d="M193.242 146.485C187.404 130.506 206.159 116.88 219.551 127.37L354.763 233.283C362.549 239.381 373.768 238.202 380.115 230.618L490.352 98.9074C501.271 85.8622 522.449 95.2915 520.061 112.134L495.943 282.188C494.555 291.98 501.186 301.106 510.927 302.811L680.11 332.424C696.867 335.357 699.29 358.413 683.509 364.766L524.18 428.906C515.006 432.6 510.418 442.905 513.812 452.194L572.758 613.518C578.596 629.496 559.841 643.122 546.449 632.632L411.237 526.719C403.451 520.621 392.232 521.8 385.885 529.384L275.648 661.095C264.729 674.14 243.551 664.71 245.939 647.868L270.057 477.814C271.445 468.022 264.814 458.896 255.073 457.191L85.8897 427.578C69.133 424.645 66.7097 401.589 82.4905 395.236L241.82 331.096C250.994 327.403 255.582 317.097 252.188 307.808L193.242 146.485Z" stroke="white" stroke-opacity="0.16" strokeWidth="1.4151"/>
<path opacity="0.62069" d="M208.725 141.495C203.731 125.233 223.174 112.606 235.998 123.783L362.591 234.108C370.047 240.605 381.312 240.015 388.048 232.774L502.415 109.821C514.001 97.3648 534.658 107.89 531.391 124.585L499.143 289.38C497.244 299.085 503.388 308.546 513.026 310.759L676.691 348.327C693.271 352.133 694.484 375.284 678.393 380.802L519.552 435.273C510.198 438.481 505.076 448.532 507.979 457.986L557.276 618.507C562.27 634.769 542.827 647.396 530.003 636.219L403.41 525.894C395.954 519.397 384.689 519.987 377.953 527.228L263.586 650.181C252 662.637 231.343 652.112 234.61 635.418L266.858 470.622C268.757 460.917 262.613 451.456 252.975 449.243L89.3102 411.675C72.7299 407.869 71.5166 384.718 87.6082 379.2L246.449 324.729C255.803 321.522 260.925 311.47 258.022 302.016L208.725 141.495Z" stroke="white" stroke-opacity="0.16" strokeWidth="1.4151"/>
<path opacity="0.655172" d="M224.201 137.473C220.064 120.972 240.142 109.38 252.364 121.213L370.254 235.344C377.359 242.223 388.64 242.223 395.745 235.344L513.636 121.213C525.858 109.38 545.935 120.972 541.799 137.473L501.903 296.634C499.498 306.227 505.139 315.997 514.649 318.711L672.435 363.741C688.793 368.409 688.793 391.592 672.435 396.261L514.649 441.291C505.139 444.005 499.498 453.774 501.903 463.367L541.799 622.529C545.935 639.03 525.858 650.621 513.636 638.789L395.745 524.657C388.64 517.778 377.359 517.778 370.254 524.657L252.364 638.789C240.142 650.621 220.064 639.03 224.201 622.529L264.097 463.367C266.501 453.774 260.86 444.005 251.351 441.291L93.5647 396.261C77.2063 391.592 77.2063 368.409 93.5646 363.741L251.351 318.711C260.86 315.997 266.501 306.227 264.097 296.634L224.201 137.473Z" stroke="white" stroke-opacity="0.16" strokeWidth="1.4151"/>
<path opacity="0.689655" d="M239.613 134.383C236.346 117.688 257.003 107.163 268.589 119.619L377.733 236.957C384.468 244.198 395.734 244.788 403.189 238.291L524 133.005C536.825 121.828 556.268 134.454 551.274 150.716L504.228 303.906C501.325 313.36 506.447 323.412 515.801 326.619L667.387 378.602C683.479 384.12 682.265 407.271 665.685 411.077L509.496 446.93C499.857 449.142 493.713 458.603 495.612 468.308L526.387 625.577C529.654 642.272 508.998 652.797 497.412 640.341L388.268 523.003C381.533 515.762 370.267 515.172 362.812 521.669L242 626.955C229.176 638.132 209.733 625.505 214.727 609.244L261.772 456.053C264.675 446.6 259.554 436.548 250.199 433.341L98.6135 381.358C82.5219 375.84 83.7352 352.689 100.316 348.883L256.505 313.03C266.143 310.818 272.287 301.357 270.388 291.651L239.613 134.383Z" stroke="white" stroke-opacity="0.16" strokeWidth="1.4151"/>
<path opacity="0.724138" d="M254.905 132.249C252.516 115.407 273.695 105.977 284.613 119.022L385.005 238.97C391.352 246.554 402.572 247.733 410.357 241.635L533.493 145.181C546.885 134.691 565.641 148.317 559.803 164.296L506.12 311.212C502.727 320.5 507.315 330.806 516.489 334.499L661.589 392.911C677.37 399.264 674.946 422.32 658.19 425.253L504.116 452.221C494.375 453.926 487.744 463.053 489.132 472.844L511.096 627.711C513.484 644.554 492.306 653.983 481.387 640.938L380.995 520.99C374.648 513.406 363.429 512.227 355.644 518.325L232.507 614.78C219.115 625.27 200.359 611.643 206.198 595.665L259.88 448.749C263.274 439.46 258.685 429.154 249.511 425.461L104.411 367.049C88.6305 360.696 91.0537 337.64 107.81 334.707L261.885 307.739C271.626 306.034 278.257 296.907 276.868 287.116L254.905 132.249Z" stroke="white" stroke-opacity="0.16" strokeWidth="1.4151"/>
<path opacity="0.758621" d="M270.02 131.03C268.516 114.085 290.159 105.777 300.38 119.376L392.053 241.348C397.994 249.253 409.137 251.018 417.23 245.336L542.108 157.662C556.031 147.887 574.047 162.476 567.381 178.127L507.586 318.504C503.71 327.602 507.753 338.134 516.721 342.303L655.088 406.613C670.515 413.783 666.888 436.68 650.001 438.732L498.533 457.137C488.716 458.33 481.617 467.097 482.491 476.947L495.98 628.932C497.484 645.877 475.841 654.185 465.62 640.586L373.947 518.613C368.006 510.708 356.863 508.943 348.77 514.626L223.892 602.3C209.969 612.075 191.953 597.485 198.62 581.834L258.414 441.457C262.29 432.359 258.247 421.827 249.279 417.659L110.912 353.349C95.4854 346.179 99.1121 323.281 115.999 321.229L267.467 302.825C277.284 301.632 284.383 292.865 283.509 283.014L270.02 131.03Z" stroke="white" stroke-opacity="0.16" strokeWidth="1.4151"/>
<path opacity="0.793103" d="M284.907 130.698C284.292 113.698 306.34 106.534 315.835 120.649L398.858 244.07C404.378 252.275 415.413 254.621 423.792 249.37L549.838 170.388C564.253 161.355 581.482 176.867 574.005 192.148L508.631 325.759C504.284 334.641 507.771 345.371 516.508 350.002L647.931 419.67C662.962 427.637 658.142 450.314 641.17 451.479L492.773 461.669C482.907 462.346 475.358 470.73 475.716 480.612L481.093 629.262C481.708 646.262 459.66 653.426 450.165 639.311L367.142 515.89C361.622 507.685 350.588 505.339 342.208 510.59L216.162 589.572C201.747 598.605 184.519 583.093 191.995 567.812L257.369 434.202C261.716 425.319 258.23 414.59 249.492 409.958L118.069 340.29C103.039 332.323 107.859 309.646 124.83 308.481L273.228 298.291C283.093 297.614 290.642 289.23 290.285 279.348L284.907 130.698Z" stroke="white" stroke-opacity="0.16" strokeWidth="1.4151"/>
<path opacity="0.827586" d="M299.514 131.229C299.789 114.22 322.182 108.219 330.925 122.812L405.405 247.12C410.487 255.603 421.384 258.522 430.027 253.717L556.682 183.303C571.55 175.037 587.943 191.43 579.677 206.298L509.263 332.953C504.458 341.596 507.378 352.493 515.861 357.576L640.168 432.055C654.761 440.798 648.761 463.191 631.752 463.467L486.858 465.814C476.971 465.974 468.994 473.951 468.833 483.839L466.486 628.732C466.211 645.741 443.818 651.741 435.074 637.149L360.595 512.841C355.513 504.358 344.616 501.438 335.973 506.244L209.318 576.657C194.45 584.923 178.057 568.531 186.323 553.662L256.737 427.008C261.542 418.365 258.622 407.468 250.139 402.385L125.832 327.906C111.239 319.163 117.239 296.77 134.248 296.494L279.141 294.147C289.029 293.987 297.006 286.01 297.167 276.122L299.514 131.229Z" stroke="white" stroke-opacity="0.16" strokeWidth="1.4151"/>
<path opacity="0.862069" d="M313.792 132.591C314.957 115.619 337.634 110.799 345.601 125.829L411.677 250.476C416.308 259.214 427.037 262.7 435.92 258.354L562.642 196.35C577.923 188.874 593.435 206.102 584.402 220.517L509.492 340.064C504.241 348.443 506.587 359.478 514.792 364.998L631.85 443.74C645.965 453.235 638.801 475.284 621.8 474.669L480.815 469.568C470.933 469.21 462.549 476.759 461.872 486.625L452.207 627.371C451.042 644.342 428.366 649.162 420.398 634.132L354.323 509.485C349.691 500.748 338.962 497.262 330.079 501.608L203.357 563.611C188.077 571.088 172.564 553.86 181.597 539.444L256.507 419.898C261.758 411.518 259.413 400.483 251.207 394.964L134.15 316.221C120.035 306.726 127.199 284.678 144.199 285.293L285.184 290.394C295.067 290.751 303.45 283.202 304.128 273.336L313.792 132.591Z" stroke="white" stroke-opacity="0.16" strokeWidth="1.4151"/>
<path opacity="0.896552" d="M327.697 134.75C329.749 117.863 352.646 114.236 359.816 129.663L417.661 254.119C421.829 263.087 432.361 267.13 441.459 263.255L567.724 209.471C583.375 202.804 597.965 220.821 588.19 234.744L509.33 347.067C503.647 355.161 505.412 366.303 513.317 372.245L623.028 454.702C636.626 464.922 628.318 486.566 611.374 485.062L474.668 472.928C464.818 472.054 456.051 479.154 454.858 488.971L438.303 625.211C436.251 642.098 413.354 645.725 406.184 630.298L348.339 505.842C344.171 496.874 333.639 492.831 324.541 496.706L198.276 550.49C182.625 557.156 168.035 539.14 177.81 525.217L256.67 412.894C262.353 404.8 260.588 393.658 252.683 387.716L142.972 305.259C129.374 295.039 137.682 273.395 154.626 274.899L291.332 287.032C301.182 287.907 309.949 280.807 311.142 270.99L327.697 134.75Z" stroke="white" stroke-opacity="0.16" strokeWidth="1.4151"/>
<path opacity="0.931035" d="M341.183 137.672C344.116 120.915 367.172 118.492 373.525 134.273L423.345 258.029C427.038 267.202 437.343 271.791 446.632 268.397L571.937 222.611C587.915 216.773 601.542 235.529 591.052 248.921L508.786 353.944C502.687 361.729 503.867 372.949 511.45 379.296L613.754 464.92C626.799 475.839 617.37 497.017 600.527 494.629L468.441 475.896C458.65 474.507 449.523 481.138 447.818 490.879L424.817 622.289C421.884 639.046 398.828 641.469 392.475 625.689L342.655 501.932C338.962 492.759 328.656 488.17 319.368 491.564L194.063 537.35C178.085 543.188 164.458 524.433 174.948 511.04L257.214 406.017C263.312 398.232 262.133 387.012 254.55 380.665L152.246 295.041C139.201 284.123 148.63 262.944 165.473 265.333L297.559 284.065C307.35 285.454 316.477 278.823 318.182 269.082L341.183 137.672Z" stroke="white" stroke-opacity="0.16" strokeWidth="1.4151"/>
<path opacity="0.965517" d="M354.21 141.319C358.016 124.738 381.167 123.525 386.685 139.617L428.716 262.183C431.924 271.538 441.976 276.659 451.429 273.756L575.293 235.717C591.555 230.723 604.181 250.166 593.004 262.99L507.874 360.673C501.377 368.129 501.967 379.395 509.208 386.13L604.083 474.379C616.539 485.965 606.014 506.622 589.319 503.355L462.158 478.471C452.453 476.572 442.992 482.716 440.779 492.355L411.79 618.643C407.984 635.224 384.833 636.437 379.315 620.345L337.284 497.779C334.076 488.424 324.024 483.303 314.571 486.206L190.707 524.245C174.445 529.239 161.819 509.796 172.996 496.972L258.126 399.288C264.623 391.833 264.033 380.567 256.792 373.832L161.917 285.583C149.461 273.996 159.986 253.34 176.681 256.607L303.842 281.491C313.547 283.39 323.009 277.246 325.221 267.607L354.21 141.319Z" stroke="white" stroke-opacity="0.16" strokeWidth="1.4151"/>
<path d="M366.74 145.649C371.408 129.29 394.591 129.29 399.26 145.649L433.766 266.559C436.48 276.069 446.25 281.71 455.842 279.305L577.807 248.733C594.308 244.597 605.9 264.674 594.067 276.896L506.609 367.235C499.73 374.34 499.73 385.621 506.609 392.726L594.067 483.065C605.9 495.287 594.308 515.364 577.807 511.228L455.842 480.656C446.25 478.251 436.48 483.892 433.766 493.402L399.26 614.312C394.591 630.671 371.408 630.671 366.74 614.312L332.234 493.402C329.52 483.892 319.75 478.251 310.158 480.656L188.193 511.228C171.692 515.364 160.1 495.287 171.933 483.065L259.391 392.726C266.27 385.621 266.27 374.34 259.391 367.235L171.933 276.896C160.1 264.674 171.692 244.597 188.193 248.733L310.158 279.305C319.75 281.71 329.52 276.069 332.234 266.559L366.74 145.649Z" stroke="white" stroke-opacity="0.16" strokeWidth="1.4151"/>
</svg>
